<?xml version="1.0" standalone="no"?>
<!DOCTYPE svg PUBLIC "-//W3C//DTD SVG 1.1//EN" "http://www.w3.org/Graphics/SVG/1.1/DTD/svg11.dtd" >
<!--
2016-5-14: Created with FontForge (http://fontforge.org)
-->
<svg xmlns="http://www.w3.org/2000/svg" xmlns:xlink="http://www.w3.org/1999/xlink" version="1.1">
<metadata>
Created by FontForge 20141231 at Sat May 14 14:16:49 2016
 By Ryan Nichols
Copyright (c) 2016, Ryan Nichols
</metadata>
<defs>
<font id="open-iconic" horiz-adv-x="512" >
  <font-face 
    font-family="open-iconic"
    font-weight="400"
    font-stretch="normal"
    units-per-em="512"
    panose-1="2 0 5 3 0 0 0 0 0 0"
    ascent="448"
    descent="-64"
    bbox="-64 -78.0801 516.636 450.183"
    underline-thickness="25.6"
    underline-position="-51.2"
    unicode-range="U+0020-F1DE"
  />
    <missing-glyph />
    <glyph glyph-name="space" unicode=" " horiz-adv-x="200" 
 />
    <glyph glyph-name="uniF184" unicode="&#xf184;" 
d="M282.24 448c1.53027 0.271484 4.03516 0.492188 5.58984 0.492188c17.6641 0 32 -14.3359 32 -32c0 -10.9434 -7.95215 -23.7793 -17.75 -28.6523l-192 -96c-4.71094 -3.53223 -13.3125 -6.39941 -19.2002 -6.39941c-17.6641 0 -32 14.3359 -32 32
c0 13.248 10.3223 27.0098 23.04 30.7197l192 96c2.14355 1.3916 5.87012 3.1123 8.32031 3.83984zM346.24 352c1.53027 0.271484 4.03516 0.492188 5.58984 0.492188c17.6641 0 32 -14.3359 32 -32c0 -10.9434 -7.95215 -23.7793 -17.75 -28.6523l-256 -128
c-4.71094 -3.53223 -13.3125 -6.39941 -19.2002 -6.39941c-17.6641 0 -32 14.3359 -32 32c0 13.248 10.3223 27.0098 23.04 30.7197l256 128c2.14355 1.3916 5.87012 3.1123 8.32031 3.83984zM346.24 224c1.53027 0.271484 4.03516 0.492188 5.58984 0.492188
c17.6641 0 32 -14.3359 32 -32c0 -10.9434 -7.95215 -23.7793 -17.75 -28.6523l-67.8398 -35.8398c15.0625 -2.41016 27.2871 -16.7461 27.2871 -32c0 -17.8887 -14.5186 -32.4072 -32.4072 -32.4072c-1.42188 0 -3.71582 0.182617 -5.12012 0.407227h-128
c-17.0654 0.579102 -30.915 14.9062 -30.915 31.9814c0 10.5537 7.54199 23.1777 16.835 28.1787l192 96c2.14355 1.3916 5.87012 3.1123 8.32031 3.83984zM182.4 0h0.639648c0.529297 0.0322266 1.38965 0.0576172 1.91992 0.0576172
s1.39062 -0.0253906 1.91992 -0.0576172c0.792969 0.0712891 2.08398 0.129883 2.87988 0.129883c0.796875 0 2.08691 -0.0585938 2.87988 -0.129883h64c17.6641 0 32 -14.3359 32 -32s-14.3359 -32 -32 -32h-64c-1.4043 -0.224609 -3.69727 -0.407227 -5.12012 -0.407227
c-17.8887 0 -32.4062 14.5186 -32.4062 32.4072c0 15.2539 12.2246 29.5898 27.2871 32z" />
    <glyph glyph-name="uniF1BB" unicode="&#xf1bb;" 
d="M48 448h144v-64h-128v-320h256v64h64v-80c0 -26.2402 -21.7598 -48 -48 -48h-288c-26.2402 0 -48 21.7598 -48 48v352c0 26.2402 21.7598 48 48 48zM384 448l128 -128l-128 -128v64h-128c-60.7998 0 -110.72 -41.5996 -124.16 -97.9199
c15.3604 127.36 120.96 225.92 252.16 225.92v64z" />
    <glyph glyph-name="uniF10C" unicode="&#xf10c;" 
d="M256 448c141.44 0 256 -114.56 256 -256s-114.56 -256 -256 -256s-256 114.56 -256 256s114.56 256 256 256zM256 384l-192 -192h128v-192h128v192h128z" />
    <glyph glyph-name="uniF140" unicode="&#xf140;" 
d="M320 384h64l-192 -384h-64zM64 320h64l-64 -128l64 -128h-64l-64 128zM384 320h64l64 -128l-64 -128h-64l64 128z" />
    <glyph glyph-name="uniF162" unicode="&#xf162;" 
d="M0 448h128v-512h-128v512zM448 448h64v-512h-64v512zM384 320v-256l-128 128z" />
    <glyph glyph-name="uniF1D1" unicode="&#xf1d1;" 
d="M5.75977 448h115.84c3.2002 0 5.76074 -1.91992 5.76074 -5.75977v-307.84c0 -3.2002 -2.56055 -5.76074 -5.76074 -5.76074h-115.84c-3.2002 0 -5.75977 2.56055 -5.75977 5.76074v307.84c0 3.2002 1.91992 5.75977 5.75977 5.75977zM389.76 448h115.84
c3.2002 0 5.76074 -1.91992 5.76074 -5.75977v-307.84c0 -3.2002 -2.56055 -5.76074 -5.76074 -5.76074h-115.84c-3.2002 0 -5.75977 2.56055 -5.75977 5.76074v307.84c0 3.2002 2.55957 5.75977 5.75977 5.75977zM197.76 320h115.84
c3.2002 0 5.76074 -1.91992 5.76074 -5.75977v-179.84c0 -3.2002 -2.56055 -5.76074 -5.76074 -5.76074h-115.84c-3.2002 0 -5.75977 2.56055 -5.75977 5.76074v179.84c0 3.2002 1.91992 5.75977 5.75977 5.75977zM0 64h512v-64h-512v64z" />
    <glyph glyph-name="uniF156" unicode="&#xf156;" 
d="M192 384v-64c-71.04 0 -128 -56.96 -128 -128h128v-192h-192v192c0 105.6 86.4004 192 192 192zM512 384v-64c-71.04 0 -128 -56.96 -128 -128h128v-192h-192v192c0 105.6 86.4004 192 192 192z" />
    <glyph glyph-name="uniF182" unicode="&#xf182;" 
d="M85.7598 384h1.28027c0.529297 0.0322266 1.38965 0.0576172 1.91992 0.0576172s1.39062 -0.0253906 1.91992 -0.0576172c0.792969 0.0712891 2.08398 0.129883 2.87988 0.129883c0.796875 0 2.08691 -0.0585938 2.87988 -0.129883h320c17.6641 0 32 -14.3359 32 -32
v-224h64v-96c0 -17.9199 -14.0801 -32 -32 -32h-448.64c-17.9199 0 -32 14.0801 -32 32v96h64v224c-0.0244141 0.459961 -0.0439453 1.20703 -0.0439453 1.66797c0 12.6973 9.76855 26.2861 21.8037 30.332zM128 320v-192h64v-64h128v64h64v192h-256z" />
    <glyph glyph-name="uniF1A0" unicode="&#xf1a0;" 
d="M224 448l96 -96h-64v-96h96v64l96 -96l-96 -96v64h-96v-96h64l-96 -96l-96 96h64v96h-96v-64l-96 96l96 96v-64h96v96h-64z" />
    <glyph glyph-name="uniF153" unicode="&#xf153;" 
d="M192 448h64v-64h48c18.5596 0 37.1201 -3.83984 51.8398 -14.0801c15.3604 -9.59961 28.1602 -28.1602 28.1602 -49.9199v-64h-64v60.1602c-2.55957 1.28027 -8.95996 3.83984 -16 3.83984h-160c-8.95996 0 -16 -7.04004 -16 -16v-32
c0 -9.59961 12.7998 -25.5996 21.7598 -28.1602l163.84 -42.2402c41.6006 -10.8799 69.7607 -46.7197 69.7607 -90.2393v-32c0 -44.1602 -35.8408 -80 -80 -80h-48v-64h-64v64h-48c-18.5605 0 -37.1201 3.83984 -51.8408 14.0801
c-15.3594 9.59961 -28.1592 28.1592 -28.1592 49.9199v64h64v-60.1602c2.55957 -1.28027 8.31934 -3.83984 16 -3.83984h160c8.95996 0 16 7.04004 16 16v32c0 9.59961 -12.8008 25.5996 -21.7607 28.1592l-163.84 42.2402
c-41.5996 10.8799 -69.7598 46.7207 -69.7598 90.2402v32c0 43.5195 36.4805 80 80 80h48v64z" />
    <glyph glyph-name="uniF196" unicode="&#xf196;" 
d="M0 384l256 -192l-256 -192v384zM256 192v192l256 -192l-256 -192v192z" />
    <glyph glyph-name="uniF1A7" unicode="&#xf1a7;" 
d="M224 448c10.8799 0 21.7598 -0.639648 32 -1.91992v-254.08l-190.08 190.08c40.3203 40.3203 96 65.9199 158.08 65.9199zM320 380.16c108.16 -16 192 -107.521 192 -220.16c0 -123.52 -100.48 -224 -224 -224c-54.4004 0 -103.04 19.8398 -142.08 51.8398l174.08 174.08
v218.24zM58.2402 296.32l152.319 -149.761l-136.319 -136.319c-44.7998 35.2002 -74.2402 88.3193 -74.2402 149.76c0 53.7598 22.4004 101.76 58.2402 136.32z" />
    <glyph glyph-name="uniF105" unicode="&#xf105;" 
d="M0 448h512v-64h-512v64zM0 320h384v-64h-384v64zM0 192h512v-64h-512v64zM0 64h384v-64h-384v64z" />
    <glyph glyph-name="uniF173" unicode="&#xf173;" 
d="M0 448h192v-192h-192v192zM320 448h192v-192h-192v192zM0 128h192v-192h-192v192zM320 128h192v-192h-192v192z" />
    <glyph glyph-name="uniF161" unicode="&#xf161;" 
d="M0 448h64v-512h-64v512zM384 448h128v-512h-128v512zM128 320l128 -128l-128 -128v256z" />
    <glyph glyph-name="uniF12E" unicode="&#xf12e;" 
d="M384 448v-512l-256 256z" />
    <glyph glyph-name="uniF17E" unicode="&#xf17e;" 
d="M0 448h512v-64h-512v64zM0 320h512v-64h-512v64zM0 192h512v-64h-512v64zM64 64h384v-64h-384v64z" />
    <glyph glyph-name="uniF1BC" unicode="&#xf1bc;" 
d="M256 448l12.1602 -5.75977l224 -94.0801l19.8398 -8.32031v-19.8398c0 -106.24 -42.8799 -199.68 -94.0801 -268.16c-25.5996 -33.9199 -53.1201 -62.0801 -80 -81.9199s-52.4795 -33.9199 -81.9199 -33.9199c-28.7998 0 -55.04 14.0801 -81.9199 33.9199
s-54.4004 48 -80 81.9199c-51.2002 68.4805 -94.0801 161.92 -94.0801 268.16v19.8398l19.8398 8.32031l224 94.0801zM256 378.24v-0.640625l-188.16 -78.0801c5.12012 -80 37.1201 -155.52 78.0801 -209.92c22.4004 -29.4395 46.7197 -54.3994 67.8398 -69.7598
c21.1201 -15.3594 39.6807 -19.8398 42.2402 -19.8398v378.24z" />
    <glyph glyph-name="uniF183" unicode="&#xf183;" 
d="M0 448h256v-256h-256v256zM320 320h64v-256h-256v64h192v192zM448 192h64v-256h-256v64h192v192z" />
    <glyph glyph-name="uniF166" unicode="&#xf166;" 
d="M211.84 448l0.640625 0.639648c0.529297 0.0322266 1.38867 0.0576172 1.91992 0.0576172c0.530273 0 1.39062 -0.0253906 1.91992 -0.0576172c1.66504 0.323242 4.39258 0.584961 6.08789 0.584961c7.96973 0 18.7178 -4.84961 23.9922 -10.8242l60.1592 -60.1602
l42.2402 42.2402c36.4805 36.4795 99.8398 36.4795 136.32 0c37.7598 -37.7607 37.7598 -99.2002 0 -136.32l-42.2402 -42.2402l60.1602 -60.1602c5.85254 -5.2627 10.6016 -15.9219 10.6016 -23.793c0 -17.6641 -14.3359 -32 -32 -32
c-8.3252 0 -19.3828 5.21191 -24.6816 11.6328l-40.3203 42.2402l-234.239 -234.24l-10.2402 -10.2393h-172.16v174.08l10.2402 10.2393l229.76 234.24l-40.3203 40.3203c-5.55176 5.22949 -10.0566 15.665 -10.0566 23.292c0 12.8809 9.95312 26.5303 22.2168 30.4678z
M286.08 307.84l-200.32 -202.24l81.9199 -83.8398l202.24 202.24z" />
    <glyph glyph-name="uniF19E" unicode="&#xf19e;" 
d="M21.7598 448h0.640625c0.529297 0.0322266 1.38965 0.0576172 1.91992 0.0576172s1.39062 -0.0253906 1.91992 -0.0576172c0.792969 0.0712891 2.08301 0.129883 2.87988 0.129883c0.795898 0 2.08691 -0.0585938 2.87988 -0.129883h448c17.6641 0 32 -14.3359 32 -32
v-320c0 -17.6641 -14.3359 -32 -32 -32h-160v-64h64c35.2002 0 64 -28.7998 64 -64h-384c0 35.2002 28.7998 64 64 64h64v64h-160c-17.6641 0 -32 14.3359 -32 32v320c-0.0244141 0.459961 -0.0439453 1.20703 -0.0439453 1.66797c0 12.6973 9.76855 26.2861 21.8037 30.332
zM64 384v-256h384v256h-384z" />
    <glyph glyph-name="uniF1C4" unicode="&#xf1c4;" 
d="M21.7598 448h403.84c11.5205 0 21.7607 -10.2402 21.7607 -21.7598v-467.84c0 -11.5205 -10.2402 -21.7607 -21.7607 -21.7607h-403.84c-11.5195 0 -21.7598 10.2402 -21.7598 21.7607v467.84c0 11.5195 10.2402 21.7598 21.7598 21.7598zM64 384v-320h320v320h-320z
M224 32c-24.96 0 -40.3203 -26.8799 -28.1602 -48c12.7998 -21.1201 44.1602 -21.1201 56.3203 0s-3.83984 48 -28.1602 48z" />
    <glyph glyph-name="uniF170" unicode="&#xf170;" 
d="M449.92 448l62.0801 -64l-256 -256l-64 64l-128 -129.92l-64 64l192 193.92l64 -64zM0 0h512v-64h-512v64z" />
    <glyph glyph-name="uniF1D8" unicode="&#xf1d8;" 
d="M197.76 448h-1.2793h51.8398c3.83984 0 7.04004 -2.55957 8.31934 -5.75977l188.16 -435.84c1.28027 -3.2002 1.91992 -8.95996 1.91992 -12.1602v-51.8398c0 -3.2002 -2.55957 -5.76074 -5.75977 -5.76074h-435.84c-3.2002 0 -5.75977 2.56055 -5.75977 5.76074v51.8398
c0 3.83984 0.639648 8.95996 1.91992 12.1602l188.16 435.84c1.91992 3.2002 4.47949 5.75977 8.31934 5.75977zM192 256v-128h64v128h-64zM192 64v-64h64v64h-64z" />
    <glyph glyph-name="uniF16A" unicode="&#xf16a;" 
d="M224 448h96l-64 -128h128l-96 -192h96l-192 -192l-64 192h85.7598l42.2402 128h-128z" />
    <glyph glyph-name="uniF1C9" unicode="&#xf1c9;" 
d="M5.75977 448h499.84c3.2002 0 5.76074 -1.91992 5.76074 -5.75977v-499.84c0 -3.2002 -2.56055 -5.76074 -5.76074 -5.76074h-499.84c-3.2002 0 -5.75977 2.56055 -5.75977 5.76074v499.84c0 3.2002 1.91992 5.75977 5.75977 5.75977zM96 398.08l-46.0801 -46.0801
l64 -64l-64 -64l46.0801 -46.0801l110.08 110.08zM256 256v-64h192v64h-192z" />
    <glyph glyph-name="uniF185" unicode="&#xf185;" 
d="M128 448h64v-128h-128v64h64v64zM376.32 446.08l0.639648 -0.639648c11.5205 0.639648 24.3203 0.639648 35.8398 -1.9209c23.04 -5.11914 44.1602 -16 62.0801 -33.9199c49.9199 -49.2793 49.9199 -129.92 0 -179.84l-96 -96
c-5.20215 -8.20605 -17.3105 -14.8672 -27.0273 -14.8672c-17.6641 0 -32 14.3359 -32 32c0 9.7168 6.66113 21.8252 14.8672 27.0273l96 96c24.96 25.5996 24.96 67.2002 0 92.1602c-17.9199 18.5596 -45.4395 21.7598 -67.8398 14.0801
c-8.95996 -3.2002 -17.2803 -7.04004 -24.3203 -14.0801l-28.1592 -28.1602c-5.20312 -8.20703 -17.3105 -14.8672 -27.0273 -14.8672c-17.6641 0 -32 14.3359 -32 32c0 9.7168 6.66016 21.8252 14.8672 27.0273l28.1602 28.1602
c14.0801 14.0801 30.7197 23.6797 48 30.0801c10.8799 3.83984 22.3994 5.12012 33.9199 5.75977zM146.56 259.84h-0.639648c0.529297 0.0322266 1.38965 0.0576172 1.91992 0.0576172s1.39062 -0.0253906 1.91992 -0.0576172
c1.39355 0.224609 3.66895 0.40625 5.08008 0.40625c17.6641 0 32 -14.3359 32 -32c0 -7.1084 -3.99609 -17.0391 -8.91992 -22.166l-96 -96c-24.96 -25.5996 -24.96 -67.2002 0 -92.1602c17.9199 -18.5596 45.4404 -21.7598 67.8398 -14.0801
c8.95996 3.2002 17.2803 7.04004 24.3203 14.0801l28.1602 28.1602c5.20215 8.20703 17.3105 14.8672 27.0264 14.8672c17.6641 0 32 -14.3359 32 -32c0 -9.7168 -6.66016 -21.8252 -14.8662 -27.0273l-28.1602 -28.1602c-14.0801 -14.0801 -30.7207 -23.6797 -48 -30.0801
c-44.7998 -16 -96 -5.75977 -131.84 30.0801c-49.9199 49.2803 -49.9199 129.92 0 179.84l96 96c2.63086 3.6875 8.0791 8.27441 12.1592 10.2402zM320.64 64h128v-64h-64v-64h-64v128z" />
    <glyph glyph-name="uniF13A" unicode="&#xf13a;" 
d="M224 448c17.9199 0 32 -14.0801 32 -32v-32h48c8.95996 0 16 -7.04004 16 -16v-48h-192v48c0 8.95996 7.04004 16 16 16h48v32c0 17.9199 14.0801 32 32 32zM16 384h48v-128h320v128h48c8.95996 0 16 -7.04004 16 -16v-416c0 -8.95996 -7.04004 -16 -16 -16h-416
c-8.95996 0 -16 7.04004 -16 16v416c0 8.95996 7.04004 16 16 16z" />
    <glyph glyph-name="uniF189" unicode="&#xf189;" 
d="M512 448l-256 -512l-64 192l-192 64z" />
    <glyph glyph-name="uniF1CA" unicode="&#xf1ca;" 
d="M0 448h512v-128h-32c0 35.2002 -28.7998 64 -64 64h-96v-352c0 -17.9199 14.0801 -32 32 -32h32v-64h-256v64h32c17.9199 0 32 14.0801 32 32v352h-96c-35.2002 0 -64 -28.7998 -64 -64h-32v128z" />
    <glyph glyph-name="uniF16B" unicode="&#xf16b;" 
d="M0 448h192v-64h320v-64h-512v128zM0 256h512v-288c0 -17.9199 -14.0801 -32 -32 -32h-448c-17.9199 0 -32 14.0801 -32 32v288z" />
    <glyph glyph-name="uniF1AB" unicode="&#xf1ab;" 
d="M192 448h64v-256h-64v256zM110.08 355.84l40.3203 -49.9199l-26.2402 -19.8398c-37.1201 -29.4404 -60.1602 -74.8799 -60.1602 -126.08c0 -88.96 71.04 -160 160 -160s160 71.04 160 160c0 51.2002 -24.96 96.6396 -62.0801 126.08l-24.3203 19.8398l40.3203 49.9199
l24.3203 -19.8398c51.8398 -40.96 85.7598 -104.96 85.7598 -176c0 -123.52 -100.48 -224 -224 -224s-224 100.48 -224 224c0 71.04 33.9199 135.04 85.7598 176z" />
    <glyph glyph-name="uniF1AF" unicode="&#xf1af;" 
d="M192 448c17.9199 0 34.5596 -6.40039 46.0801 -17.9199c11.5195 -11.5205 17.9199 -28.1602 17.9199 -46.0801s-11.5195 -30.7197 -17.9199 -46.0801c-1.28027 -3.83984 -1.91992 -10.2402 -1.91992 -17.9199h147.84v-147.84c7.67969 0 14.0801 0 17.9199 1.91992
c15.3604 6.40039 28.1602 17.9199 46.0801 17.9199s34.5596 -6.40039 46.0801 -17.9199c11.5195 -11.5205 17.9199 -28.1602 17.9199 -46.0801s-6.40039 -34.5596 -17.9199 -46.0801c-11.5205 -11.5195 -28.1602 -17.9199 -46.0801 -17.9199
s-30.7197 11.5195 -46.0801 17.9199c-3.83984 1.28027 -10.2402 1.91992 -17.9199 1.91992v-147.84h-147.84c0 7.67969 0 14.0801 1.91992 17.9199c6.40039 15.3604 17.9199 28.1602 17.9199 46.0801s-6.40039 34.5596 -17.9199 46.0801
c-11.5205 11.5195 -28.1602 17.9199 -46.0801 17.9199s-34.5596 -6.40039 -46.0801 -17.9199c-11.5195 -11.5205 -17.9199 -28.1602 -17.9199 -46.0801s11.5195 -30.7197 17.9199 -46.0801c1.28027 -3.83984 1.91992 -10.2402 1.91992 -17.9199h-147.84v384h147.84
c0 7.67969 0 14.0801 -1.91992 17.9199c-6.40039 15.3604 -17.9199 28.1602 -17.9199 46.0801s6.40039 34.5596 17.9199 46.0801c11.5205 11.5195 28.1602 17.9199 46.0801 17.9199z" />
    <glyph glyph-name="uniF18D" unicode="&#xf18d;" 
d="M256 384v-64c-71.04 0 -128 -56.96 -128 -128h64l-96 -128l-96 128h64c0 105.6 86.4004 192 192 192zM416 320l96 -128h-64c0 -105.6 -86.4004 -192 -192 -192v64c71.04 0 128 56.96 128 128h-64z" />
    <glyph glyph-name="uniF126" unicode="&#xf126;" 
d="M21.7598 448h0.640625c0.529297 0.0322266 1.38965 0.0576172 1.91992 0.0576172s1.39062 -0.0253906 1.91992 -0.0576172c0.792969 0.0712891 2.08301 0.129883 2.87988 0.129883c0.795898 0 2.08691 -0.0585938 2.87988 -0.129883h448c17.6641 0 32 -14.3359 32 -32
v-448c0 -17.6641 -14.3359 -32 -32 -32h-448c-17.6641 0 -32 14.3359 -32 32v448c-0.0244141 0.459961 -0.0439453 1.20703 -0.0439453 1.66797c0 12.6973 9.76855 26.2861 21.8037 30.332zM96 384c-17.9199 0 -32 -14.0801 -32 -32s14.0801 -32 32 -32s32 14.0801 32 32
s-14.0801 32 -32 32zM224 384c-17.9199 0 -32 -14.0801 -32 -32s14.0801 -32 32 -32h192c17.9199 0 32 14.0801 32 32s-14.0801 32 -32 32h-192zM64 256v-256h384v256h-384z" />
    <glyph glyph-name="uniF1C0" unicode="&#xf1c0;" 
d="M128 448h64v-384h128l-160 -128l-160 128h128v384zM256 448h256v-64h-256v64zM256 320h192v-64h-192v64zM256 192h128v-64h-128v64z" />
    <glyph glyph-name="uniF147" unicode="&#xf147;" 
d="M5.75977 448l0.640625 0.639648h499.84c3.2002 0 5.75977 -1.91992 5.75977 -5.75977v-506.24l-128 128h-378.24c-3.2002 0 -5.75977 2.56055 -5.75977 5.76074v371.84c0 3.2002 1.91992 5.75977 5.75977 5.75977z" />
    <glyph glyph-name="uniF148" unicode="&#xf148;" 
d="M256 448c140.8 0 256 -115.2 256 -256s-115.2 -256 -256 -256s-256 115.2 -256 256s115.2 256 256 256zM256 384c-106.24 0 -192 -85.7598 -192 -192s85.7598 -192 192 -192s192 85.7598 192 192s-85.7598 192 -192 192zM384 320l-64 -192l-192 -64l64 192zM256 224
c-17.9199 0 -32 -14.0801 -32 -32s14.0801 -32 32 -32s32 14.0801 32 32s-14.0801 32 -32 32z" />
    <glyph glyph-name="uniF13D" unicode="&#xf13d;" 
d="M288 448c88.3203 0 160 -71.6797 160 -160v-32c37.1201 -13.4404 64 -54.4004 64 -96c0 -11.5195 -1.91992 -21.7598 -5.75977 -32h-122.24v32c0 53.1201 -42.8799 96 -96 96s-96 -42.8799 -96 -96v-32h-174.08c-10.8799 18.5596 -17.9199 40.3203 -17.9199 64
c0 70.4004 57.5996 128 128 128c14.7197 72.96 82.5596 128 160 128zM277.76 192h0.640625c0.529297 0.0322266 1.38965 0.0576172 1.91992 0.0576172s1.39062 -0.0253906 1.91992 -0.0576172c1.57715 0.289062 4.16016 0.523438 5.76367 0.523438
c17.6641 0 32 -14.3359 32 -32c0 -0.144531 -0.00195312 -0.378906 -0.00390625 -0.523438v-96h96l-128 -128l-128 128h96v96c-0.0244141 0.459961 -0.0439453 1.20703 -0.0439453 1.66797c0 12.6973 9.76855 26.2861 21.8037 30.332z" />
    <glyph glyph-name="uniF1B9" unicode="&#xf1b9;" 
d="M192 448h256c35.2002 0 64 -28.7998 64 -64v-128h-256v96c0 17.9199 -14.0801 32 -32 32s-32 -14.0801 -32 -32v-160h256v-192c0 -35.2002 -28.7998 -64 -64 -64h-320c-35.2002 0 -64 28.7998 -64 64v128h64v-96c0 -17.9199 14.0801 -32 32 -32s32 14.0801 32 32v352
c0 35.2002 28.7998 64 64 64z" />
    <glyph glyph-name="uniF10A" unicode="&#xf10a;" 
d="M256 448c141.44 0 256 -114.56 256 -256s-114.56 -256 -256 -256s-256 114.56 -256 256s114.56 256 256 256zM256 384l-192 -192l192 -192v128h192v128h-192v128z" />
    <glyph glyph-name="uniF19A" unicode="&#xf19a;" 
d="M128 448h256v-128h128v-256h-128v-128h-256v128h-128v256h128v128z" />
    <glyph glyph-name="uniF1D5" unicode="&#xf1d5;" 
d="M213.76 448h42.2402v-512h-42.2402l-85.7598 128h-128v256h128zM320 384c16.6396 0 33.2803 -1.91992 48 -5.75977c83.2002 -21.1201 144 -96.6406 144 -186.24s-60.7998 -165.12 -144 -186.24h-1.91992c-15.3604 -3.2002 -30.0801 -5.75977 -46.0801 -5.75977v64
c10.8799 0 21.7598 1.28027 32 3.83984c55.6797 14.0801 96 64 96 124.16s-40.96 110.08 -96 124.16c-10.2402 2.55957 -21.1201 3.83984 -32 3.83984v64zM320 256c5.12012 0 10.8799 -0.639648 16 -1.91992c28.1602 -7.04004 48 -32.6396 48 -62.0801
s-20.4805 -55.04 -48 -62.0801c-4.48047 -1.28027 -10.2402 -1.91992 -16 -1.91992v128z" />
    <glyph glyph-name="uniF1BD" unicode="&#xf1bd;" 
d="M384 448h64v-512h-64v512zM256 384h64v-448h-64v448zM128 256h64v-320h-64v320zM0 128h64v-192h-64v192z" />
    <glyph glyph-name="uniF187" unicode="&#xf187;" 
d="M32 448c17.9199 0 32 -14.0801 32 -32s-14.0801 -32 -32 -32s-32 14.0801 -32 32s14.0801 32 32 32zM128 448h384v-64h-384v64zM32 320c17.9199 0 32 -14.0801 32 -32s-14.0801 -32 -32 -32s-32 14.0801 -32 32s14.0801 32 32 32zM128 320h384v-64h-384v64zM32 192
c17.9199 0 32 -14.0801 32 -32s-14.0801 -32 -32 -32s-32 14.0801 -32 32s14.0801 32 32 32zM128 192h384v-64h-384v64zM32 64c17.9199 0 32 -14.0801 32 -32s-14.0801 -32 -32 -32s-32 14.0801 -32 32s14.0801 32 32 32zM128 64h384v-64h-384v64z" />
    <glyph glyph-name="uniF13F" unicode="&#xf13f;" 
d="M160 448c52.4805 0 98.5596 -25.5996 128 -64c-91.5195 0 -172.8 -53.7598 -208 -133.76c-23.04 -6.40039 -44.7998 -16.6406 -64 -30.0801c-10.2402 20.4795 -16 42.8799 -16 67.8398c0 88.3203 71.6797 160 160 160zM288 320c88.3203 0 160 -71.6797 160 -160v-32
c37.1201 -13.4404 64 -54.4004 64 -96c0 -53.1201 -42.8799 -96 -96 -96h-288c-70.4004 0 -128 57.5996 -128 128s57.5996 128 128 128c14.7197 72.96 82.5596 128 160 128z" />
    <glyph glyph-name="uniF1B2" unicode="&#xf1b2;" 
d="M384 448l128 -96l-128 -96v64h-32l-97.9199 -122.24l112 -131.84c0.639648 0.639648 3.2002 -1.28027 3.83984 -1.91992h14.0801v64l128 -96l-128 -96v64h-16c-21.7598 0 -35.8398 7.67969 -49.9199 24.3203l-106.24 122.239l-97.9199 -122.239
c-14.0801 -17.9199 -27.5195 -24.3203 -49.9199 -24.3203h-64v64h64l106.24 131.84l-104.32 122.24c-1.28027 -0.639648 -5.12012 1.91992 -1.91992 1.91992h-64v64h64c21.7598 0 35.8398 -7.67969 49.9199 -24.3203l97.9199 -113.92l90.2402 113.92
c14.0801 17.9199 27.5195 24.3203 49.9199 24.3203h32v64z" />
    <glyph glyph-name="uniF1B3" unicode="&#xf1b3;" 
d="M256 448h-0.639648c70.3994 0 133.76 -30.0801 179.84 -76.1602l76.1602 76.1602v-192h-192l69.7598 69.7598c-34.5605 35.2002 -80.6396 58.2402 -133.76 58.2402c-106.24 0 -192 -85.7598 -192 -192s85.7598 -192 192 -192c53.7598 0 101.76 21.7598 136.319 56.3203
l46.0801 -46.0801c-46.0801 -46.7207 -111.359 -74.2402 -181.76 -74.2402c-140.8 0 -256 115.2 -256 256s115.2 256 256 256z" />
    <glyph glyph-name="uniF11A" unicode="&#xf11a;" 
d="M5.75977 384v0.639648h435.84c3.2002 0 5.76074 -1.91992 5.76074 -5.75977v-122.24h64v-128h-64v-122.239c0 -3.2002 -2.56055 -5.76074 -5.76074 -5.76074h-435.84c-3.2002 0 -5.75977 2.56055 -5.75977 5.76074v371.84c0 3.2002 1.91992 5.75977 5.75977 5.75977z
M64 320v-256h320v256h-320z" />
    <glyph glyph-name="uniF117" unicode="&#xf117;" 
d="M256 448c140.8 0 256 -115.2 256 -256s-115.2 -256 -256 -256s-256 115.2 -256 256s115.2 256 256 256zM256 384c-106.24 0 -192 -85.7598 -192 -192c0 -42.2402 13.4404 -80.6396 35.8398 -112l268.16 268.16c-31.3604 22.3994 -69.7598 35.8398 -112 35.8398z
M412.16 304l-268.16 -268.16c31.3604 -22.3994 69.7598 -35.8398 112 -35.8398c106.24 0 192 85.7598 192 192c0 42.2402 -13.4404 80.6396 -35.8398 112z" />
    <glyph glyph-name="uniF1DB" unicode="&#xf1db;" 
d="M90.2402 448l46.0801 -46.0801l115.84 -113.92l113.92 113.92l44.1602 46.0801l92.1602 -90.2402l-46.0801 -46.0801l-115.84 -115.84l115.84 -113.92l46.0801 -44.1602l-92.1602 -92.1602l-44.1602 46.0801l-113.92 115.84l-115.84 -115.84l-46.0801 -46.0801
l-90.2402 92.1602l46.0801 44.1602l113.92 113.92l-113.92 115.84l-46.0801 46.0801z" />
    <glyph glyph-name="uniF1B0" unicode="&#xf1b0;" 
d="M286.08 448c53.7598 0 94.7197 -12.7998 122.24 -37.7598c26.8799 -24.96 37.7598 -59.5205 37.7598 -90.2402c0 -74.8799 -44.1602 -115.84 -76.1602 -144s-51.8398 -42.8799 -51.8398 -96v-16h-64v16c0 74.8799 42.2402 115.84 74.2402 144s53.7598 42.8799 53.7598 96
c0 16.6396 -5.12012 30.7197 -17.9199 42.2402c-12.7998 11.5195 -35.8398 21.7598 -78.0801 21.7598c-42.8799 0 -62.0801 -12.1602 -74.2402 -24.3203s-17.2803 -28.1602 -19.8398 -44.1602l-64 8.32031c3.2002 24.3203 12.1602 56.3203 37.7598 81.9199
c25.6006 25.6006 65.9199 42.2402 120.32 42.2402zM254.08 0h64v-64h-64v64z" />
    <glyph glyph-name="uniF17A" unicode="&#xf17a;" 
d="M12.1602 448h488.32c7.03906 0 12.1592 -5.12012 12.1592 -12.1602v-488.32c0 -7.03906 -5.12012 -12.1592 -12.1592 -12.1592h-488.32c-7.04004 0 -12.1602 5.12012 -12.1602 12.1592v488.32c0 7.04004 5.12012 12.1602 12.1602 12.1602zM64 320v-192h64l64 -64h128
l64 64h64v192h-384z" />
    <glyph glyph-name="uniF15A" unicode="&#xf15a;" 
d="M256 448l192 -192h-384zM64 128h384l-192 -192z" />
    <glyph glyph-name="uniF1A4" unicode="&#xf1a4;" 
d="M352 448v-0.639648c53.1201 0 96 -57.6006 96 -128c0 -70.4004 -42.8799 -128 -96 -128c-13.4404 0 -25.5996 5.12012 -37.7598 12.1592c3.83984 16.6406 5.75977 33.2803 5.75977 51.8408c0 54.3994 -17.2803 101.76 -46.0801 136.319
c17.2803 33.9199 45.4404 56.3203 78.0801 56.3203zM160 384c53.1201 0 96 -57.5996 96 -128s-42.8799 -128 -96 -128s-96 57.5996 -96 128s42.8799 128 96 128zM464 181.76v0.640625c28.1602 -14.0801 48 -42.8809 48 -76.1602v-106.24h-128v42.2402
c0 32 -10.8799 61.4395 -28.1602 85.7598c42.8799 1.28027 80.6406 21.1201 108.16 53.7598zM48 117.76c28.7998 -33.2793 67.8398 -53.7598 112 -53.7598s83.2002 19.8398 112 53.7598c28.1602 -14.0801 48 -42.8799 48 -76.1602v-106.239h-320v106.239
c0 33.2803 19.8398 62.0801 48 76.1602z" />
    <glyph glyph-name="uniF1D7" unicode="&#xf1d7;" 
d="M341.76 448h42.2402v-512h-42.2402l-85.7598 128h-128v256h128z" />
    <glyph glyph-name="uniF16F" unicode="&#xf16f;" 
d="M256 448c141.44 0 256 -114.56 256 -256s-114.56 -256 -256 -256s-256 114.56 -256 256s114.56 256 256 256zM256 384v-0.639648c-35.8398 0 -69.1201 -10.8799 -97.9199 -28.1602c5.75977 -5.75977 10.2402 -10.2402 14.0801 -12.1602
c20.4795 -11.5205 8.32031 -30.7197 -8.32031 -37.7598c-19.2002 -8.32031 -49.9199 6.39941 -42.2402 -26.2402c8.32031 -35.2002 -17.2793 -2.55957 -30.0801 -10.2402c-27.5195 -16 31.3604 -97.2803 19.8408 -99.8398
c-8.95996 -2.55957 -25.6006 21.7598 -37.7607 21.7598c-5.11914 0 -8.31934 -2.55957 -10.2393 -5.75977c0.639648 -19.2002 6.39941 -36.4795 12.1592 -53.7598c17.9209 -7.04004 49.2803 -1.28027 64 -16c30.0801 -17.9199 62.0801 -73.6006 48 -101.76
c21.1201 -8.32031 43.5205 -14.0801 67.8408 -14.0801c64.6396 0 123.52 30.7197 158.08 80c1.91992 15.3594 -5.12012 28.1592 -32 28.1592c-44.1602 0 -99.8408 8.96094 -97.9209 62.0801c1.28027 29.4404 64.6406 69.7607 42.2402 92.1602
c-18.5596 19.8398 8.32031 24.96 8.32031 42.2402c0 23.6797 -41.5996 20.4805 -44.1602 32c-2.55957 11.5195 12.7998 23.04 26.2402 35.8398c-19.2002 6.40039 -39.04 12.1602 -60.1602 12.1602zM403.84 314.24c-24.3203 -7.04004 -60.7998 -22.4004 -56.3203 -33.9199
c3.84082 -9.60059 33.9209 -0.640625 42.2402 -8.32031c7.68066 -6.40039 10.2402 -37.7598 28.1602 -19.8398c7.04004 7.04004 11.5205 9.59961 14.0801 14.0801v1.91992c-7.67969 16.6396 -16.6396 32 -28.1602 46.0801z" />
    <glyph glyph-name="uniF11B" unicode="&#xf11b;" 
d="M5.75977 384v0.639648h435.84c3.2002 0 5.76074 -1.91992 5.76074 -5.75977v-122.24h64v-128h-64v-122.239c0 -3.2002 -2.56055 -5.76074 -5.76074 -5.76074h-435.84c-3.2002 0 -5.75977 2.56055 -5.75977 5.76074v371.84c0 3.2002 1.91992 5.75977 5.75977 5.75977z" />
    <glyph glyph-name="uniF15F" unicode="&#xf15f;" 
d="M0 448h448v-64h-448v64zM0 320h320v-64h-320v64zM0 192h512v-64h-512v64zM0 64h64v-64h-64v64zM128 64h64v-64h-64v64zM256 64h64v-64h-64v64z" />
    <glyph glyph-name="uniF14C" unicode="&#xf14c;" 
d="M64 448h64v-64h288l64 64l32 -32l-64 -64v-288h64v-64h-64v-64h-64v64h-320v320h-64v64h64v64zM128 320v-224l224 224h-224zM384 288l-224 -224h224v224z" />
    <glyph glyph-name="uniF104" unicode="&#xf104;" 
d="M0 448h512v-64h-512v64zM64 320h384v-64h-384v64zM0 192h512v-64h-512v64zM64 64h384v-64h-384v64z" />
    <glyph glyph-name="uniF1D4" unicode="&#xf1d4;" 
d="M32 384h320c17.9199 0 32 -14.0801 32 -32v-96l64 64h64v-192h-64l-64 64v-96c0 -17.9199 -14.0801 -32 -32 -32h-320c-17.2803 0 -32 14.0801 -32 32v256c0 17.2803 14.0801 32 32 32z" />
    <glyph glyph-name="uniF10D" unicode="&#xf10d;" 
d="M192 384v-128h320v-64h-320v-128l-192 158.08z" />
    <glyph glyph-name="uniF178" unicode="&#xf178;" 
d="M256 448l256 -192l-64 1.91992v-257.92h-128v128h-128v-128h-128v256h-64z" />
    <glyph glyph-name="uniF112" unicode="&#xf112;" 
d="M254.08 448l193.92 -192h-128v-320h-128v320h-128z" />
    <glyph glyph-name="uniF134" unicode="&#xf134;" 
d="M96 384l160 -160l160 160l96 -96l-256 -256l-256 256z" />
    <glyph glyph-name="uniF157" unicode="&#xf157;" 
d="M0 384h192v-192c0 -105.6 -86.4004 -192 -192 -192v64c71.04 0 128 56.96 128 128h-128v192zM320 384h192v-192c0 -105.6 -86.4004 -192 -192 -192v64c71.04 0 128 56.96 128 128h-128v192z" />
    <glyph glyph-name="uniF135" unicode="&#xf135;" 
d="M320 448l96 -96l-160 -160l160 -160l-96 -96l-256 256z" />
    <glyph glyph-name="uniF151" unicode="&#xf151;" 
d="M256 384c140.8 0 256 -115.2 256 -256h-64c0 106.24 -85.7598 192 -192 192s-192 -85.7598 -192 -192h-64c0 140.8 115.2 256 256 256zM218.24 250.24l37.7598 -56.3203l37.7598 56.3203c52.4805 -16.6406 90.2402 -64.6406 90.2402 -122.24
c0 -71.04 -56.96 -128 -128 -128c-70.4004 0 -128 56.96 -128 128c0 57.5996 38.4004 106.24 90.2402 122.24z" />
    <glyph glyph-name="uniF180" unicode="&#xf180;" 
d="M0 448h512v-64h-512v64zM0 320h512v-64h-512v64zM0 192h512v-64h-512v64zM128 64h384v-64h-384v64z" />
    <glyph glyph-name="uniF1B8" unicode="&#xf1b8;" 
d="M0 448c282.24 0 512 -229.76 512 -512h-128c0 213.12 -170.88 384 -384 384v128zM0 256c176 0 320 -144 320 -320h-128c0 106.88 -85.1201 192 -192 192v128zM0 64c70.4004 0 128 -56.96 128 -128h-128v128z" />
    <glyph glyph-name="uniF13B" unicode="&#xf13b;" 
d="M256 448c140.8 0 256 -115.2 256 -256s-115.2 -256 -256 -256s-256 115.2 -256 256s115.2 256 256 256zM256 384c-106.24 0 -192 -85.7598 -192 -192s85.7598 -192 192 -192s192 85.7598 192 192s-85.7598 192 -192 192zM224 320v-1.28027h64v-115.84l21.7598 -21.7598
l24.3203 -21.7598l-46.0801 -46.0801l-21.7598 24.3193l-32 32l-10.2402 8.32031v142.08z" />
    <glyph glyph-name="uniF1C3" unicode="&#xf1c3;" 
d="M256 448c17.9199 0 32 -14.0801 32 -32s-14.0801 -32 -32 -32s-32 14.0801 -32 32s14.0801 32 32 32zM96 384c17.9199 0 32 -14.0801 32 -32s-14.0801 -32 -32 -32s-32 14.0801 -32 32s14.0801 32 32 32zM416 384c17.9199 0 32 -14.0801 32 -32s-14.0801 -32 -32 -32
s-32 14.0801 -32 32s14.0801 32 32 32zM256 320c70.4004 0 128 -57.5996 128 -128s-57.5996 -128 -128 -128s-128 57.5996 -128 128s57.5996 128 128 128zM32 224c17.9199 0 32 -14.0801 32 -32s-14.0801 -32 -32 -32s-32 14.0801 -32 32s14.0801 32 32 32zM480 224
c17.9199 0 32 -14.0801 32 -32s-14.0801 -32 -32 -32s-32 14.0801 -32 32s14.0801 32 32 32zM96 64c17.9199 0 32 -14.0801 32 -32s-14.0801 -32 -32 -32s-32 14.0801 -32 32s14.0801 32 32 32zM416 64c17.9199 0 32 -14.0801 32 -32s-14.0801 -32 -32 -32
s-32 14.0801 -32 32s14.0801 32 32 32zM256 0c17.9199 0 32 -14.0801 32 -32s-14.0801 -32 -32 -32s-32 14.0801 -32 32s14.0801 32 32 32z" />
    <glyph glyph-name="uniF1DE" unicode="&#xf1de;" 
d="M224 448c123.52 0 224 -100.48 224 -224c0 -39.04 -10.8799 -76.1602 -28.1602 -108.16c2.42285 -1.40723 6.15039 -3.98828 8.32031 -5.75977l65.9199 -64c12.0967 -10.751 21.915 -32.6113 21.915 -48.7949c0 -36.0352 -29.2451 -65.2803 -65.2803 -65.2803
c-16.1836 0 -38.0439 9.81836 -48.7949 21.915l-64 65.9199c-1.77148 2.16992 -4.35254 5.89746 -5.75977 8.32031c-32 -17.9199 -69.1201 -28.1602 -108.16 -28.1602c-123.52 0 -224 100.48 -224 224s100.48 224 224 224zM224 384v0.639648c-88.96 0 -160 -71.04 -160 -160
s71.04 -160 160 -160c39.6797 0 76.1602 14.0801 104.32 37.7607c3.4707 5.78906 10.6387 13.8174 16 17.9199c1.04199 0.56543 2.76172 1.42578 3.83984 1.91992c0.639648 0.639648 1.28027 1.2793 1.91992 1.91992c21.1201 26.8799 33.9199 62.0801 33.9199 99.8398
c0 88.96 -71.04 160 -160 160zM128 256h192v-64h-192v64z" />
    <glyph glyph-name="uniF1A1" unicode="&#xf1a1;" 
d="M512 448v-352c0 -53.1201 -42.8799 -96 -96 -96s-96 42.8799 -96 96s42.8799 96 96 96c10.8799 0 22.4004 -2.55957 32 -5.75977v131.84c-128.64 -3.83984 -209.28 -17.2803 -256 -32v-254.08c0 -53.1201 -42.8799 -96 -96 -96s-96 42.8799 -96 96s42.8799 96 96 96
c10.8799 0 22.4004 -2.55957 32 -5.75977v261.76s64 64 384 64z" />
    <glyph glyph-name="uniF194" unicode="&#xf194;" 
d="M256 384c106.24 0 192 -85.7598 192 -192s-85.7598 -192 -192 -192s-192 85.7598 -192 192s85.7598 192 192 192z" />
    <glyph glyph-name="uniF19F" unicode="&#xf19f;" 
d="M174.08 448c-8.95996 -25.5996 -14.0801 -53.1201 -14.0801 -81.9199c0 -141.44 114.56 -256 256 -256c28.7998 0 56.3203 5.75977 81.9199 14.0801c-33.9199 -101.12 -129.28 -174.08 -241.92 -174.08c-141.44 0 -256 114.56 -256 256c0 112.64 72.96 208 174.08 241.92
z" />
    <glyph glyph-name="uniF192" unicode="&#xf192;" 
d="M64 384h128v-384h-128v384zM320 384h128v-384h-128v384z" />
    <glyph glyph-name="uniF138" unicode="&#xf138;" 
d="M256 448c141.44 0 256 -114.56 256 -256s-114.56 -256 -256 -256s-256 114.56 -256 256s114.56 256 256 256zM384 334.08l-160 -160l-64 64l-46.0801 -46.0801l110.08 -110.08l206.08 206.08z" />
    <glyph glyph-name="uniF18B" unicode="&#xf18b;" 
d="M256 448c70.4004 0 128 -57.5996 128 -128v-128h64v-256h-384v256h256v128c0 35.8398 -28.1602 64 -64 64s-64 -28.1602 -64 -64h-64c0 70.4004 57.5996 128 128 128z" />
    <glyph glyph-name="uniF14A" unicode="&#xf14a;" 
d="M0 448h512v-64h-512v64zM0 320h320v-64h-320v64zM0 128h512v-64h-512v64zM0 0h384v-64h-384v64zM480 0c17.9199 0 32 -14.0801 32 -32s-14.0801 -32 -32 -32s-32 14.0801 -32 32s14.0801 32 32 32z" />
    <glyph glyph-name="uniF1AC" unicode="&#xf1ac;" 
d="M128 448h256v-128h-256v128zM5.75977 256h0.640625h499.84c3.2002 0 5.75977 -1.91992 5.75977 -5.75977v-179.84c0 -3.2002 -2.55957 -5.76074 -5.75977 -5.76074h-58.2402v128h-384v-128h-58.2402c-3.2002 0 -5.75977 2.56055 -5.75977 5.76074v179.84
c0 3.2002 1.91992 5.75977 5.75977 5.75977zM128 128h256v-192h-256v192z" />
    <glyph glyph-name="uniF116" unicode="&#xf116;" 
d="M256 448c70.4004 0 128 -57.5996 128 -128s-57.5996 -128 -128 -128s-128 57.5996 -128 128s57.5996 128 128 128zM192 140.16c19.8398 -7.04004 41.5996 -12.1602 64 -12.1602s44.1602 5.12012 64 12.1602v-204.16l-64 64l-64 -64v204.16z" />
    <glyph glyph-name="uniF149" unicode="&#xf149;" 
d="M256 448c140.8 0 256 -115.2 256 -256s-115.2 -256 -256 -256s-256 115.2 -256 256s115.2 256 256 256zM256 384v-384c106.24 0 192 85.7598 192 192s-85.7598 192 -192 192z" />
    <glyph glyph-name="uniF125" unicode="&#xf125;" 
d="M256 448v-0.639648c37.1201 0 70.4004 -10.2402 94.0801 -33.9199c23.04 -23.6807 33.9199 -56.96 33.9199 -94.0801h-64c0 24.96 -7.04004 39.04 -16 48s-23.04 16 -48 16c-22.4004 0 -35.2002 -6.40039 -46.0801 -19.8408
c-10.8799 -13.4395 -17.9199 -35.1992 -17.9199 -60.1592c0 -32.6406 12.7998 -68.4805 17.9199 -112h110.08v-64h-113.92c-9.59961 -38.4004 -31.3604 -81.2803 -72.3203 -128h314.24v-64h-384v78.0801l10.2402 8.31934c44.1602 44.7998 60.7998 77.4404 67.8398 106.24
h-78.0801v64h80c-5.75977 32 -16 67.8398 -16 112c0 36.4805 10.2402 72.3203 32 99.8398c21.7598 27.5205 56.3203 44.1602 96 44.1602z" />
    <glyph glyph-name="uniF11F" unicode="&#xf11f;" 
d="M0 448h320c71.04 0 128 -57.5996 128 -128c0 -30.0801 -10.8799 -58.2402 -28.1602 -80c54.4004 -25.5996 92.1602 -80 92.1602 -144c0 -88.3203 -71.6797 -160 -160 -160h-352v64c35.2002 0 64 28.7998 64 64v256c0 35.2002 -28.7998 64 -64 64v64zM192 384v-128h64
c35.2002 0 64 28.7998 64 64s-28.7998 64 -64 64h-64zM192 192v-192h96c53.1201 0 96 42.8799 96 96s-42.8799 96 -96 96h-96z" />
    <glyph glyph-name="uniF1B6" unicode="&#xf1b6;" 
d="M192 384v-128h128v128l192 -160l-192 -160v128h-128v-128l-192 160z" />
    <glyph glyph-name="uniF118" unicode="&#xf118;" 
d="M0 448h64v-384h448v-64h-512v448zM320 448h128v-320h-128v320zM128 320h128v-192h-128v192z" />
    <glyph glyph-name="uniF1CE" unicode="&#xf1ce;" 
d="M384 448l128 -96l-128 -96v64h-384v64h384v64zM128 192v-64h384v-64h-384v-64l-128 96z" />
    <glyph glyph-name="uniF131" unicode="&#xf131;" 
d="M21.7598 384h-0.639648c0.529297 0.0322266 1.38965 0.0576172 1.91992 0.0576172s1.39062 -0.0253906 1.91992 -0.0576172c0.792969 0.0712891 2.08398 0.129883 2.87988 0.129883c0.796875 0 2.08691 -0.0585938 2.87988 -0.129883h128
c10.7959 -0.195312 23.4111 -8.22363 28.1602 -17.9199l24.3203 -46.0801h284.16c8.95996 0 12.7998 -7.67969 10.2393 -16l-51.8398 -160c-2.55957 -8.32031 -12.7998 -16 -21.7598 -16h-224c-8.32031 0 -19.2002 7.67969 -21.7598 16l-26.2402 80l-26.2402 80l-5.75977 16
h-96c-1.4043 -0.224609 -3.69824 -0.407227 -5.12012 -0.407227c-17.8887 0 -32.4072 14.5186 -32.4072 32.4072c0 15.2539 12.2246 29.5898 27.2871 32zM224 64c17.9199 0 32 -14.0801 32 -32s-14.0801 -32 -32 -32s-32 14.0801 -32 32s14.0801 32 32 32zM416 64
c17.9199 0 32 -14.0801 32 -32s-14.0801 -32 -32 -32s-32 14.0801 -32 32s14.0801 32 32 32z" />
    <glyph glyph-name="uniF10B" unicode="&#xf10b;" 
d="M256 448c141.44 0 256 -114.56 256 -256s-114.56 -256 -256 -256s-256 114.56 -256 256s114.56 256 256 256zM256 384v-128h-192v-128h192v-128l192 192z" />
    <glyph glyph-name="uniF137" unicode="&#xf137;" 
d="M256 384l256 -256l-96 -96l-160 160l-160 -160l-96 96z" />
    <glyph glyph-name="uniF120" unicode="&#xf120;" 
d="M256 448v-192h128l-192 -320v192h-128z" />
    <glyph glyph-name="uniF181" unicode="&#xf181;" 
d="M352 448c88.3203 0 160 -71.6797 160 -160s-71.6797 -160 -160 -160c-10.2402 0 -20.4805 0 -30.0801 1.91992l-1.91992 -1.91992v-64h-128v-128h-192v128l193.92 193.92c-1.91992 9.59961 -1.91992 19.8398 -1.91992 30.0801c0 88.3203 71.6797 160 160 160zM384 384
c-35.2002 0 -64 -28.7998 -64 -64s28.7998 -64 64 -64s64 28.7998 64 64s-28.7998 64 -64 64z" />
    <glyph glyph-name="uniF197" unicode="&#xf197;" 
d="M0 384h128v-384h-128v384zM128 192l320 192v-384z" />
    <glyph glyph-name="uniF100" unicode="&#xf100;" 
d="M192 448h320v-448h-320v64h256v320h-256v64zM256 320l128 -96l-128 -96v64h-256v64h256v64z" />
    <glyph glyph-name="uniF1C6" unicode="&#xf1c6;" 
d="M0 384h128l64 -64l128 -128l-32 -32l-96 -96l-192 192v128zM218.24 384h101.76l192 -192l-128 -128l-49.9199 49.9199l76.1602 78.0801zM96 320c-17.9199 0 -32 -14.0801 -32 -32s14.0801 -32 32 -32s32 14.0801 32 32s-14.0801 32 -32 32z" />
    <glyph glyph-name="uniF123" unicode="&#xf123;" 
d="M0 448h512v-64h-512v64zM0 320h-0.639648h192v-65.9199h129.92v65.9199h190.08v-378.24c0 -3.2002 -2.56055 -5.75977 -5.76074 -5.75977h-499.84c-3.2002 0 -5.75977 2.55957 -5.75977 5.75977v378.24z" />
    <glyph glyph-name="uniF1BF" unicode="&#xf1bf;" 
d="M128 448h64v-384h128l-160 -128l-160 128h128v384zM256 448h128v-64h-128v64zM256 320h192v-64h-192v64zM256 192h256v-64h-256v64z" />
    <glyph glyph-name="uniF171" unicode="&#xf171;" 
d="M0 448h64v-64h-64v64zM128 448h64v-64h-64v64zM256 448h64v-64h-64v64zM384 448h64v-64h-64v64zM0 320h64v-64h-64v64zM128 320h64v-64h-64v64zM256 320h64v-64h-64v64zM384 320h64v-64h-64v64zM0 192h64v-64h-64v64zM128 192h64v-64h-64v64zM256 192h64v-64h-64v64z
M384 192h64v-64h-64v64zM0 64h64v-64h-64v64zM128 64h64v-64h-64v64zM256 64h64v-64h-64v64zM384 64h64v-64h-64v64z" />
    <glyph glyph-name="uniF1DD" unicode="&#xf1dd;" 
d="M224 448c123.52 0 224 -100.48 224 -224c0 -39.04 -10.8799 -76.1602 -28.1602 -108.16c2.42285 -1.40723 6.15039 -3.98828 8.32031 -5.75977l65.9199 -64c12.0967 -10.751 21.915 -32.6113 21.915 -48.7949c0 -36.0352 -29.2451 -65.2803 -65.2803 -65.2803
c-16.1836 0 -38.0439 9.81836 -48.7949 21.915l-64 65.9199c-1.77148 2.16992 -4.35254 5.89746 -5.75977 8.32031c-32 -17.9199 -69.1201 -28.1602 -108.16 -28.1602c-123.52 0 -224 100.48 -224 224s100.48 224 224 224zM224 384v0.639648c-88.96 0 -160 -71.04 -160 -160
s71.04 -160 160 -160c39.6797 0 76.1602 14.0801 104.32 37.7607c3.4707 5.78906 10.6387 13.8174 16 17.9199c1.04199 0.56543 2.76172 1.42578 3.83984 1.91992c0.639648 0.639648 1.28027 1.2793 1.91992 1.91992c21.1201 26.8799 33.9199 62.0801 33.9199 99.8398
c0 88.96 -71.04 160 -160 160zM192 320h64v-64h64v-64h-64v-64h-64v64h-64v64h64v64z" />
    <glyph glyph-name="uniF14B" unicode="&#xf14b;" 
d="M16 384h480c8.95996 0 16 -7.04004 16 -16v-48h-512v48c0 8.95996 7.04004 16 16 16zM0 256h512v-240c0 -8.95996 -7.04004 -16 -16 -16h-480c-8.95996 0 -16 7.04004 -16 16v240zM64 128v-64h64v64h-64zM192 128v-64h64v64h-64z" />
    <glyph glyph-name="uniF176" unicode="&#xf176;" 
d="M256 448c105.6 0 192 -86.4004 192 -192v-64h32c17.6641 0 32 -14.3359 32 -32v-128c0 -17.6641 -14.3359 -32 -32 -32h-64c-17.6641 0 -32 14.3359 -32 32v224c0 71.04 -56.96 128 -128 128s-128 -56.96 -128 -128v-224c0 -17.6641 -14.3359 -32 -32 -32h-64
c-17.6641 0 -32 14.3359 -32 32v128c0 17.6641 14.3359 32 32 32h32v64c0 105.6 86.4004 192 192 192z" />
    <glyph glyph-name="uniF1CD" unicode="&#xf1cd;" 
d="M128 448v-0.639648h192v-64h-64v-3.84082c16 -2.55957 31.3604 -5.11914 46.0801 -10.2393l-21.7598 -60.1602c-18.5605 7.04004 -37.1201 10.2402 -56.3203 10.2402c-88.96 0 -160 -71.04 -160 -160s71.04 -160 160 -160s160 71.04 160 160
c0 19.8398 -3.2002 37.7598 -10.2402 56.3193l58.2402 24.3203c9.59961 -24.3203 16 -51.2002 16 -80c0 -123.52 -100.48 -224 -224 -224s-224 100.48 -224 224c0 112.64 83.2002 206.72 192 222.08v1.91992h-64v64zM448 373.76h0.639648
s-189.439 -223.359 -202.239 -236.16c-12.8008 -12.7998 -32 -12.7998 -44.1602 0c-12.1602 12.8008 -12.1602 31.3604 0 44.1602c12.1602 12.1602 245.76 192 245.76 192z" />
    <glyph glyph-name="uniF195" unicode="&#xf195;" 
d="M256 384v-384l-256 192zM256 192l256 192v-384z" />
    <glyph glyph-name="uniF1AA" unicode="&#xf1aa;" 
d="M192 448h128v-192h192v-128h-192v-192h-128v192h-192v128h192v192z" />
    <glyph glyph-name="uniF141" unicode="&#xf141;" 
d="M224 448h64l32 -76.1602c5.75977 -2.55957 12.1602 -5.75977 17.9199 -8.32031l76.1602 32l46.0801 -46.0791l-32 -76.1602c3.2002 -5.76074 6.39941 -12.1602 8.32031 -17.9199l76.1592 -32v-64l-76.1592 -32c-2.56055 -5.76074 -5.76074 -12.1602 -8.32031 -17.9199
l32 -76.1602l-46.0801 -46.0801l-76.1602 32c-5.75977 -3.2002 -12.1602 -5.75977 -17.9199 -8.32031l-32 -76.1602h-64l-32 76.1602c-6.40039 2.56055 -12.1602 5.75977 -17.9199 8.32031l-76.1602 -32l-46.0801 46.0801l32 76.1602
c-3.2002 6.39941 -5.75977 11.5195 -8.32031 17.9199l-76.1592 32v64l76.1592 32c2.56055 6.39941 5.12012 11.5195 8.32031 17.9199l-32 76.1602l46.0801 46.0791l76.1602 -32c5.75977 3.2002 11.5195 6.40039 17.9199 8.32031zM256 288c-53.1201 0 -96 -42.8799 -96 -96
s42.8799 -96 96 -96s96 42.8799 96 96s-42.8799 96 -96 96z" />
    <glyph glyph-name="uniF19B" unicode="&#xf19b;" 
d="M0 384h512v-64h-512v64zM0 193.92h512v-64h-512v64zM0 1.91992h512v-64h-512v64z" />
    <glyph glyph-name="uniF10E" unicode="&#xf10e;" 
d="M320 384l192 -158.08l-192 -161.92v128h-320v64h320v128z" />
    <glyph glyph-name="uniF145" unicode="&#xf145;" 
d="M0 448h512v-64h-512v64zM256 256l128 -128h-256zM0 64h512v-128h-512v128z" />
    <glyph glyph-name="uniF109" unicode="&#xf109;" 
d="M256 448c141.44 0 256 -114.56 256 -256s-114.56 -256 -256 -256s-256 114.56 -256 256s114.56 256 256 256zM192 384v-192h-128l192 -192l192 192h-128v192h-128z" />
    <glyph glyph-name="uniF1C2" unicode="&#xf1c2;" 
d="M256 448l64 -192h192l-160 -128l64 -192l-160 128l-160 -128l64 192l-160 128h192z" />
    <glyph glyph-name="uniF143" unicode="&#xf143;" 
d="M0 448h64v-512h-64v512zM384 448h128v-512h-128v512zM320 320v-256l-128 128z" />
    <glyph glyph-name="uniF18E" unicode="&#xf18e;" 
d="M64 448h384v-192h64l-96 -160l-96 160h64v128h-256v-64h-64v128zM96 288l96 -160h-64v-128h256v64h64v-128h-384v192h-64z" />
    <glyph glyph-name="uniF11D" unicode="&#xf11d;" 
d="M256 448c71.04 0 128 -57.5996 128 -128c0 -66.5596 33.2803 -126.72 85.7598 -170.24c26.8799 -21.7598 42.2402 -52.4795 42.2402 -85.7598h-512c0 33.2803 16 64 42.2402 85.7598c52.4795 43.5205 85.7598 103.681 85.7598 170.24c0 70.4004 57.5996 128 128 128z
M192 0h128c0 -35.2002 -28.7998 -64 -64 -64s-64 28.7998 -64 64z" />
    <glyph glyph-name="uniF1DC" unicode="&#xf1dc;" 
d="M0 448h64l147.84 -192h24.3203l147.84 192h64l-144 -192h144v-64h-192v-64h192v-64h-192v-128h-64v128h-192v64h192v64h-192v64h144z" />
    <glyph glyph-name="uniF179" unicode="&#xf179;" 
d="M0 448h512v-512h-512v512zM64 384v-192l64 64l256 -256h64v64l-128 128l64 64l64 -64v192h-384z" />
    <glyph glyph-name="uniF1D2" unicode="&#xf1d2;" 
d="M5.75977 448h0.640625h115.84c3.2002 0 5.75977 -1.91992 5.75977 -5.75977v-122.24h-128v122.24c0 3.2002 1.91992 5.75977 5.75977 5.75977zM389.76 448h0.640625h115.84c3.2002 0 5.75977 -1.91992 5.75977 -5.75977v-122.24h-128v122.24
c0 3.2002 2.55957 5.75977 5.75977 5.75977zM197.76 384h0.640625h115.84c3.2002 0 5.75977 -2.55957 5.75977 -5.75977v-58.2402h-128v58.2402c0 3.2002 1.91992 5.75977 5.75977 5.75977zM0 256h512v-64h-512v64zM0 128h-0.639648h128v-122.24
c0 -3.2002 -2.56055 -5.75977 -5.76074 -5.75977h-115.84c-3.2002 0 -5.75977 2.55957 -5.75977 5.75977v122.24zM192 128h-0.639648h128v-58.2402c0 -3.2002 -2.56055 -5.75977 -5.76074 -5.75977h-115.84c-3.2002 0 -5.75977 2.55957 -5.75977 5.75977v58.2402zM384 128
h-0.639648h128v-122.24c0 -3.2002 -2.56055 -5.75977 -5.76074 -5.75977h-115.84c-3.2002 0 -5.75977 2.55957 -5.75977 5.75977v122.24z" />
    <glyph glyph-name="uniF1C5" unicode="&#xf1c5;" 
d="M0 448h192l320 -320l-192 -192l-320 320v192zM128 384c-35.2002 0 -64 -28.7998 -64 -64s28.7998 -64 64 -64s64 28.7998 64 64s-28.7998 64 -64 64z" />
    <glyph glyph-name="uniF1CC" unicode="&#xf1cc;" 
d="M286.08 448c4.47949 0.639648 7.67969 -0.639648 12.1602 -1.91992c16.6396 -5.75977 24.96 -23.6797 19.8398 -40.3203c-5.12012 -16.6396 -30.0801 -101.76 -30.0801 -117.76s14.0801 -32 32 -32h96c17.9199 0 32 -14.0801 32 -32s-65.9199 -204.16 -65.9199 -204.16
c-5.12012 -11.5195 -16.6396 -19.8398 -30.0801 -19.8398h-224v256c17.9199 0 33.9199 5.75977 46.0801 17.9199s73.5996 135.68 81.9199 152.32c6.40039 12.1602 17.9199 20.4795 30.0801 21.7598zM0 256h64v-256h-64v256z" />
    <glyph glyph-name="uniF175" unicode="&#xf175;" 
d="M0 448h192v-64h-32c-17.9199 0 -32 -14.0801 -32 -32v-96h192v96c0 17.9199 -14.0801 32 -32 32h-32v64h192v-64h-32c-17.9199 0 -32 -14.0801 -32 -32v-256c0 -17.9199 14.0801 -32 32 -32h32v-64h-192v64h32c17.9199 0 32 14.0801 32 32v96h-192v-96
c0 -17.9199 14.0801 -32 32 -32h32v-64h-192v64h32c17.9199 0 32 14.0801 32 32v256c0 17.9199 -14.0801 32 -32 32h-32v64z" />
    <glyph glyph-name="uniF130" unicode="&#xf130;" 
d="M256 320l256 -256h-512z" />
    <glyph glyph-name="uniF127" unicode="&#xf127;" 
d="M476.16 446.08v0.639648c1.28027 0 2.55957 -0.639648 3.83984 -1.91992l28.1602 -28.1602c2.55957 -2.55957 1.91992 -5.12012 0 -8.31934l-170.24 -240c-2.55957 -3.2002 -7.04004 -6.40039 -10.2402 -8.32031l-16 -8.32031c-14.7197 46.0801 -49.9199 81.2803 -96 96
l8.32031 16c1.91992 3.2002 5.75977 8.32031 8.32031 10.2402l240 170.24c1.2793 0.639648 1.91992 1.91992 3.83984 1.91992zM170.24 192l0.639648 0.639648c46.7197 0 85.7598 -38.3994 85.7598 -85.7598c0 -94.7197 -76.1592 -170.24 -170.239 -170.24
c-30.7207 0 -60.8008 7.68066 -85.7607 21.7607c50.5605 29.4395 85.7607 84.4795 85.7607 147.84c0 46.7197 36.4795 85.7598 83.8398 85.7598z" />
    <glyph glyph-name="uniF1B5" unicode="&#xf1b5;" 
d="M224 448l160 -192h-128v-128h128l-160 -192l-160 192h128v128h-128z" />
    <glyph glyph-name="uniF13C" unicode="&#xf13c;" 
d="M288 384c88.3203 0 160 -71.6797 160 -160v-32c37.1201 -13.4404 64 -54.4004 64 -96c0 -53.1201 -42.8799 -96 -96 -96h-288c-70.4004 0 -128 57.5996 -128 128s57.5996 128 128 128c14.7197 72.96 82.5596 128 160 128z" />
    <glyph glyph-name="uniF154" unicode="&#xf154;" 
d="M0 384h192v-192l-192 -192v384zM320 384h192v-192l-192 -192v384z" />
    <glyph glyph-name="uniF193" unicode="&#xf193;" 
d="M64 384l384 -192l-384 -192v384z" />
    <glyph glyph-name="uniF174" unicode="&#xf174;" 
d="M12.1602 448h-0.640625h424.32c7.04004 0 12.1602 -5.12012 12.1602 -12.1602v-211.84c0 -17.9199 -14.0801 -32 -32 -32h-384c-17.9199 0 -32 14.0801 -32 32v211.84c0 7.04004 5.12012 12.1602 12.1602 12.1602zM0 133.76h0.639648
c10.2402 -3.2002 20.4805 -5.75977 32 -5.75977h384c11.5205 0 21.7607 1.91992 32 5.75977v-186.24c0 -7.03906 -5.12012 -12.1592 -12.1592 -12.1592h-424.32c-7.04004 0 -12.1602 5.12012 -12.1602 12.1592v186.24zM352 64c-17.9199 0 -32 -14.0801 -32 -32
s14.0801 -32 32 -32s32 14.0801 32 32s-14.0801 32 -32 32z" />
    <glyph glyph-name="uniF165" unicode="&#xf165;" 
d="M257.92 384c158.08 0 254.08 -192 254.08 -192s-96 -192 -254.08 -192c-161.92 0 -257.92 192 -257.92 192s96 192 257.92 192zM256 320c-70.4004 0 -128 -57.5996 -128 -128c0 -71.04 57.5996 -128 128 -128c71.04 0 128 56.96 128 128c0 70.4004 -56.96 128 -128 128z
M256 256c6.40039 0 12.1602 -1.91992 17.9199 -3.83984c-10.2402 -5.12012 -17.9199 -15.3604 -17.9199 -28.1602c0 -17.9199 14.0801 -32 32 -32c12.7998 0 23.04 7.67969 28.1602 17.9199c1.28027 -5.75977 3.83984 -11.5195 3.83984 -17.9199
c0 -35.2002 -28.7998 -64 -64 -64s-64 28.7998 -64 64s28.7998 64 64 64z" />
    <glyph glyph-name="uniF186" unicode="&#xf186;" 
d="M376.32 446.08v-0.639648c11.5195 0.639648 24.3193 0.639648 35.8398 -1.9209c23.04 -5.11914 44.1602 -16 62.0801 -33.9199c49.9199 -49.2793 49.9199 -129.92 0 -179.84l-96 -96c-39.04 -39.6797 -83.8398 -51.8398 -115.84 -49.9199s-44.7139 10.8604 -53.7607 16
c-9.0459 5.13965 -16.3877 17.7559 -16.3877 28.1602c0 17.8779 14.5098 32.3877 32.3877 32.3877c4.72461 0 11.8926 -1.89355 16 -4.22754c0 0 9.60059 -7.67969 26.2402 -8.32031c16.6396 -0.639648 39.6797 1.91992 67.8398 30.0801l96 96
c24.96 25.5996 24.96 67.2002 0 92.1602c-17.9199 18.5596 -45.4395 21.7598 -67.8398 14.0801c-8.95996 -3.2002 -17.2803 -7.04004 -24.3203 -14.0801c-5.20215 -8.20703 -17.3096 -14.8672 -27.0264 -14.8672c-17.6641 0 -32 14.3359 -32 32
c0 9.7168 6.66016 21.8252 14.8672 27.0273c14.0801 14.0801 30.7197 23.6797 48 30.0801c10.8799 3.83984 22.3994 5.12012 33.9199 5.75977zM248.32 298.24v1.2793c32 -1.2793 41.042 -10.3701 53.7598 -14.0791c12.7178 -3.70996 23.04 -17.4727 23.04 -30.7207
c0 -17.6641 -14.3359 -32 -32 -32c-5.8877 0 -14.4893 2.86719 -19.2002 6.40039c0 0 -12.1602 5.12012 -30.0801 5.75977s-40.3203 -2.55957 -65.9199 -28.1602l-96 -96c-24.96 -25.5996 -24.96 -67.2002 0 -92.1602c17.9199 -18.5596 45.4404 -21.7598 67.8398 -14.0791
c8.95996 3.19922 17.2803 7.03906 24.3203 14.0791c5.20215 8.20703 17.3105 14.8672 27.0273 14.8672c17.6641 0 32 -14.3359 32 -32c0 -9.71582 -6.66113 -21.8242 -14.8672 -27.0264c-14.0801 -14.0801 -30.7207 -23.6807 -48 -30.0801
c-44.7998 -16 -96 -5.76074 -131.84 30.0801c-49.9199 49.2793 -49.9199 129.92 0 179.84l96 96c37.7598 38.3994 81.9199 49.2793 113.92 48z" />
    <glyph glyph-name="uniF122" unicode="&#xf122;" 
d="M128 448h256v-512l-128 128l-128 -128v512z" />
    <glyph glyph-name="uniF198" unicode="&#xf198;" 
d="M0 384l320 -192l-320 -192v384zM320 192v192h128v-384h-128v192z" />
    <glyph glyph-name="uniF106" unicode="&#xf106;" 
d="M0 448h512v-64h-512v64zM128 320h384v-64h-384v64zM0 192h512v-64h-512v64zM128 64h384v-64h-384v64z" />
    <glyph glyph-name="uniF14F" unicode="&#xf14f;" 
d="M0 448h512v-64h-512v64zM256 320l192 -192h-128v-192h-128v192h-128z" />
    <glyph glyph-name="uniF17D" unicode="&#xf17d;" 
d="M128 448h320v-64h-78.0801l-21.7598 -56.3203l-128 -320l-3.83984 -8.31934h104.319v-64h-320v64h78.0801l21.7607 56.3193l128 320l3.83984 8.32031h-104.32v64z" />
    <glyph glyph-name="uniF107" unicode="&#xf107;" 
d="M256 448c48 0 93.4404 -14.7197 131.84 -37.7598l-48 -144l-206.08 149.76c36.4805 19.8398 78.0801 32 122.24 32zM80 375.68h-0.639648l122.239 -88.3193l-197.76 -142.08c-2.55957 15.3594 -3.83984 30.0801 -3.83984 46.0801c0 72.96 31.3604 137.6 80 184.319z
M440.32 367.36c44.1602 -46.0801 72.3193 -107.521 72.3193 -176c0 -22.4004 -5.12012 -43.5205 -10.2393 -64h-140.16zM138.24 161.28l72.3193 -222.08c-81.9199 14.7197 -149.119 69.7598 -184.319 142.08zM238.08 63.3604h238.08
c-40.3203 -69.7607 -112.641 -118.4 -197.76 -126.08z" />
    <glyph glyph-name="uniF113" unicode="&#xf113;" 
d="M222.08 448l161.92 -192h-128v-320h-64v320h-128z" />
    <glyph glyph-name="uniF103" unicode="&#xf103;" 
d="M288 384c123.52 0 224 -100.48 224 -224c0 88.3203 -71.6797 160 -160 160s-160 -71.6797 -160 -160v-32h64l-128 -128l-128 128h64v32c0 123.52 100.48 224 224 224z" />
    <glyph glyph-name="uniF1A2" unicode="&#xf1a2;" 
d="M320 448l-0.639648 -0.639648c33.2793 0 65.2793 -12.8008 90.2393 -37.7607c49.9199 -49.2793 49.9199 -129.92 0 -179.84l-160 -156.16c-30.7197 -31.3594 -81.2793 -30.7197 -112 0c-30.7197 30.7207 -30.7197 81.2803 0 112l62.0801 62.0801l44.1602 -44.1602
l-58.2402 -60.1592l-3.83984 -1.91992c-6.39941 -7.04004 -6.39941 -17.9209 0 -24.3203c7.04004 -6.40039 17.9199 -6.40039 24.3203 0l160 158.08c23.6797 25.5996 24.96 65.2803 0 90.2402c-25.5996 24.96 -67.2002 24.96 -92.1602 0l-177.92 -176
c-42.2402 -44.1602 -43.5195 -114.561 0 -158.08c44.1602 -44.1602 115.84 -44.1602 160 0l5.75977 8.31934l74.2402 72.3203l44.1602 -44.1602l-80 -80c-69.1201 -68.4795 -179.84 -68.4795 -248.32 0c-68.4795 69.1201 -68.4795 179.84 0 248.32l177.92 174.08
c24.96 24.3193 57.6006 37.7598 90.2402 37.7598z" />
    <glyph glyph-name="uniF16C" unicode="&#xf16c;" 
d="M96 448c53.1201 0 96 -42.8799 96 -96c0 -42.2402 -26.2402 -77.4404 -64 -90.2402v-76.1602c9.59961 3.2002 21.1201 5.76074 32 5.76074h128c17.9199 0 32 14.0801 32 32v37.7598c-37.7598 13.4395 -64 48 -64 90.2402c0 53.1201 42.8799 96 96 96s96 -42.8799 96 -96
c0 -42.2402 -26.2402 -77.4404 -64 -90.2402v-37.7598c0 -52.4805 -43.5195 -96 -96 -96h-128c-8.32031 0 -16 -4.48047 -21.7598 -10.2402c32 -15.3604 53.7598 -47.3604 53.7598 -85.7598c0 -53.1201 -42.8799 -96 -96 -96s-96 42.8799 -96 96
c0 42.2393 26.2402 77.4395 64 90.2393v140.16c-37.7598 13.4404 -64 48 -64 90.2402c0 53.1201 42.8799 96 96 96z" />
    <glyph glyph-name="uniF11C" unicode="&#xf11c;" 
d="M85.7598 448h1.28027c0.529297 0.0322266 1.38965 0.0576172 1.91992 0.0576172s1.39062 -0.0253906 1.91992 -0.0576172c0.792969 0.0712891 2.08398 0.129883 2.87988 0.129883c0.796875 0 2.08691 -0.0585938 2.87988 -0.129883h320c17.6641 0 32 -14.3359 32 -32
s-14.3359 -32 -32 -32h-32v-90.2402c5.76074 -10.8799 76.8008 -147.84 106.24 -197.76c9.60059 -16.6396 21.7598 -39.04 21.7598 -67.8398c0 -24.96 -9.59961 -49.2803 -26.2393 -65.9199h-1.91992c-16.6406 -16 -39.6807 -26.2402 -64 -26.2402h-328.32
c-24.96 0 -49.2803 9.59961 -65.9199 26.2402c-16.6406 16.6396 -26.2402 40.96 -26.2402 65.9199c0 28.7998 11.5195 51.2002 21.7598 67.8398c29.4404 49.9199 100.48 186.88 106.24 197.76v90.2402h-32c-1.4043 -0.224609 -3.69824 -0.407227 -5.12012 -0.407227
c-17.8887 0 -32.4072 14.5186 -32.4072 32.4072c0 15.2539 12.2246 29.5898 27.2871 32zM192 384v-104.32l-3.83984 -5.75977s-40.3203 -78.7197 -76.1602 -145.92h288c-35.8398 67.2002 -76.1602 145.92 -76.1602 145.92l-3.83984 5.75977v104.32h-128z" />
    <glyph glyph-name="uniF111" unicode="&#xf111;" 
d="M320 384l192 -190.08l-192 -193.92v128h-320v128h320v128z" />
    <glyph glyph-name="uniF136" unicode="&#xf136;" 
d="M160 448l256 -256l-256 -256l-96 96l160 160l-160 160z" />
    <glyph glyph-name="uniF168" unicode="&#xf168;" 
d="M128 448c0 0 128 -64 128 -192s-190.72 -193.28 -128 -320c0 0 -128 64 -128 192s192 192 128 320zM320 256c0 0 128 -64 128 -192c0 -96 -38.4004 -128 -64 -128h-192c0 128 192 192 128 320z" />
    <glyph glyph-name="uniF1BE" unicode="&#xf1be;" 
d="M192 448h64v-128h128l64 -64l-64 -64h-128v-256h-64v320h-128l-64 64l64 64h128v64z" />
    <glyph glyph-name="uniF164" unicode="&#xf164;" 
d="M0 448h128v-64h-64v-384h384v64h64v-128h-512v512zM256 448h256v-256l-96 96l-160 -160l-64 64l160 160z" />
    <glyph glyph-name="uniF16E" unicode="&#xf16e;" 
d="M64 448l96 -96l96 96v-256h-256l96 96l-96 96zM256 192h256l-96 -96l96 -96l-64 -64l-96 96l-96 -96v256z" />
    <glyph glyph-name="uniF1A6" unicode="&#xf1a6;" 
d="M76.1602 448h296.32c7.03906 0 12.1592 -5.12012 12.1592 -12.1602v-488.32c0 -7.03906 -5.12012 -12.1592 -12.1592 -12.1592h-296.32c-7.04004 0 -12.1602 5.12012 -12.1602 12.1592v488.32c0 7.04004 5.12012 12.1602 12.1602 12.1602zM128 384v-320h192v320h-192z
M224 32c-17.9199 0 -32 -14.0801 -32 -32s14.0801 -32 32 -32s32 14.0801 32 32s-14.0801 32 -32 32z" />
    <glyph glyph-name="uniF169" unicode="&#xf169;" 
d="M0 448h64v-512h-64v512zM128 448h192v-64h192l-128 -129.92l128 -126.08h-256v64h-128v256z" />
    <glyph glyph-name="uniF1C8" unicode="&#xf1c8;" 
d="M0 448h357.76l-64 -64h-229.76v-320h320v101.76l64 64v-229.76h-448v448zM448 448l64 -64l-256 -256l-128 128l64 64l64 -64z" />
    <glyph glyph-name="uniF129" unicode="&#xf129;" 
d="M384 448l-0.639648 -0.639648h58.2393c3.2002 0 5.76074 -1.91992 5.76074 -5.76074v-371.84c0 -3.2002 -2.56055 -5.75977 -5.76074 -5.75977h-51.8398c-1.2793 0 -3.83984 -0.639648 -5.75977 0v384zM320 416v0.639648v-320l-160 80v-1.91992
c-9.59961 0 -16 -5.12012 -17.9199 -14.0801l48 -113.92c7.04004 -16 0 -37.1201 -16 -44.1602s-37.1201 0 -44.1602 16l-65.9199 174.08h-58.2402c-3.2002 0 -5.75977 1.91992 -5.75977 5.76074v115.84c0 3.2002 1.91992 5.75977 5.75977 5.75977h115.84
c3.84082 0 8.95996 0.639648 12.1602 1.91992z" />
    <glyph glyph-name="uniF1AE" unicode="&#xf1ae;" 
d="M208 448l30.0801 -97.9199l53.7598 -170.24l30.0801 76.1602l26.2402 65.9199l32 -62.0801l24.3203 -48h108.159v-64h-147.84l-8.31934 17.9199l-37.7607 -94.0801l-33.9199 -81.9199l-26.2402 85.7598l-49.9199 160l-49.9199 -160l-30.0801 -96l-30.0801 94.0801
l-24.3193 74.2402h-74.2402v64h120.32l5.75977 -21.7598l1.91992 -3.83984l49.9199 163.84z" />
    <glyph glyph-name="uniF11E" unicode="&#xf11e;" 
d="M160 448h32l224 -160l-144 -94.0801l144 -97.9199l-224 -160h-32v160l-48 -48l-48 48l96 96l-96 96l48 48l48 -48v160zM224 352v-128l96 64zM224 160v-128l96 64z" />
    <glyph glyph-name="uniF128" unicode="&#xf128;" 
d="M224 448l0.639648 0.639648c76.1602 0 126.08 -106.88 76.1602 -160c5.75977 -4.47949 12.1602 -8.95996 17.9199 -14.0801l83.8398 42.2402c2.14355 1.39258 5.87109 3.1123 8.32031 3.83984c1.53125 0.271484 4.03516 0.492188 5.58984 0.492188
c17.6641 0 32 -14.3359 32 -32c0 -10.9424 -7.95215 -23.7793 -17.75 -28.6514l-74.2393 -35.8408c5.75977 -10.2393 12.1592 -21.1201 16 -32h44.1592c17.6641 0 32 -14.3359 32 -32s-14.3359 -32 -32 -32h-32c0 -14.7197 -1.2793 -28.7998 -3.83984 -42.2393
l49.9199 -26.2402c12.7188 -3.70996 23.04 -17.4717 23.04 -30.7197c0 -17.6641 -14.3359 -32 -32 -32c-5.8877 0 -14.4893 2.86719 -19.2002 6.39941l-42.2393 21.7598c-15.3604 -29.4395 -39.6807 -53.7598 -65.9199 -69.7598
c-22.4004 12.1602 -37.7607 28.7998 -37.7607 46.0801v85.7598c-0.0712891 0.793945 -0.129883 2.08398 -0.129883 2.87988c0 0.796875 0.0585938 2.08691 0.129883 2.88086v3.83984c-0.0712891 0.792969 -0.129883 2.08301 -0.129883 2.87988
c0 0.795898 0.0585938 2.08691 0.129883 2.87988v56.3203c0 17.9199 -14.0801 32 -32 32c-15.3594 0 -28.7998 -11.5205 -32 -26.2402c0.433594 -1.91895 0.78418 -5.07324 0.78418 -7.04004s-0.350586 -5.12109 -0.78418 -7.04004v-51.8398
c0.0722656 -0.793945 0.129883 -2.08398 0.129883 -2.87988c0 -0.796875 -0.0576172 -2.08691 -0.129883 -2.87988v-92.1602c0 -17.9199 -15.3594 -33.9199 -37.7598 -46.0801c-26.2402 15.3594 -49.9199 40.3193 -65.9199 69.7598l-42.2402 -21.7598
c-4.70996 -3.5332 -13.3115 -6.40039 -19.2002 -6.40039c-17.6631 0 -32 14.3359 -32 32c0 13.248 10.3223 27.0107 23.04 30.7197l49.9209 26.2402c-2.56055 13.4404 -3.84082 27.5205 -3.84082 42.2402h-32c-0.792969 -0.0712891 -2.08301 -0.128906 -2.87988 -0.128906
c-17.7354 0 -32.1289 14.3936 -32.1289 32.1289c0 16.2109 13.1035 30.5469 29.249 32c0.792969 0.0712891 2.08398 0.129883 2.87988 0.129883c0.796875 0 2.08691 -0.0585938 2.87988 -0.129883h44.1602c3.83984 10.8799 10.2402 21.7598 16 32l-74.2402 35.8398
c-10.2871 4.72852 -18.6367 17.7539 -18.6367 29.0762c0 13.8643 10.9297 27.79 24.3975 31.084c1.5498 0.27832 4.08594 0.504883 5.66016 0.504883c4.76758 0 11.9795 -1.94629 16.0996 -4.34473l83.8398 -42.2402c5.12012 5.12012 12.1602 9.59961 17.9199 14.0801
c-50.5596 51.8398 0 160 76.1602 160z" />
    <glyph glyph-name="uniF1B7" unicode="&#xf1b7;" 
d="M64 448c247.04 0 448 -200.96 448 -448h-64c0 212.48 -171.52 384 -384 384v64zM64 320c176.64 0 320 -143.36 320 -320h-64c0 141.44 -114.56 256 -256 256v64zM64 192c105.6 0 192 -86.4004 192 -192h-64c0 71.04 -56.96 128 -128 128v64zM64 64
c35.2002 0 64 -28.7998 64 -64s-28.7998 -64 -64 -64s-64 28.7998 -64 64s28.7998 64 64 64z" />
    <glyph glyph-name="uniF17C" unicode="&#xf17c;" 
d="M320 448c35.2002 0 64 -28.7998 64 -64s-28.7998 -64 -64 -64s-64 28.7998 -64 64s28.7998 64 64 64zM224 288c53.1201 0 96 -44.1602 96 -96c0 -42.2402 -64 -136.96 -64 -160c0 -17.9199 14.0801 -32 32 -32s32 14.0801 32 32h64c0 -53.1201 -42.8799 -96 -96 -96
s-96 40.96 -96 96s64 142.08 64 160s-14.0801 32 -32 32s-32 -14.0801 -32 -32h-64c0 53.1201 42.8799 96 96 96z" />
    <glyph glyph-name="uniF144" unicode="&#xf144;" 
d="M0 448h128v-512h-128v512zM448 448h64v-512h-64v512zM192 320l128 -128l-128 -128v256z" />
    <glyph glyph-name="uniF1C7" unicode="&#xf1c7;" 
d="M256 448c140.8 0 256 -115.2 256 -256s-115.2 -256 -256 -256s-256 115.2 -256 256s115.2 256 256 256zM256 384c-106.24 0 -192 -85.7598 -192 -192s85.7598 -192 192 -192s192 85.7598 192 192s-85.7598 192 -192 192zM256 320c70.4004 0 128 -57.5996 128 -128
s-57.5996 -128 -128 -128s-128 57.5996 -128 128s57.5996 128 128 128zM256 256c-35.8398 0 -64 -28.1602 -64 -64s28.1602 -64 64 -64s64 28.1602 64 64s-28.1602 64 -64 64z" />
    <glyph glyph-name="uniF1CB" unicode="&#xf1cb;" 
d="M0 448h64v-256h-64v256zM128 448h224c13.4404 0 24.96 -8.32031 30.0801 -19.8398c0 0 65.9199 -186.24 65.9199 -204.16s-14.0801 -32 -32 -32h-96c-17.9199 0 -32 -16 -32 -32s24.96 -101.12 30.0801 -117.76c5.75977 -17.2803 -3.2002 -35.2002 -19.8398 -40.3203
c-17.2803 -5.12012 -33.9199 3.2002 -42.2402 19.8398c-8.32031 16.6406 -69.7598 140.16 -81.9199 152.32s-28.1602 17.9199 -46.0801 17.9199v256z" />
    <glyph glyph-name="uniF1CF" unicode="&#xf1cf;" 
d="M192 448h64c35.2002 0 64 -28.7998 64 -64h64c35.2002 0 64 -28.7998 64 -64h-448c0 35.2002 28.7998 64 64 64h64c0 35.2002 28.7998 64 64 64zM64 256h0.639648h64v-224c0 -17.9199 14.0801 -32 32 -32s32 14.0801 32 32v224h64v-224c0 -17.9199 14.0801 -32 32 -32
s32 14.0801 32 32v224h64v-307.84c0 -7.04004 -5.12012 -12.1602 -12.1592 -12.1602h-296.32c-7.04004 0 -12.1602 5.12012 -12.1602 12.1602v307.84z" />
    <glyph glyph-name="uniF110" unicode="&#xf110;" 
d="M192 384v-128h320v-128h-320v-128l-192 190.08z" />
    <glyph glyph-name="uniF1AD" unicode="&#xf1ad;" 
d="M0 448h64v-448h-64v448zM448 448h64v-448h-64v448zM128 384h128v-64h-128v64zM192 256h128v-64h-128v64zM256 128h128v-64h-128v64z" />
    <glyph glyph-name="uniF12C" unicode="&#xf12c;" 
d="M261.76 448l-1.91992 -0.639648h115.84c3.83984 0 6.40039 -2.56055 8.32031 -5.76074l60.1602 -115.84c1.91992 -3.2002 5.12012 -5.75977 8.32031 -5.75977h51.8398c3.19922 0 5.75977 -1.91992 5.75977 -5.75977v-371.84
c0 -3.2002 -2.56055 -5.76074 -5.75977 -5.76074h-499.84c-3.2002 0 -5.76074 2.56055 -5.76074 5.76074v282.239c0 53.1201 42.8799 96 96 96h90.2402c3.83984 0 7.04004 2.56055 8.32031 5.76074l60.1602 115.84c1.91992 3.2002 5.11914 5.75977 8.31934 5.75977zM96 256
c-17.9199 0 -32 -14.0801 -32 -32s14.0801 -32 32 -32s32 14.0801 32 32s-14.0801 32 -32 32zM320 256c-70.4004 0 -128 -57.5996 -128 -128s57.5996 -128 128 -128s128 57.5996 128 128s-57.5996 128 -128 128zM320 192c35.2002 0 64 -28.7998 64 -64s-28.7998 -64 -64 -64
s-64 28.7998 -64 64s28.7998 64 64 64z" />
    <glyph glyph-name="uniF160" unicode="&#xf160;" 
d="M0 448h512v-64h-512v64zM128 320h256l-128 -128zM0 64h512v-128h-512v128z" />
    <glyph glyph-name="uniF17F" unicode="&#xf17f;" 
d="M0 448h512v-64h-512v64zM0 320h512v-64h-512v64zM0 192h512v-64h-512v64zM0 64h384v-64h-384v64z" />
    <glyph glyph-name="uniF14D" unicode="&#xf14d;" 
d="M256 448c140.8 0 256 -115.2 256 -256s-115.2 -256 -256 -256s-256 115.2 -256 256s115.2 256 256 256zM256 384c-106.24 0 -192 -85.7598 -192 -192s85.7598 -192 192 -192s192 85.7598 192 192s-85.7598 192 -192 192zM256 320c17.9199 0 32 -14.0801 32 -32
s-14.0801 -32 -32 -32s-32 14.0801 -32 32s14.0801 32 32 32zM149.76 256v0.639648c0.529297 0.0322266 1.38965 0.0576172 1.91992 0.0576172s1.39062 -0.0253906 1.91992 -0.0576172c1.21387 0.168945 3.19238 0.306641 4.41699 0.306641
c7.84668 0 18.4834 -4.72461 23.7432 -10.5459l58.2402 -58.2402c5.12012 1.28027 10.2402 3.83984 16 3.83984c35.2002 0 64 -28.7998 64 -64s-28.7998 -64 -64 -64s-64 28.7998 -64 64c0 5.75977 2.55957 10.8799 3.83984 16l-58.2402 58.2402
c-5.55078 5.22949 -10.0566 15.665 -10.0566 23.292c0 12.8809 9.95312 26.5303 22.2168 30.4678zM352 256c17.9199 0 32 -14.0801 32 -32s-14.0801 -32 -32 -32s-32 14.0801 -32 32s14.0801 32 32 32z" />
    <glyph glyph-name="uniF139" unicode="&#xf139;" 
d="M256 448c141.44 0 256 -114.56 256 -256s-114.56 -256 -256 -256s-256 114.56 -256 256s114.56 256 256 256zM160 334.08l-46.0801 -46.0801l96 -96l-96 -96l46.0801 -46.0801l96 96l96 -96l46.0801 46.0801l-96 96l96 96l-46.0801 46.0801l-96 -96z" />
    <glyph glyph-name="uniF152" unicode="&#xf152;" 
d="M0 448h192v-256h256v-256h-448v512zM256 448l192 -192h-192v192zM64 320v-64h64v64h-64zM64 192v-64h64v64h-64zM64 64v-64h256v64h-256z" />
    <glyph glyph-name="uniF18C" unicode="&#xf18c;" 
d="M384 448l128 -96l-128 -96v64h-320v-64h-64v64c0 35.2002 28.7998 64 64 64h320v64zM128 192v-64h320v64h64v-64c0 -35.2002 -28.7998 -64 -64 -64h-320v-64l-128 96z" />
    <glyph glyph-name="uniF150" unicode="&#xf150;" 
d="M128 384h384v-384h-384l-128 192zM224 334.08l-46.0801 -46.0801l96 -96l-96 -96l46.0801 -46.0801l96 96l96 -96l46.0801 46.0801l-96 96l96 96l-46.0801 46.0801l-96 -96z" />
    <glyph glyph-name="uniF115" unicode="&#xf115;" 
d="M256 448h64v-512h-64v512zM128 384h64v-384h-64v384zM384 320h64v-256h-64v256zM0 256h64v-128h-64v128z" />
    <glyph glyph-name="uniF177" unicode="&#xf177;" 
d="M128 384c35.8398 0 67.2002 -14.7197 90.2402 -37.7598c23.04 -23.6807 37.7598 -55.04 37.7598 -90.2402c0 35.8398 14.7197 67.2002 37.7598 90.2402c23.6807 23.04 55.04 37.7598 90.2402 37.7598c35.8398 0 67.2002 -14.7197 90.2402 -37.7598
c23.04 -23.6807 37.7598 -55.04 37.7598 -90.2402c0 -35.8398 -14.7197 -67.2002 -37.7598 -90.2402l-218.24 -218.24l-218.24 218.24c-23.04 23.6807 -37.7598 55.04 -37.7598 90.2402c0 35.8398 14.7197 67.2002 37.7598 90.2402
c23.6807 23.04 55.04 37.7598 90.2402 37.7598z" />
    <glyph glyph-name="uniF155" unicode="&#xf155;" 
d="M192 384v-384h-192v192zM512 384v-384h-192v192z" />
    <glyph glyph-name="uniF167" unicode="&#xf167;" 
d="M0 448h192v-256h256v-256h-448v512zM256 448l192 -192h-192v192z" />
    <glyph glyph-name="uniF1A8" unicode="&#xf1a8;" 
d="M85.7598 448h0.640625c0.529297 0.0322266 1.38965 0.0576172 1.91992 0.0576172s1.39062 -0.0253906 1.91992 -0.0576172c0.792969 0.0712891 2.08301 0.129883 2.87988 0.129883c0.795898 0 2.08691 -0.0585938 2.87988 -0.129883h256c17.6641 0 32 -14.3359 32 -32
s-14.3359 -32 -32 -32h-32v-128h64c35.2002 0 64 -28.7998 64 -64h-192v-192l-35.8398 -64l-28.1602 64v192h-192c0 35.2002 28.7998 64 64 64h64v128h-32c-1.4043 -0.224609 -3.69824 -0.407227 -5.12012 -0.407227c-17.8887 0 -32.4072 14.5186 -32.4072 32.4072
c0 15.2539 12.2246 29.5898 27.2871 32z" />
    <glyph glyph-name="uniF1A3" unicode="&#xf1a3;" 
d="M384 448l128 -128l-64 -64l-128 128zM256 320l128 -128l-256 -256h-128v128z" />
    <glyph glyph-name="uniF12A" unicode="&#xf12a;" 
d="M5.75977 448h435.84c3.2002 0 5.76074 -1.91992 5.76074 -5.75977v-499.84c0 -3.2002 -2.56055 -5.76074 -5.76074 -5.76074h-435.84c-3.2002 0 -5.75977 2.56055 -5.75977 5.76074v499.84c0 3.2002 1.91992 5.75977 5.75977 5.75977zM64 384v-128h320v128h-320zM64 192
v-64h64v64h-64zM192 192v-64h64v64h-64zM320 192v-192h64v192h-64zM64 64v-64h64v64h-64zM192 64v-64h64v64h-64z" />
    <glyph glyph-name="uniF1BA" unicode="&#xf1ba;" 
d="M320 448l192 -181.76l-192 -202.24v128h-64c-128 0 -222.72 -65.2803 -256 -192c0 188.8 64 320 320 320v128z" />
    <glyph glyph-name="uniF14E" unicode="&#xf14e;" 
d="M192 448h128v-192h128l-192 -192l-192 192h128v192zM0 0h512v-64h-512v64z" />
    <glyph glyph-name="uniF132" unicode="&#xf132;" 
d="M0 448h320v-64h-192v-192h-64l-64 -64v320zM192 320h320v-320l-64 64h-256v256z" />
    <glyph glyph-name="uniF1D6" unicode="&#xf1d6;" 
d="M277.76 448h42.2402v-512h-42.2402l-85.7598 128h-128v256h128zM384 256c5.12012 0 10.8799 -0.639648 16 -1.91992c28.1602 -7.04004 48 -32.6396 48 -62.0801s-20.4805 -55.04 -48 -62.0801c-4.48047 -1.28027 -10.2402 -1.91992 -16 -1.91992v128z" />
    <glyph glyph-name="uniF12B" unicode="&#xf12b;" 
d="M0 448h448v-128h-448v128zM0 256h-0.639648h448v-314.24c0 -3.2002 -2.56055 -5.75977 -5.76074 -5.75977h-435.84c-3.2002 0 -5.75977 2.55957 -5.75977 5.75977v314.24zM64 192v-64h64v64h-64zM192 192v-64h64v64h-64zM320 192v-64h64v64h-64zM64 64v-64h64v64h-64z
M192 64v-64h64v64h-64z" />
    <glyph glyph-name="uniF101" unicode="&#xf101;" 
d="M192 448h320v-448h-320v64h256v320h-256v64zM128 320v-64h256v-64h-256v-64l-128 96z" />
    <glyph glyph-name="uniF19C" unicode="&#xf19c;" 
d="M250.24 449.92c1.59668 0.145508 4.19336 0.262695 5.79688 0.262695c35.3281 0 64 -28.6719 64 -64c0 -0.602539 -0.0166016 -1.58008 -0.0371094 -2.18262v-128c0 -35.3281 -28.6719 -64 -64 -64s-64 28.6719 -64 64v128
c-0.0107422 0.431641 -0.0195312 1.13184 -0.0195312 1.56348c0 28.2568 22.373 56.2285 49.9395 62.4365c2.26074 0.683594 5.98828 1.54395 8.32031 1.91992zM86.4004 320h1.2793c0.529297 0.0322266 1.38965 0.0576172 1.91992 0.0576172
c0.53125 0 1.39062 -0.0253906 1.91992 -0.0576172c1.57812 0.289062 4.16113 0.523438 5.76465 0.523438c17.6641 0 32 -14.3359 32 -32c0 -0.144531 -0.00195312 -0.378906 -0.00390625 -0.523438v-32c0 -71.04 56.96 -128 128 -128s128 56.96 128 128v32
c0 17.6641 14.3359 32 32 32s32 -14.3359 32 -32v-32c0 -94.7197 -69.7607 -172.8 -160 -188.16v-67.8398h32c35.2002 0 64 -28.7998 64 -64h-256.641c0 35.2002 28.8008 64 64 64h32v67.8398c-90.2393 16 -160 93.4404 -160 188.16v32
c-0.0234375 0.459961 -0.0429688 1.20703 -0.0429688 1.66797c0 12.6973 9.76758 26.2861 21.8037 30.332z" />
    <glyph glyph-name="uniF133" unicode="&#xf133;" 
d="M410.24 384l92.1602 -90.2402l-46.0801 -46.0801l-224 -224l-46.0801 -46.0801l-44.1602 46.0801l-96 96l-46.0801 46.0801l90.2402 90.2402l46.0801 -46.0801l51.8398 -49.9199l177.92 177.92z" />
    <glyph glyph-name="uniF1D3" unicode="&#xf1d3;" 
d="M0 448h512v-64h-512v64zM5.75977 320h115.84c3.2002 0 5.76074 -1.91992 5.76074 -5.75977v-307.84c0 -3.2002 -2.56055 -5.76074 -5.76074 -5.76074h-115.84c-3.2002 0 -5.75977 2.56055 -5.75977 5.76074v307.84c0 3.2002 1.91992 5.75977 5.75977 5.75977zM197.76 320
h115.84c3.2002 0 5.76074 -1.91992 5.76074 -5.75977v-179.84c0 -3.2002 -2.56055 -5.76074 -5.76074 -5.76074h-115.84c-3.2002 0 -5.75977 2.56055 -5.75977 5.76074v179.84c0 3.2002 1.91992 5.75977 5.75977 5.75977zM389.76 320h115.84
c3.2002 0 5.76074 -1.91992 5.76074 -5.75977v-307.84c0 -3.2002 -2.56055 -5.76074 -5.76074 -5.76074h-115.84c-3.2002 0 -5.75977 2.56055 -5.75977 5.76074v307.84c0 3.2002 2.55957 5.75977 5.75977 5.75977z" />
    <glyph glyph-name="uniF1C1" unicode="&#xf1c1;" 
d="M48 448h416c26.2402 0 48 -21.7598 48 -48v-352c0 -26.2402 -21.7598 -48 -48 -48h-416c-26.2402 0 -48 21.7598 -48 48v352c0 26.2402 21.7598 48 48 48zM64 384v-64h64v64h-64zM192 384v-64h256v64h-256zM64 256v-64h64v64h-64zM192 256v-64h256v64h-256zM64 128v-64
h64v64h-64zM192 128v-64h256v64h-256z" />
    <glyph glyph-name="uniF10F" unicode="&#xf10f;" 
d="M192 448h128v-320h128l-190.08 -192l-193.92 192h128v320z" />
    <glyph glyph-name="uniF1A9" unicode="&#xf1a9;" 
d="M256 448c141.44 0 256 -114.56 256 -256s-114.56 -256 -256 -256s-256 114.56 -256 256s114.56 256 256 256zM192 320v-256l192 128z" />
    <glyph glyph-name="uniF121" unicode="&#xf121;" 
d="M64 448h192v-192l64 64l64 -64v192h32c17.9199 0 32 -14.0801 32 -32v-352h-352c-17.9199 0 -32 -14.0801 -32 -32s14.0801 -32 32 -32h352v-64h-352c-53.1201 0 -96 42.8799 -96 96v352c0 4.48047 0 8.32031 1.91992 12.1602
c5.12012 24.96 24.96 44.7998 49.9199 49.9199c3.83984 1.28027 7.67969 1.91992 12.1602 1.91992z" />
    <glyph glyph-name="uniF15B" unicode="&#xf15b;" 
d="M0 256h128v-128h-128v128zM192 256h128v-128h-128v128zM384 256h128v-128h-128v128z" />
    <glyph glyph-name="uniF13E" unicode="&#xf13e;" 
d="M288 448c88.3203 0 160 -71.6797 160 -160v-32c37.1201 -13.4404 64 -54.4004 64 -96c0 -11.5195 -1.91992 -21.7598 -5.75977 -32h-90.2402l-128 128l-128 -128h-142.08c-10.8799 18.5596 -17.9199 40.3203 -17.9199 64c0 70.4004 57.5996 128 128 128
c14.7197 72.96 82.5596 128 160 128zM288 160l160 -160h-128v-32c0 -17.6641 -14.3359 -32 -32 -32s-32 14.3359 -32 32v32h-128z" />
    <glyph glyph-name="uniF12F" unicode="&#xf12f;" 
d="M128 448l256 -256l-256 -256v512z" />
    <glyph glyph-name="uniF190" unicode="&#xf190;" 
d="M0 448v0.639648h512v-346.239c0.432617 -1.91895 0.78418 -5.07324 0.78418 -7.04004c0 -1.96777 -0.351562 -5.12109 -0.78418 -7.04004v-152.32h-512v512zM64 384v-384h384v64h-96c-0.792969 -0.0712891 -2.08398 -0.128906 -2.87988 -0.128906
c-17.7354 0 -32.1299 14.3936 -32.1299 32.1289c0 16.2109 13.1045 30.5469 29.25 32c0.792969 0.0712891 2.08301 0.129883 2.87988 0.129883c0.795898 0 2.08691 -0.0585938 2.87988 -0.129883h96v256h-384zM224 320c53.1201 0 96 -42.8799 96 -96
c0 -64 -96 -160 -96 -160s-96 96 -96 160c0 53.1201 42.8799 96 96 96zM224 256c-17.9199 0 -32 -14.0801 -32 -32s14.0801 -32 32 -32s32 14.0801 32 32s-14.0801 32 -32 32z" />
    <glyph glyph-name="uniF17B" unicode="&#xf17b;" 
d="M128 320c50.5596 0 90.8799 -35.8398 128 -78.0801c37.1201 42.2402 76.1602 78.0801 128 78.0801c83.8398 0 128 -64.6396 128 -128s-44.1602 -128 -128 -128c-51.8398 0 -90.8799 35.8398 -128 78.0801c-37.1201 -42.2402 -77.4404 -78.0801 -128 -78.0801
c-83.8398 0 -128 64.6396 -128 128s44.1602 128 128 128zM128 256c-47.3604 0 -64 -34.5596 -64 -64s16.6396 -64 64 -64c26.8799 0 56.3203 30.0801 85.7598 64c-29.4395 33.9199 -58.8799 64 -85.7598 64zM384 256c-27.5195 0 -56.3203 -30.0801 -85.7598 -64
c28.7998 -33.9199 58.2402 -64 85.7598 -64c47.3604 0 64 34.5596 64 64s-16.6396 64 -64 64z" />
    <glyph glyph-name="uniF124" unicode="&#xf124;" 
d="M192 448h128c35.2002 0 64 -28.7998 64 -64v-64h122.24c3.2002 0 5.75977 -1.91992 5.75977 -5.75977v-154.24c0 -17.9199 -14.0801 -32 -32 -32h-448c-17.9199 0 -32 14.0801 -32 32v154.24c0 3.2002 1.91992 5.75977 5.75977 5.75977h122.24v64
c0 35.2002 28.7998 64 64 64zM192 384v-64h128v64h-128zM0 69.7598h-0.639648c10.2393 -3.2002 20.4795 -5.75977 32 -5.75977h448c11.5195 0 21.7598 1.91992 32 5.75977v-128c0 -3.2002 -2.56055 -5.75977 -5.76074 -5.75977h-499.84
c-3.2002 0 -5.75977 2.55957 -5.75977 5.75977v128z" />
    <glyph glyph-name="uniF19D" unicode="&#xf19d;" 
d="M0 256h512v-128h-512v128z" />
    <glyph glyph-name="uniF102" unicode="&#xf102;" 
d="M224 384c123.52 0 224 -100.48 224 -224v-32h64l-128 -128l-128 128h64v32c0 88.3203 -71.6797 160 -160 160s-160 -71.6797 -160 -160c0 123.52 100.48 224 224 224z" />
    <glyph glyph-name="uniF18A" unicode="&#xf18a;" 
d="M256 448c70.4004 0 128 -57.5996 128 -128v-64h64v-256h-384v256h64v64c0 70.4004 57.5996 128 128 128zM256 384c-35.8398 0 -64 -28.1602 -64 -64v-64h128v64c0 35.8398 -28.1602 64 -64 64z" />
    <glyph glyph-name="uniF191" unicode="&#xf191;" 
d="M256 448c106.24 0 192 -85.7598 192 -192c0 -128 -192 -320 -192 -320s-192 192 -192 320c0 106.24 85.7598 192 192 192zM256 384c-70.4004 0 -128 -57.5996 -128 -128c0 -71.04 57.5996 -128 128 -128c71.04 0 128 56.96 128 128c0 70.4004 -56.96 128 -128 128z" />
    <glyph glyph-name="uniF18F" unicode="&#xf18f;" 
d="M224 448l0.639648 0.639648c123.521 0 224 -100.479 224 -224c0 -38.3994 -10.8799 -74.8799 -28.1592 -106.239c3.06348 -2.00391 7.65137 -5.73145 10.2393 -8.32031l64 -64c12.0977 -10.751 21.916 -32.6113 21.916 -48.7949
c0 -36.0352 -29.2461 -65.2803 -65.2803 -65.2803c-16.1846 0 -38.0449 9.81836 -48.7959 21.915l-64 64c-2.50781 2.08398 -6.23535 5.81152 -8.31934 8.32031c-31.3604 -17.2803 -68.4805 -26.2402 -106.24 -26.2402c-123.52 0 -224 100.48 -224 224s100.48 224 224 224z
M224 384l-0.639648 -0.639648c-88.96 0 -160 -71.04 -160 -160s71.04 -160 160 -160c41.5996 0 80 14.7197 108.159 40.3193c2.08496 2.50879 5.8125 6.23633 8.32031 8.32031c0.640625 0.639648 1.28027 1.28027 1.91992 1.91992
c26.8799 28.7998 42.2402 67.8398 42.2402 110.08c0 88.96 -71.04 160 -160 160z" />
    <glyph glyph-name="uniF1B1" unicode="&#xf1b1;" 
d="M288 448h0.639648c88.3203 0 160 -71.6797 160 -160v-32c37.1201 -13.4404 64 -54.4004 64 -96c0 -44.1602 -31.3594 -81.2803 -72.3193 -92.1602c-14.7207 35.2002 -48 60.1602 -88.3203 60.1602c-12.7998 0 -24.96 -3.83984 -35.8398 -8.32031
c-10.8799 40.96 -48 72.3203 -92.1602 72.3203c-44.7998 0 -81.2803 -31.3604 -92.1602 -72.3203c-10.8799 5.12012 -23.04 8.32031 -35.8398 8.32031c-23.6797 0 -45.4404 -7.67969 -62.0801 -21.7598c-21.1201 22.3994 -33.9199 51.8398 -33.9199 85.7598
c0 70.4004 57.5996 128 128 128c14.7197 72.96 82.5596 128 160 128zM213.76 128h0.640625c0.529297 0.0322266 1.38965 0.0576172 1.91992 0.0576172s1.39062 -0.0253906 1.91992 -0.0576172c1.57715 0.289062 4.16016 0.523438 5.76367 0.523438
c17.6641 0 32 -14.3359 32 -32c0 -0.144531 -0.00195312 -0.378906 -0.00390625 -0.523438v-128c0 -17.6641 -14.3359 -32 -32 -32s-32 14.3359 -32 32v128c-0.0244141 0.459961 -0.0439453 1.20703 -0.0439453 1.66797c0 12.6973 9.76855 26.2861 21.8037 30.332z
M85.7598 64h0.640625c0.529297 0.0322266 1.38965 0.0576172 1.91992 0.0576172s1.39062 -0.0253906 1.91992 -0.0576172c1.57715 0.289062 4.16016 0.523438 5.76367 0.523438c17.6641 0 32 -14.3359 32 -32c0 -0.144531 -0.00195312 -0.378906 -0.00390625 -0.523438v-64
c0 -17.6641 -14.3359 -32 -32 -32s-32 14.3359 -32 32v64c-0.0244141 0.459961 -0.0439453 1.20703 -0.0439453 1.66797c0 12.6973 9.76855 26.2861 21.8037 30.332zM341.76 64h0.640625c0.529297 0.0322266 1.38965 0.0576172 1.91992 0.0576172
s1.39062 -0.0253906 1.91992 -0.0576172c1.57715 0.289062 4.16016 0.523438 5.76367 0.523438c17.6641 0 32 -14.3359 32 -32c0 -0.144531 -0.00195312 -0.378906 -0.00390625 -0.523438v-64c0 -17.6641 -14.3359 -32 -32 -32s-32 14.3359 -32 32v64
c-0.0244141 0.459961 -0.0439453 1.20703 -0.0439453 1.66797c0 12.6973 9.76855 26.2861 21.8037 30.332z" />
    <glyph glyph-name="uniF108" unicode="&#xf108;" 
d="M192 448h64v-320h128l-158.08 -192l-161.92 192h128v320z" />
    <glyph glyph-name="uniF1D0" unicode="&#xf1d0;" 
d="M64 448h128v-256c0 -35.2002 28.7998 -64 64 -64s64 28.7998 64 64v256h64v-256c0 -70.4004 -57.5996 -128 -128 -128h-32c-88.3203 0 -160 57.5996 -160 128v256zM0 0h448v-64h-448v64z" />
    <glyph glyph-name="uniF188" unicode="&#xf188;" 
d="M0 448h192v-192h-192v192zM256 448h256v-64h-256v64zM256 320h192v-64h-192v64zM0 192h192v-192h-192v192zM256 192h256v-64h-256v64zM256 64h192v-64h-192v64z" />
    <glyph glyph-name="uniF15E" unicode="&#xf15e;" 
d="M320 448h0.639648c44.8008 0 85.7607 -12.1602 122.24 -32l-10.2402 -67.8398c-31.3594 22.3994 -69.7598 35.8398 -112 35.8398c-83.1992 0 -153.6 -53.7598 -179.84 -128h211.84l-10.2393 -64h-213.761c0 -23.04 5.12012 -43.5195 12.1602 -64h190.08l-10.2402 -64
h-142.08c35.2002 -39.04 85.1201 -64 142.08 -64c49.9199 0 94.0801 19.2002 128 49.9199v-78.0801c-37.7598 -22.3994 -81.2793 -35.8398 -128 -35.8398c-94.0801 0 -175.359 51.8398 -220.159 128h-163.841l12.1602 64h126.08
c-5.75977 20.4805 -10.2402 41.5996 -10.2402 64h-128.64l16 64h122.24c28.1602 110.08 126.72 192 245.76 192z" />
    <glyph glyph-name="uniF158" unicode="&#xf158;" 
d="M256 448l21.7598 -21.7598c7.04004 -7.04004 170.24 -172.8 170.24 -312.32c0 -105.6 -86.4004 -192 -192 -192s-192 86.4004 -192 192c0 140.16 163.2 305.28 170.24 312.32zM160 145.92c-17.9199 0 -32 -14.0801 -32 -32c0 -70.4004 57.5996 -128 128 -128
c17.9199 0 32 14.0801 32 32s-14.0801 32 -32 32c-35.2002 0 -64 28.7998 -64 64c0 17.9199 -14.0801 32 -32 32z" />
    <glyph glyph-name="uniF199" unicode="&#xf199;" 
d="M64 384h384v-384h-384v384z" />
    <glyph glyph-name="uniF159" unicode="&#xf159;" 
d="M256 448l256 -320h-512zM0 64h512v-128h-512v128z" />
    <glyph glyph-name="uniF1B4" unicode="&#xf1b4;" 
d="M256 448h256v-256l-106.24 106.24l-256 -256l106.24 -106.24h-256v256l106.24 -106.24l256 256z" />
    <glyph glyph-name="uniF15D" unicode="&#xf15d;" 
d="M256 448l256 -128v-384h-512v384zM256 375.68l-192 -96v-120.319l192 -96l192 96v120.319zM128 255.36h256v-64l-128 -64l-128 64v64z" />
    <glyph glyph-name="uniF172" unicode="&#xf172;" 
d="M0 448h128v-128h-128v128zM192 448h128v-128h-128v128zM384 448h128v-128h-128v128zM0 256h128v-128h-128v128zM192 256h128v-128h-128v128zM384 256h128v-128h-128v128zM0 64h128v-128h-128v128zM192 64h128v-128h-128v128zM384 64h128v-128h-128v128z" />
    <glyph glyph-name="uniF1D9" unicode="&#xf1d9;" 
d="M240 448c88.3203 0 172.16 -24.96 241.92 -69.7598l-33.9199 -51.8398c-59.5195 38.3994 -131.2 58.2393 -208 58.2393c-76.1602 0 -146.56 -20.4795 -206.08 -58.2393l-33.9199 51.8398c69.7598 44.1602 151.68 69.7598 240 69.7598zM240 256h-0.639648
c50.5596 0 98.5596 -15.3604 138.239 -40.3203l-33.9199 -53.7598c-30.0801 19.2002 -66.5596 30.0801 -104.319 30.0801c-37.7607 0 -71.6807 -10.8799 -101.761 -30.0801l-33.9199 53.7598c40.3203 25.6006 85.7607 40.3203 136.32 40.3203zM240 64
c35.2002 0 64 -28.7998 64 -64s-28.7998 -64 -64 -64s-64 28.7998 -64 64s28.7998 64 64 64z" />
    <glyph glyph-name="uniF1A5" unicode="&#xf1a5;" 
d="M256 448c70.4004 0 128 -71.6797 128 -160s-57.5996 -160 -128 -160s-128 71.6797 -128 160s57.5996 160 128 160zM122.24 128c34.5596 -39.04 81.9199 -64 133.76 -64s99.2002 24.96 133.76 64c68.4805 -3.2002 122.24 -58.8799 122.24 -128v-64h-512v64
c0 69.1201 54.4004 124.8 122.24 128z" />
    <glyph glyph-name="uniF15C" unicode="&#xf15c;" 
d="M0 384h512v-64l-256 -128l-256 128v64zM0 256l256 -128l256 128v-256h-512v256z" />
    <glyph glyph-name="uniF12D" unicode="&#xf12d;" 
d="M0 320h512l-256 -256z" />
    <glyph glyph-name="uniF146" unicode="&#xf146;" 
d="M96 448c53.1201 0 96 -42.8799 96 -96v-32h64v32c0 53.1201 42.8799 96 96 96s96 -42.8799 96 -96s-42.8799 -96 -96 -96h-32v-64h32c53.1201 0 96 -42.8799 96 -96s-42.8799 -96 -96 -96s-96 42.8799 -96 96v32h-64v-32c0 -53.1201 -42.8799 -96 -96 -96
s-96 42.8799 -96 96s42.8799 96 96 96h32v64h-32c-53.1201 0 -96 42.8799 -96 96s42.8799 96 96 96zM96 384c-17.9199 0 -32 -14.0801 -32 -32s14.0801 -32 32 -32h32v32c0 17.9199 -14.0801 32 -32 32zM352 384c-17.9199 0 -32 -14.0801 -32 -32v-32h32
c17.9199 0 32 14.0801 32 32s-14.0801 32 -32 32zM192 256v-64h64v64h-64zM96 128c-17.9199 0 -32 -14.0801 -32 -32s14.0801 -32 32 -32s32 14.0801 32 32v32h-32zM320 128v-32c0 -17.9199 14.0801 -32 32 -32s32 14.0801 32 32s-14.0801 32 -32 32h-32z" />
    <glyph glyph-name="uniF1DA" unicode="&#xf1da;" 
d="M352 448l0.639648 -0.639648c10.2402 0 20.4805 0 30.0801 -1.91992l-62.0801 -62.0801v-128h128l62.0801 62.0801c1.91992 -9.60059 1.91992 -19.8408 1.91992 -30.0801c0 -88.3203 -71.6797 -160 -160 -160c-21.1201 0 -40.3193 5.12012 -58.2393 12.1592
l-184.32 -186.239c-12.7998 -12.1602 -29.4404 -17.9199 -46.0801 -17.9199s-33.2803 5.12012 -46.0801 17.9199c-24.96 24.96 -24.96 67.2002 0 92.1602l186.24 184.319c-7.04004 18.5605 -12.1602 37.7598 -12.1602 58.2402c0 88.3203 71.6797 160 160 160zM64 32
c-17.9199 0 -32 -14.0801 -32 -32s14.0801 -32 32 -32s32 14.0801 32 32s-14.0801 32 -32 32z" />
    <glyph glyph-name="uniF16D" unicode="&#xf16d;" 
d="M0 448h256l-96 -96l96 -96l-64 -64l-96 96l-96 -96v256zM320 192l96 -96l96 96v-256h-256l96 96l-96 96z" />
    <glyph glyph-name="uniF163" unicode="&#xf163;" 
d="M0 448h512v-128h-512v128zM256 192l128 -128h-256zM0 0h512v-64h-512v64z" />
    <glyph glyph-name="uniF119" unicode="&#xf119;" 
d="M254.08 448v0.639648c7.67969 0.640625 14.7197 -2.55957 21.7598 -8.31934c1.28027 -1.28027 136.96 -163.2 154.24 -184.32h81.9199v-64h-64v-234.24c0 -11.5195 -10.2402 -21.7598 -21.7598 -21.7598h-339.84c-11.5205 0 -21.7607 10.2402 -21.7607 21.7598v234.24
h-64v64h81.9199l149.761 179.84c5.12012 7.04004 13.4395 11.5205 21.7598 12.1602zM256 366.08l-92.1602 -110.08h184.32zM160 128c-17.9199 0 -32 -14.0801 -32 -32v-64c0 -17.9199 14.0801 -32 32 -32s32 14.0801 32 32v64c0 17.9199 -14.0801 32 -32 32zM352 128
c-17.9199 0 -32 -14.0801 -32 -32v-64c0 -17.9199 14.0801 -32 32 -32s32 14.0801 32 32v64c0 17.9199 -14.0801 32 -32 32z" />
    <glyph glyph-name="uniF114" unicode="&#xf114;" 
d="M74.2402 384v0.639648l46.0801 -46.0801c-35.2002 -34.5596 -56.3203 -80.6396 -56.3203 -133.76c0 -53.7598 21.7598 -101.76 56.3203 -136.319l-46.0801 -46.0801c-46.7207 46.0801 -74.2402 111.359 -74.2402 181.76c0 70.3994 28.1602 133.76 74.2402 179.84z
M438.4 384v-0.639648c46.7197 -46.0801 74.2393 -109.44 74.2393 -179.841c0 -70.3994 -28.1592 -135.68 -74.2393 -181.76l-46.0801 46.0801c35.1992 35.2002 56.3193 83.2002 56.3193 136.32s-21.7598 99.2002 -56.3193 133.76zM166.4 293.76l44.1592 -46.0801
c-11.5195 -12.1602 -17.9199 -26.2393 -17.9199 -44.1602c0 -17.9199 6.40039 -34.5596 17.9199 -46.0791l-44.1592 -46.0801c-23.04 23.04 -37.7607 56.96 -37.7607 92.1592c0 35.2002 14.7207 67.2002 37.7607 90.2402zM346.24 293.76
c23.04 -23.04 37.7598 -55.04 37.7598 -90.2402c0 -35.1992 -14.7197 -69.1191 -37.7598 -92.1592l-44.1602 46.0801c11.5195 11.5195 17.9199 28.1592 17.9199 46.0791c0 17.9209 -6.40039 32.6406 -17.9199 44.1602z" />
    <glyph glyph-name="uniF142" unicode="&#xf142;" 
d="M0 448h512v-128h-512v128zM128 256h256l-128 -128zM0 0h512v-64h-512v64z" />
  </font>
</defs>
</svg>
