<?xml version="1.0" encoding="UTF-8" standalone="no"?>
<svg width="136px" height="117px" viewBox="0 0 136 117" version="1.1" xmlns="http://www.w3.org/2000/svg" xmlns:xlink="http://www.w3.org/1999/xlink">
    <!-- Generator: Sketch 3.7.2 (28276) - http://www.bohemiancoding.com/sketch -->
    <title>briefcase</title>
    <desc>Created with Sketch.</desc>
    <defs></defs>
    <g id="Page-1" stroke="none" stroke-width="1" fill="none" fill-rule="evenodd">
        <g id="briefcase" transform="translate(-5.000000, -13.000000)" fill="#FF4B9C">
            <path d="M49.9937246,13.5 C45.7778867,13.5 42.2876526,16.9713934 42.2876526,21.1644737 L42.2876526,31.8947368 L13.0045794,31.8947368 C8.78857973,31.8947368 5.29850746,35.3659616 5.29850746,39.5592105 L5.29850746,122.335526 C5.29850746,126.52876 8.78857973,130 13.0045794,130 L133.219301,130 C137.435293,130 140.925373,126.52876 140.925373,122.335526 L140.925373,39.5592105 C140.925373,35.3659616 137.435293,31.8947368 133.219301,31.8947368 L103.936228,31.8947368 L103.936228,21.1644737 C103.936228,16.9713934 100.445994,13.5 96.230156,13.5 L49.9937246,13.5 Z M49.9937246,19.6315789 L96.230156,19.6315789 C97.1372994,19.6315789 97.7713704,20.2622118 97.7713704,21.1644737 L97.7713704,31.8947368 L48.4525102,31.8947368 L48.4525102,21.1644737 C48.4525102,20.2622118 49.0865812,19.6315789 49.9937246,19.6315789 L49.9937246,19.6315789 Z M13.0045794,38.0263158 L133.219301,38.0263158 C134.126599,38.0263158 134.760516,38.6568107 134.760516,39.5592105 L134.760516,70.9356497 C128.872506,72.6618424 122.689925,74.1624238 116.265943,75.390625 L116.265943,71.75 C116.265943,69.825558 114.81959,68.6842105 113.183514,68.6842105 L100.853799,68.6842105 C99.2398857,68.6843638 97.77154,70.1447986 97.7713704,71.75 L97.7713704,78.1210938 C89.7987609,78.9556783 81.558689,79.4144737 73.1119403,79.4144737 C64.6517214,79.4144737 56.4344903,78.9251737 48.4525102,78.0731908 L48.4525102,71.75 C48.4523561,70.1447986 46.9839949,68.6843638 45.3700814,68.6842105 L33.0403664,68.6842105 C31.3623075,68.6842105 29.9579376,70.3684633 29.9579376,71.75 L29.9579376,75.390625 C23.5319367,74.1616726 17.348862,72.660003 11.463365,70.9356497 L11.463365,39.5592105 C11.463365,38.6568107 12.0972819,38.0263158 13.0045794,38.0263158 L13.0045794,38.0263158 Z M36.1227951,74.8157895 L42.2876526,74.8157895 L42.2876526,87.0789474 L36.1227951,87.0789474 L36.1227951,74.8157895 Z M103.936228,74.8157895 L110.101085,74.8157895 L110.101085,87.0789474 L103.936228,87.0789474 L103.936228,74.8157895 Z M11.463365,77.3546464 C17.3776673,79.0204124 23.5590158,80.4382174 29.9579376,81.6180099 L29.9579376,90.1447368 C29.9580917,91.7499382 31.4264529,93.210373 33.0403664,93.2105263 L45.3700814,93.2105263 C46.9839949,93.210373 48.4523561,91.7499382 48.4525102,90.1447368 L48.4525102,84.2526727 C56.4470666,85.0689698 64.6742077,85.5460526 73.1119403,85.5460526 C81.5500274,85.5460526 89.7799735,85.1081659 97.7713704,84.3005757 L97.7713704,90.1447368 C97.77154,91.7499382 99.2398857,93.210373 100.853799,93.2105263 L113.183514,93.2105263 C114.797428,93.210373 116.265773,91.7499382 116.265943,90.1447368 L116.265943,81.6659128 C122.668009,80.4806939 128.840973,79.0308361 134.760516,77.3546464 L134.760516,122.335526 C134.760516,123.237941 134.126599,123.868421 133.219301,123.868421 L13.0045794,123.868421 C12.0972819,123.868421 11.463365,123.237941 11.463365,122.335526 L11.463365,77.3546464 Z"></path>
        </g>
    </g>
</svg>