<?xml version="1.0" encoding="UTF-8" standalone="no"?>
<svg width="56px" height="121px" viewBox="0 0 56 121" version="1.1" xmlns="http://www.w3.org/2000/svg" xmlns:xlink="http://www.w3.org/1999/xlink">
    <!-- Generator: Sketch 3.7.2 (28276) - http://www.bohemiancoding.com/sketch -->
    <title>brush</title>
    <desc>Created with Sketch.</desc>
    <defs></defs>
    <g id="Page-1" stroke="none" stroke-width="1" fill="none" fill-rule="evenodd">
        <g id="brush" transform="translate(-43.000000, -11.000000)" fill="#FF4B9C">
            <path d="M34.8175023,99.1755407 C35.142179,106.666193 25.0741112,110.959757 18.3485028,110.098455 C23.1774493,116.471965 34.9724526,119.619242 42.8719792,119.619242 C54.4719485,119.619242 63.8267611,109.722164 63.8267611,98.1767076 C63.8267611,89.5306719 57.8851627,83.7014337 49.1983079,83.7014337 C40.5114531,83.7014337 34.4429737,90.5347517 34.8175023,99.1755407 Z M120.015752,33.540408 L113.008531,26.5661134 C110.961478,24.528679 107.628455,24.528679 105.581402,26.5661134 L58.5779062,73.3487412 L73.0122571,87.7152657 L120.015752,40.9326378 C122.08905,38.8690825 122.08905,35.5778424 120.015752,33.540408 L120.015752,33.540408 Z" transform="translate(69.959614, 72.328640) rotate(-29.000000) translate(-69.959614, -72.328640) "></path>
        </g>
    </g>
</svg>