<?xml version="1.0" encoding="UTF-8" standalone="no"?>
<svg width="122px" height="142px" viewBox="0 0 122 142" version="1.1" xmlns="http://www.w3.org/2000/svg" xmlns:xlink="http://www.w3.org/1999/xlink">
    <!-- Generator: Sketch 3.7.2 (28276) - http://www.bohemiancoding.com/sketch -->
    <title>bulb</title>
    <desc>Created with Sketch.</desc>
    <defs></defs>
    <g id="Page-1" stroke="none" stroke-width="1" fill="none" fill-rule="evenodd">
        <g id="bulb" transform="translate(-11.000000, -1.000000)" fill="#FF4B9C">
            <g transform="translate(11.000000, 1.000000)">
                <path d="M60.8095238,20.9066667 C39.147381,20.9066667 21.5238095,38.4917867 21.5238095,60.1066667 C21.5238095,74.56624 29.6952381,87.98048 42.4761905,94.7359467 L42.4761905,107.146667 C42.4761905,108.59184 43.6495238,109.76 45.0952381,109.76 L76.5238095,109.76 C77.9721429,109.76 79.1428571,108.59184 79.1428571,107.146667 L79.1428571,94.7359467 C91.9264286,87.9830933 100.095238,74.5688533 100.095238,60.1066667 C100.095238,38.4917867 82.4716667,20.9066667 60.8095238,20.9066667 L60.8095238,20.9066667 Z M75.397619,90.76368 C74.4861905,91.1974933 73.9047619,92.1173867 73.9047619,93.1261333 L73.9047619,104.533333 L47.7142857,104.533333 L47.7142857,93.1261333 C47.7142857,92.1173867 47.1328571,91.2001067 46.2214286,90.7662933 C34.4016667,85.1528533 26.7619048,73.1184533 26.7619048,60.1066667 C26.7619048,41.3742933 42.0361905,26.1333333 60.8095238,26.1333333 C79.5828571,26.1333333 94.8571429,41.3742933 94.8571429,60.1066667 C94.8571429,73.1184533 87.22,85.1554667 75.397619,90.76368 L75.397619,90.76368 Z" id="Fill-1"></path>
                <path d="M76.5238095,114.986667 L45.0952381,114.986667 C43.6495238,114.986667 42.4761905,116.154827 42.4761905,117.6 C42.4761905,119.045173 43.6495238,120.213333 45.0952381,120.213333 L76.5238095,120.213333 C77.9721429,120.213333 79.1428571,119.045173 79.1428571,117.6 C79.1428571,116.154827 77.9721429,114.986667 76.5238095,114.986667 L76.5238095,114.986667 Z" id="Fill-3"></path>
                <path d="M76.5238095,125.44 L45.0952381,125.44 C43.6495238,125.44 42.4761905,126.60816 42.4761905,128.053333 C42.4761905,129.498507 43.6495238,130.666667 45.0952381,130.666667 L76.5238095,130.666667 C77.9721429,130.666667 79.1428571,129.498507 79.1428571,128.053333 C79.1428571,126.60816 77.9721429,125.44 76.5238095,125.44 L76.5238095,125.44 Z" id="Fill-4"></path>
                <path d="M71.2857143,135.893333 L50.3333333,135.893333 C48.887619,135.893333 47.7142857,137.061493 47.7142857,138.506667 C47.7142857,139.95184 48.887619,141.12 50.3333333,141.12 L71.2857143,141.12 C72.7340476,141.12 73.9047619,139.95184 73.9047619,138.506667 C73.9047619,137.061493 72.7340476,135.893333 71.2857143,135.893333 L71.2857143,135.893333 Z" id="Fill-5"></path>
                <path d="M60.8095238,31.36 C59.3638095,31.36 58.1904762,32.5307733 58.1904762,33.9733333 C58.1904762,35.4158933 59.3638095,36.5866667 60.8095238,36.5866667 C73.8078571,36.5866667 84.3809524,47.1393067 84.3809524,60.1066667 C84.3809524,61.5492267 85.5516667,62.72 87,62.72 C88.4483333,62.72 89.6190476,61.5492267 89.6190476,60.1066667 C89.6190476,44.2568 76.6940476,31.36 60.8095238,31.36 L60.8095238,31.36 Z" id="Fill-6"></path>
                <path d="M13.6666667,57.4933333 L3.19047619,57.4933333 C1.7447619,57.4933333 0.571428571,58.6641067 0.571428571,60.1066667 C0.571428571,61.5492267 1.7447619,62.72 3.19047619,62.72 L13.6666667,62.72 C15.112381,62.72 16.2857143,61.5492267 16.2857143,60.1066667 C16.2857143,58.6641067 15.112381,57.4933333 13.6666667,57.4933333 L13.6666667,57.4933333 Z" id="Fill-7"></path>
                <path d="M118.428571,57.4933333 L107.952381,57.4933333 C106.504048,57.4933333 105.333333,58.6641067 105.333333,60.1066667 C105.333333,61.5492267 106.504048,62.72 107.952381,62.72 L118.428571,62.72 C119.876905,62.72 121.047619,61.5492267 121.047619,60.1066667 C121.047619,58.6641067 119.876905,57.4933333 118.428571,57.4933333 L118.428571,57.4933333 Z" id="Fill-8"></path>
                <path d="M60.8095238,15.68 C62.2552381,15.68 63.4285714,14.5092267 63.4285714,13.0666667 L63.4285714,2.61333333 C63.4285714,1.17077333 62.2552381,0 60.8095238,0 C59.3638095,0 58.1904762,1.17077333 58.1904762,2.61333333 L58.1904762,13.0666667 C58.1904762,14.5092267 59.3638095,15.68 60.8095238,15.68 L60.8095238,15.68 Z" id="Fill-9"></path>
                <path d="M25.622619,28.6917867 C26.1333333,29.2013867 26.8038095,29.4574933 27.4742857,29.4574933 C28.1447619,29.4574933 28.8152381,29.2013867 29.3259524,28.6917867 C30.35,27.6699733 30.35,26.0183467 29.3259524,24.9965333 L21.9192857,17.6060267 C20.8952381,16.5842133 19.24,16.5842133 18.2159524,17.6060267 C17.1919048,18.62784 17.1919048,20.2794667 18.2159524,21.30128 L25.622619,28.6917867 L25.622619,28.6917867 Z" id="Fill-10"></path>
                <path d="M95.9964286,91.5215467 C94.972381,90.4997333 93.3171429,90.4997333 92.2930952,91.5215467 C91.2690476,92.54336 91.2690476,94.1949867 92.2930952,95.2168 L99.702381,102.60992 C100.213095,103.11952 100.883571,103.375627 101.554048,103.375627 C102.224524,103.375627 102.895,103.11952 103.405714,102.60992 C104.429762,101.588107 104.429762,99.93648 103.405714,98.9146667 L95.9964286,91.5215467 L95.9964286,91.5215467 Z" id="Fill-11"></path>
                <path d="M99.702381,17.6060267 L92.2930952,24.9965333 C91.2690476,26.0157333 91.2690476,27.6699733 92.2930952,28.6917867 C92.8038095,29.2013867 93.4742857,29.4574933 94.1447619,29.4574933 C94.8152381,29.4574933 95.4857143,29.2013867 95.9964286,28.6917867 L103.405714,21.30128 C104.429762,20.28208 104.429762,18.62784 103.405714,17.6060267 C102.381667,16.5842133 100.72381,16.5842133 99.702381,17.6060267 L99.702381,17.6060267 Z" id="Fill-12"></path>
                <path d="M25.622619,91.5215467 L18.2159524,98.9146667 C17.1919048,99.93648 17.1919048,101.588107 18.2159524,102.60992 C18.7266667,103.11952 19.3971429,103.375627 20.067619,103.375627 C20.7380952,103.375627 21.4085714,103.11952 21.9192857,102.60992 L29.3259524,95.2168 C30.35,94.1949867 30.35,92.54336 29.3259524,91.5215467 C28.3019048,90.4997333 26.6440476,90.4997333 25.622619,91.5215467 L25.622619,91.5215467 Z" id="Fill-13"></path>
            </g>
        </g>
    </g>
</svg>