<?xml version="1.0" encoding="UTF-8" standalone="no"?>
<svg width="142px" height="94px" viewBox="0 0 142 94" version="1.1" xmlns="http://www.w3.org/2000/svg" xmlns:xlink="http://www.w3.org/1999/xlink">
    <!-- Generator: Sketch 3.7.2 (28276) - http://www.bohemiancoding.com/sketch -->
    <title>code_design</title>
    <desc>Created with Sketch.</desc>
    <defs></defs>
    <g id="Page-1" stroke="none" stroke-width="1" fill="none" fill-rule="evenodd">
        <g id="code_design" transform="translate(-1.000000, -25.000000)" fill="#FF4B9C">
            <g transform="translate(1.000000, 21.000000)">
                <path d="M41.8048352,72.0735986 C42.0557172,77.8617259 34.2759868,81.1794201 29.0790194,80.51388 C32.8104108,85.4387764 41.9245674,87.8707198 48.028637,87.8707198 C56.9920881,87.8707198 64.2206767,80.2231151 64.2206767,71.3017869 C64.2206767,64.6208797 59.6295244,60.1165495 52.9170757,60.1165495 C46.204627,60.1165495 41.515432,65.3967456 41.8048352,72.0735986 Z M107.638661,21.3564553 L102.224087,15.9673247 C100.642302,14.392972 98.0668304,14.392972 96.4850449,15.9673247 L60.1648165,52.1168858 L71.3184321,63.2180911 L107.638661,27.06853 C109.240725,25.4739932 109.240725,22.930808 107.638661,21.3564553 L107.638661,21.3564553 Z" id="Page-1" transform="translate(68.959614, 51.328640) rotate(-29.000000) translate(-68.959614, -51.328640) "></path>
                <path d="M45.1169395,78.6854517 L17.3988973,50.6604938 L45.4215333,22.6355359 L36.5883111,14.1062009 L0.037046701,50.6604938 L36.5883111,87.2147868 L45.1169395,78.6854517 L45.1169395,78.6854517 Z M96.8830605,78.6854517 L124.905697,50.6604938 L96.8830605,22.6355359 L105.411689,14.1062009 L141.962953,50.6604938 L105.411689,87.2147868 L96.8830605,78.6854517 L96.8830605,78.6854517 Z" id="code"></path>
            </g>
        </g>
    </g>
</svg>