<?xml version="1.0" encoding="UTF-8" standalone="no"?>
<svg width="121px" height="121px" viewBox="0 0 121 121" version="1.1" xmlns="http://www.w3.org/2000/svg" xmlns:xlink="http://www.w3.org/1999/xlink">
    <!-- Generator: Sketch 3.7.2 (28276) - http://www.bohemiancoding.com/sketch -->
    <title>collaborate</title>
    <desc>Created with Sketch.</desc>
    <defs></defs>
    <g id="Page-1" stroke="none" stroke-width="1" fill="none" fill-rule="evenodd">
        <g id="collaborate" transform="translate(-12.000000, -12.000000)" fill="#FF4B9C">
            <g transform="translate(12.000000, 12.000000)">
                <path d="M26.46875,30.25 C11.9109375,30.25 0,35.3546875 0,41.59375 L0,52.9375 L52.9375,52.9375 L52.9375,41.59375 C52.9375,35.3546875 41.0265625,30.25 26.46875,30.25 L26.46875,30.25 Z" id="Fill-1"></path>
                <path d="M37.8125,11.34375 C37.8125,17.6087519 32.7337292,22.6875 26.46875,22.6875 C20.2037708,22.6875 15.125,17.6087519 15.125,11.34375 C15.125,5.07874812 20.2037708,0 26.46875,0 C32.7337292,0 37.8125,5.07874812 37.8125,11.34375 L37.8125,11.34375 Z" id="Fill-3"></path>
                <path d="M94.53125,98.3125 C79.9734375,98.3125 68.0625,103.417188 68.0625,109.65625 L68.0625,121 L121,121 L121,109.65625 C121,103.417188 109.089062,98.3125 94.53125,98.3125 L94.53125,98.3125 Z" id="Fill-4"></path>
                <path d="M105.875,79.40625 C105.875,85.6712292 100.796252,90.75 94.53125,90.75 C88.2662481,90.75 83.1875,85.6712292 83.1875,79.40625 C83.1875,73.1412481 88.2662481,68.0625 94.53125,68.0625 C100.796252,68.0625 105.875,73.1412481 105.875,79.40625 L105.875,79.40625 Z" id="Fill-5"></path>
                <path d="M30.25,90.75 L22.6875,90.75 C18.5205625,90.75 15.125,87.362 15.125,83.1875 L15.125,68.0625 L0,68.0625 L0,83.1875 C0,95.695875 10.179125,105.875 22.6875,105.875 L30.25,105.875 L30.25,121 L52.9375,98.3125 L30.25,75.625 L30.25,90.75 L30.25,90.75 Z" id="Fill-6"></path>
                <path d="M98.3125,15.125 L90.75,15.125 L90.75,0 L68.0625,22.6875 L90.75,45.375 L90.75,30.25 L98.3125,30.25 C102.487,30.25 105.875,33.6455625 105.875,37.8125 L105.875,52.9375 L121,52.9375 L121,37.8125 C121,25.304125 110.820875,15.125 98.3125,15.125 L98.3125,15.125 Z" id="Fill-7"></path>
            </g>
        </g>
    </g>
</svg>