<?xml version="1.0" encoding="UTF-8" standalone="no"?>
<svg width="134px" height="105px" viewBox="0 0 134 105" version="1.1" xmlns="http://www.w3.org/2000/svg" xmlns:xlink="http://www.w3.org/1999/xlink">
    <!-- Generator: Sketch 3.7.2 (28276) - http://www.bohemiancoding.com/sketch -->
    <title>dual_chat</title>
    <desc>Created with Sketch.</desc>
    <defs>
        <polygon id="path-1" points="133.886719 65.3057574 133.886719 130.611515 0 130.611515 0 65.3057574 0 0 133.886719 0 133.886719 65.3057574"></polygon>
    </defs>
    <g id="Page-1" stroke="none" stroke-width="1" fill="none" fill-rule="evenodd">
        <g id="dual_chat" transform="translate(-5.000000, -20.000000)">
            <g transform="translate(5.000000, 20.000000)">
                <mask id="mask-2" fill="white">
                    <use xlink:href="#path-1"></use>
                </mask>
                <g id="Clip-2"></g>
                <path d="M97.514792,25 C96.7087939,25 95.9242044,25.0575713 95.1316084,25.0990762 C95.9429619,28.8090771 96.4088877,32.8042568 96.4088877,37.1716416 C96.4088877,51.9781738 85.0619883,67.1475391 72,79.7208408 L105.261478,104.666628 L105.261478,85.8555437 C122.380233,82.9729492 134.027039,70.9231445 134.027039,55.9840645 C134.027039,38.9081523 118.267233,25 97.514792,25 L97.514792,25 Z" id="Fill-1" fill="#FF4B9C" mask="url(#mask-2)"></path>
                <path d="M45.3675146,0 C20.5569668,0 0,16.8067998 0,37.622168 C0,55.8361172 16.0463232,70.6198887 36.5135859,74.134415 L36.5135859,98.4817148 C36.5135859,98.4817148 89.6277861,66.7786787 89.6277861,36.5162637 C89.6277861,12.8464307 70.1767236,0 45.3675146,0 L45.3675146,0 Z M43.1530283,85.2001523 L43.1530283,68.6075713 C26.0985381,65.7450732 7.74534668,55.4639121 7.74534668,37.622168 C7.74534668,20.7095977 24.6913887,6.64078125 45.3675146,6.64078125 C66.0436406,6.64078125 81.8811006,17.3128916 81.8811006,36.5149248 C81.8811006,59.3171719 43.1530283,85.2001523 43.1530283,85.2001523 L43.1530283,85.2001523 Z" id="Fill-3" fill="#FF4B9C" mask="url(#mask-2)"></path>
            </g>
        </g>
    </g>
</svg>