<?xml version="1.0" encoding="UTF-8" standalone="no"?>
<svg width="480px" height="154px" viewBox="0 0 480 154" version="1.1" xmlns="http://www.w3.org/2000/svg" xmlns:xlink="http://www.w3.org/1999/xlink">
    <!-- Generator: Sketch 3.7.2 (28276) - http://www.bohemiancoding.com/sketch -->
    <title>funderoo_logo</title>
    <desc>Created with Sketch.</desc>
    <defs>
        <path d="M32.5250402,139.139849 C36.6672665,137.596431 40.8255209,136.097893 44.9949561,134.645847 C45.3246263,134.529584 45.6567752,134.415795 45.9889241,134.299532 C52.7395235,125.500721 59.7966471,116.865726 67.158918,108.413784 C74.0148586,118.786819 88.859796,127.820512 109.273459,126.493821 C123.474066,125.442505 133.5823,121.192716 140.145959,115.070347 L151.702683,104.292761 C152.358541,107.426759 153.013117,110.560844 153.666652,113.695968 C153.753407,114.111547 153.840162,114.527126 153.926918,114.942705 C158.973599,114.358916 162.959386,113.943337 166.940216,113.562389 C173.186599,108.469074 178.473716,103.588495 183.877333,98.7895474 C184.695311,102.618811 185.538077,106.4456 186.346141,110.274863 C186.44529,110.744863 186.544439,111.209916 186.643588,111.679916 C187.023915,111.56999 187.405469,111.463667 187.787023,111.354874 C189.271841,110.01259 190.766517,108.677585 192.271006,107.349936 C190.805365,108.674389 189.283428,110.002758 187.786279,111.355863 C192.054641,110.121495 196.337875,108.931653 200.643418,107.791284 C202.465475,106.224655 204.30166,104.668683 206.151898,103.123576 C204.302035,104.66899 202.465746,106.22481 200.643418,107.791284 C203.209039,106.168678 204.811263,104.813911 206.42417,103.467384 C211.413287,109.663554 216.867017,110.783695 222.088093,111.439474 C223.020093,111.565632 223.90004,111.587895 224.730412,111.531 C227.536327,111.382579 229.729998,110.425263 231.58904,109.648526 C233.651338,108.879211 235.721072,108.124737 237.798242,107.382632 C241.221967,105.086807 243.952193,103.073639 246.709787,101.083946 C247.54174,101.938854 248.42598,102.754959 249.360743,103.530116 C255.304722,108.284537 259.967201,109.333379 265.893828,109.385326 C271.513094,109.462011 275.407169,108.865853 280.111786,105.830642 C285.951042,102.083153 291.901346,98.4423037 297.961214,94.9117942 C298.009766,97.7015985 298.055162,100.490595 298.097403,103.278542 C298.097403,103.4517 298.10236,103.619911 298.10236,103.793068 C298.756743,104.609384 299.128552,105.062068 299.497882,105.517226 C301.069392,107.362595 306.259839,109.042226 309.648254,109.324226 C311.846882,109.324226 312.959828,109.292068 314.075254,109.259911 C324.679655,103.903274 334.563851,98.8293871 344.713812,94.0576672 C345.099936,94.7774671 345.514543,95.4822318 345.956594,96.1691737 C349.811009,102.177753 355.286509,106.197489 361.178435,107.342805 C365.352605,108.062647 368.750935,107.632226 371.998062,106.239542 C378.776761,103.33777 385.690063,100.596361 392.7312,98.0220727 C395.849033,103.628838 400.559454,107.60818 405.882211,109.105553 C409.751499,110.117289 412.988711,110.001026 416.161477,108.986816 C426.376296,105.731447 436.846424,102.837237 447.561945,100.323974 C448.905414,100.012289 450.499233,99.4680789 452.073222,98.6987632 C457.732148,95.9084474 462.454116,90.6023947 464.863435,84.0149737 C470.663648,68.4604474 461.373392,59.9485 451.225499,54.0388684 C450.117509,53.4031316 448.964903,52.8886053 447.780073,52.4952895 C444.069424,51.3178158 440.014233,51.4217105 436.120158,52.8613947 C435.277392,53.1755526 434.451977,53.5466053 433.648871,53.9696053 C434.451977,53.5466053 435.277392,53.1755526 436.120158,52.8613947 C436.881126,52.5868158 437.666882,52.3493421 438.450158,52.1588684 C432.140172,53.6312354 425.909337,55.223237 419.758935,56.9314574 C416.470773,50.8453259 410.278075,46.8013344 403.864531,43.6924368 C402.630126,43.1061737 401.36102,42.6510158 400.067126,42.3343842 C396.026807,41.3943842 391.741094,41.8742789 387.757786,43.7864368 C388.536105,43.4178579 389.339211,43.0913316 390.15719,42.8167526 C385.228858,44.4465017 380.355088,46.1494332 375.536613,47.9233537 C376.183753,46.3243494 376.833716,44.7267775 377.485956,43.1309105 C377.61485,42.8068579 377.751179,42.4803316 377.887509,42.1562789 C377.587584,41.9583842 377.290137,41.7629632 376.990211,41.5675421 C375.968977,40.8848053 374.942786,40.2045421 373.916594,39.5267526 C370.778531,37.4909105 367.987488,36.2887 364.849424,35.7197526 C363.057307,35.4154895 361.170999,35.3041737 359.039296,35.3536474 C356.600233,35.4649632 354.401605,35.8459105 352.378967,36.4915421 C352.393839,34.4284895 352.406233,32.3654368 352.416148,30.2999105 C352.416148,29.7804368 352.421105,29.2609632 352.426062,28.7390158 C351.917924,28.8206474 351.414743,28.9022789 350.906605,28.9839105 C346.544052,29.6592263 342.201328,30.3790684 337.878435,31.1459105 C333.50144,32.7978927 330.051122,34.3305946 326.627941,35.8943447 C323.913948,32.8775137 320.273815,30.7077287 315.864892,29.6584842 C314.950243,29.4333789 314.030637,29.2058 313.115988,28.9831684 C307.987509,27.7834316 305.22869,27.1625368 302.816892,26.9399053 C300.424924,26.7469579 298.377499,26.9349579 294.733775,27.4272211 C290.205148,28.1223263 286.442445,29.6065368 283.277116,31.8427474 C284.062871,31.2886421 284.883328,30.7741158 285.743445,30.3140105 C280.84228,32.9447363 276.00226,35.6399367 271.224293,38.3973442 C271.345337,34.1169283 271.467636,29.8367749 271.589935,25.5556316 C271.67669,17.6423158 271.765924,9.72405263 271.852679,1.80826316 L271.867552,0 C271.280094,0.150894737 270.695116,0.301789474 270.112616,0.455157895 C265.286541,1.72663158 260.490211,3.05252632 255.726105,4.43284211 C242.321912,11.8959474 230.151381,19.5074737 218.40471,27.4925263 C218.409668,27.7918421 218.417104,28.0886842 218.422061,28.3855263 C218.496093,30.6299562 218.57037,32.8741416 218.645199,35.1181593 C213.62822,30.8403633 208.378974,29.0753742 201.637386,29.2320211 C196.332918,29.5362842 192.904843,30.4639158 189.955162,32.0940737 C189.709769,30.9042316 189.459418,29.7143895 189.209067,28.5245474 C189.10496,28.0026 189.003333,27.4781789 188.899226,26.9537579 C188.428269,27.1244421 187.954833,27.2951263 187.483875,27.4658105 C183.760833,28.8040737 180.05762,30.1769684 176.374237,31.5820211 C173.417129,33.544922 171.340034,35.1983941 169.277974,36.8638235 C169.245362,36.6370866 169.21961,36.4758189 169.201555,36.3874 C168.854534,34.6830316 168.073736,33.4486632 166.37581,33.5797684 C165.247991,33.4461895 164.747289,33.3398211 164.159832,33.3794 C162.613108,33.5030842 130.278161,37.0008737 124.197853,37.4609789 C116.647661,37.9507684 86.4245869,38.9996105 84.7043529,39.1109263 C84.1243316,39.1505053 83.5443103,39.3805579 83.2121614,39.8629263 C83.2741295,39.7714 77.2238185,45.3996243 77.2238185,45.3996243 C73.143339,46.3056368 69.1897752,47.2604789 65.2362114,48.2128474 C71.2322433,42.2364263 77.3695624,36.3515316 83.6803922,30.5927947 C83.6010731,30.1920579 83.5192752,29.7888474 83.4374773,29.3831632 C82.2551263,23.0752684 81.0752539,16.7673737 79.900339,10.4594789 C79.8036688,9.95979474 79.7094773,9.46011053 79.6152858,8.96042632 C79.1344135,9.08163684 78.6535412,9.20284737 78.1701901,9.32653158 C71.9932114,10.8800053 65.8410199,12.5175842 59.7111369,14.2367947 C55.9707433,15.5602158 52.2427433,16.9157947 48.5296156,18.3010579 C42.8558178,19.7852684 37.199371,21.3362684 31.5627539,22.9590053 C31.1909454,23.0678474 30.8191369,23.1742158 30.4473284,23.2805842 C20.1135305,33.9001105 10.2432539,44.8239 0.836498611,56.0173211 C0.948041164,56.4081632 1.05710499,56.7990053 1.16616882,57.1873737 C3.36727521,65.1130579 5.58077521,73.0362684 7.81162627,80.9594789 C9.36330712,85.7757421 10.9224241,90.5895316 12.4815412,95.4033211 C13.9910837,100.501584 15.503105,105.599847 17.017605,110.695637 C18.8642539,115.727111 20.7109029,120.761058 22.5525944,125.795005 C24.7537007,130.225374 26.9424135,134.660689 29.1187327,139.096005 C29.301835,139.466404 29.4898774,139.839268 29.6729972,140.214597 C30.2237549,139.995972 31.8899238,139.376497 32.5250402,139.139849 Z" id="path-1"></path>
        <mask id="mask-2" maskContentUnits="userSpaceOnUse" maskUnits="objectBoundingBox" x="-7" y="-7" width="479.816913" height="154.214597">
            <rect x="-6.16350139" y="-7" width="479.816913" height="154.214597" fill="white"></rect>
            <use xlink:href="#path-1" fill="black"></use>
        </mask>
    </defs>
    <g id="Page-1" stroke="none" stroke-width="1" fill="none" fill-rule="evenodd">
        <g id="WeChat-Copy" transform="translate(-261.000000, -214.000000)">
            <g id="funderoo_logo" transform="translate(267.000000, 221.000000)">
                <g id="Background">
                    <use fill="#FFFFFF" fill-rule="evenodd" xlink:href="#path-1"></use>
                    <use stroke="#FFFFFF" mask="url(#mask-2)" stroke-width="14" stroke-linejoin="bevel" xlink:href="#path-1"></use>
                </g>
                <g id="Logo">
                    <path d="M464.729585,76.4919123 C464.858755,73.4750351 464.267553,70.8119123 463.169606,68.4427544 C464.267553,70.8119123 464.858755,73.4725439 464.729585,76.4919123 M458.410181,92.0919825 C460.419771,89.7651754 462.046819,86.9899474 463.144766,83.9107895 C462.046819,86.9924386 460.419771,89.7651754 458.410181,92.0919825 M447.602112,99.0001579 C448.046755,98.8905439 448.488915,98.7535263 448.931074,98.6065439 C448.488915,98.7560175 448.046755,98.8880526 447.602112,99.0001579 M449.581894,98.3848246 C450.192968,98.1531404 450.804043,97.8990351 451.410149,97.5975965 C450.806527,97.8965439 450.195452,98.1531404 449.581894,98.3848246 M445.108133,101.461491 C445.212463,101.451526 445.316793,101.429105 445.421122,101.416649 C445.316793,101.429105 445.212463,101.451526 445.108133,101.461491 M439.904064,101.207386 C440.132596,101.252228 440.358644,101.284614 440.587176,101.319491 C440.358644,101.284614 440.132596,101.252228 439.904064,101.207386 M442.263904,101.496368 C442.465112,101.508825 442.666319,101.528754 442.867527,101.533737 C442.666319,101.528754 442.465112,101.508825 442.263904,101.496368 M442.656383,54.1231754 C442.39059,54.1256667 442.11983,54.1331404 441.851553,54.1480877 C442.122314,54.1331404 442.39059,54.1256667 442.656383,54.1231754 M444.293367,54.2103684 C444.551707,54.2377719 444.810048,54.2527193 445.065904,54.2900877 C444.810048,54.2527193 444.551707,54.2377719 444.293367,54.2103684 M439.439548,54.457 C439.650691,54.4146491 439.861835,54.3897368 440.072979,54.3548596 C439.861835,54.3897368 439.650691,54.4146491 439.439548,54.457 M451.3555,54.4221228 C450.245133,53.7818772 449.090053,53.2637018 447.902681,52.8675965 C444.184069,51.6817719 440.120176,51.7864035 436.217745,53.2362982 C435.37317,53.5526842 434.545984,53.9263684 433.741154,54.3523684 C434.545984,53.9263684 435.37317,53.5526842 436.217745,53.2362982 C436.980346,52.9597719 437.767787,52.720614 438.552745,52.5287895 C427.195702,55.1919123 416.094516,58.2436667 405.256638,61.6641228 C404.503973,61.9107544 403.766213,62.1972456 403.038388,62.5310702 C396.614654,65.5255263 391.599372,72.0899123 389.80341,79.5187544 C388.372601,85.6895263 389.420867,92.5055263 392.496112,98.2752105 C395.616069,104.154509 400.442564,108.332298 405.91491,109.879351 C406.123569,109.95907 406.352101,110.016368 406.585601,110.066193 C409.7925,110.898263 413.03666,110.781175 416.216234,109.759772 C426.452973,106.481316 436.945569,103.566579 447.684085,101.035491 C447.597144,101.055421 447.510202,101.057912 447.423261,101.077842 C449.030436,100.721596 450.627676,100.173526 452.205043,99.3987544 C457.876112,96.5886491 462.608213,91.2449649 465.022702,84.6108246 C470.835362,68.9459825 461.52517,60.3736667 451.3555,54.4221228" id="Fill-1" fill="#1F3E63"></path>
                    <path d="M440.900165,85.1504246 C443.868596,85.7657579 451.049963,86.6501439 453.305473,80.0234772 C455.392069,73.8776175 448.831713,68.6460386 443.8835,66.7302842 C443.744394,66.6854421 443.607771,66.6406 443.486053,66.5907754 C439.31783,65.275407 435.36075,68.6535123 433.880261,72.7615474 C432.928872,75.3001088 433.11766,77.9607404 434.369617,80.2850561 C435.544569,82.5196877 437.534287,84.1514421 439.93884,84.8963193 C440.244378,85.0059333 440.564819,85.0906351 440.900165,85.1504246 M450.351947,56.1550211 C459.759016,61.6780737 468.418388,69.5553368 463.144766,83.909793 C460.946388,90.0706 456.629122,95.0057228 451.407665,97.5966 C447.120207,99.7241088 442.621606,100.120214 438.2795,98.7326 C438.060904,98.6753018 437.852245,98.6055474 437.653521,98.5233368 C432.506585,96.7570561 428.092441,92.6091614 425.364963,87.0313018 C422.702069,81.5755123 422.004053,75.3075825 423.628617,69.8717228 C425.705277,63.1678281 430.760303,57.4728807 437.005186,55.1510561 C440.477878,53.8581088 444.067319,53.7659333 447.343771,54.8072667 C448.382101,55.1510561 449.380686,55.6019684 450.351947,56.1550211" id="Fill-2" fill="#FFFFFF"></path>
                    <path d="M423.638553,89.1523333 L397.245601,100.051456" id="Stroke-3" stroke="#FFFFFF" stroke-width="0.25"></path>
                    <path d="M421.465016,83.5470702 L394.140548,96.0032105" id="Stroke-4" stroke="#FFFFFF" stroke-width="0.75"></path>
                    <path d="M419.701346,71.8791544 C420.021787,70.0107333 420.133569,68.2643825 420.064016,66.6301368 C420.133569,68.2643825 420.021787,70.0107333 419.701346,71.8791544 M412.467814,86.8389789 C415.508282,83.627786 417.850734,79.4823825 419.062947,74.7789439 C407.472404,78.0947684 396.172495,81.836593 385.180606,85.977014 C385.046468,86.6621018 384.872585,87.3297509 384.693734,87.9949088 C383.707569,87.1055404 382.771085,86.1289789 381.90167,85.0577509 C383.116367,84.5918912 384.32858,84.1110842 385.553213,83.6551895 C385.451367,84.4125228 385.344553,85.1748386 385.180606,85.977014 C396.167527,81.836593 407.472404,78.0947684 419.062947,74.7789439 C417.850734,79.4823825 415.508282,83.627786 412.467814,86.8389789 M404.029521,92.4691544 C404.499005,92.3047333 404.961037,92.1154 405.425553,91.9086281 C404.961037,92.1154 404.499005,92.3022421 404.029521,92.4691544 M406.0565,91.6271193 C406.684963,91.3206982 407.308457,90.9893649 407.9245,90.6057158 C407.310941,90.9868737 406.684963,91.3206982 406.0565,91.6271193 M401.622484,95.3515053 C401.741718,95.3290842 401.855984,95.2917158 401.975218,95.2692947 C401.855984,95.2917158 401.741718,95.3290842 401.622484,95.3515053 M398.629213,95.6479614 C398.845324,95.6429789 399.061436,95.6454702 399.277548,95.633014 C399.061436,95.6454702 398.845324,95.6429789 398.629213,95.6479614 M396.122814,95.5532947 C396.36625,95.5806982 396.609686,95.5956456 396.855606,95.610593 C396.609686,95.5956456 396.36625,95.5806982 396.122814,95.5532947 M397.198404,44.4258211 C396.935096,44.4083825 396.671787,44.4158561 396.403511,44.4108737 C396.671787,44.4158561 396.935096,44.4083825 397.198404,44.4258211 M402.986223,45.9629088 C401.908149,45.4546982 400.80275,45.0561018 399.674995,44.7820667 C400.797782,45.0561018 401.913117,45.452207 402.986223,45.9629088 M377.817904,63.5235754 C377.167085,63.770207 376.511298,64.0043825 375.867931,64.251014 C375.917612,63.9097158 375.94742,63.5634351 376.014489,63.2246281 C376.074106,62.9331544 376.173468,62.6541368 376.243021,62.3651544 C376.782059,62.7363474 377.308676,63.1224877 377.817904,63.5235754 M391.259059,45.1233649 C391.48759,45.0511193 391.713638,45.0062772 391.944654,44.9439965 C391.713638,45.003786 391.48759,45.0536105 391.259059,45.1233649 M393.78533,44.5678211 C394.073479,44.5279614 394.35666,44.4930842 394.63984,44.4681719 C394.35666,44.4930842 394.070995,44.5279614 393.78533,44.5678211 M403.892899,44.0023123 C402.655846,43.4118912 401.384016,42.9535053 400.087346,42.6346281 C396.038356,41.6879614 391.743447,42.1712596 387.75159,44.0969789 C388.53158,43.725786 389.33641,43.3969439 390.156144,43.1204175 C378.38675,47.0316456 366.927862,51.3614 355.789415,56.079786 C355.01191,56.4136105 354.254277,56.7947684 353.521484,57.2232596 C347.010809,61.0622421 342.348261,68.6380667 341.190697,76.8416807 C340.281537,83.650207 342.057628,90.9121368 345.860697,96.8512246 C349.723383,102.902418 355.210633,106.950663 361.115202,108.104102 C361.35367,108.1614 361.594622,108.206242 361.843027,108.241119 C365.29833,108.829049 368.703952,108.395575 371.958048,106.993014 C382.428287,102.488874 393.218968,98.3683825 404.30525,94.6564526 C404.208372,94.6888386 404.109011,94.7012947 404.012133,94.7336807 C405.678926,94.2005579 407.323362,93.4606632 408.923085,92.4766281 C414.643835,88.9291193 419.154856,82.7359263 421.109798,75.3643825 C425.831963,57.9407333 415.205229,49.5129088 403.892899,44.0023123" id="Fill-5" fill="#1F3E63"></path>
                    <path d="M395.698043,78.1316386 C398.890037,78.5202702 406.540888,78.8192175 408.321947,71.4676035 C409.961415,64.6466211 402.549032,59.5919193 397.138787,57.9726211 C396.984777,57.9352526 396.838218,57.9003754 396.701596,57.8580246 C392.165734,56.8142 388.280691,60.8200947 387.120644,65.4014632 C386.358043,68.229007 386.80517,71.0814632 388.347761,73.4805158 C389.783537,75.7799193 392.044016,77.3593579 394.654745,77.9497789 C394.99009,78.0344807 395.335372,78.0942702 395.698043,78.1316386 M402.986223,45.9624105 C413.463915,51.0769018 423.333016,58.8146561 419.062947,74.7784456 C417.296793,81.6193579 413.188186,87.3317439 407.9245,90.6052175 C403.59233,93.2932526 398.890037,94.1303053 394.185261,93.0341649 C393.951761,92.991814 393.723229,92.937007 393.504633,92.8647614 C387.915537,91.4347965 382.875415,87.3666211 379.474761,81.5994281 C376.146144,75.9543053 374.812213,69.2479193 376.014489,63.2266211 C377.567016,55.787814 382.376122,49.1686211 388.750176,46.0869719 C392.317261,44.3754982 396.100457,43.9494982 399.677479,44.7815684 C400.80275,45.0580947 401.908149,45.4542 402.986223,45.9624105" id="Fill-6" fill="#FFFFFF"></path>
                    <path d="M376.75225,82.6128596 L349.427782,96.314614" id="Stroke-7" stroke="#FFFFFF" stroke-width="0.75"></path>
                    <path d="M378.304777,86.3497018 L352.22233,99.4286491" id="Stroke-8" stroke="#FFFFFF" stroke-width="0.25"></path>
                    <path d="M344.601287,91.8139614 C344.30817,91.7716105 343.987729,91.7068386 343.672255,91.6445579 L343.672255,91.6420667 C343.990213,91.7068386 344.30817,91.7716105 344.601287,91.8139614 M376.96091,41.8623474 C375.937484,41.1747684 374.90909,40.4896807 373.880697,39.8070842 C370.735899,37.7568035 367.938867,36.5460667 364.794069,35.9730842 C362.998106,35.6666632 361.10775,35.5545579 358.971473,35.6043825 C356.527176,35.7164877 354.32383,36.1001368 352.296851,36.7503474 C352.311755,34.6726632 352.324176,32.5949789 352.334112,30.5148035 C352.334112,29.9916456 352.33908,29.4684877 352.344048,28.9428386 C351.834819,29.0250491 351.330559,29.1072596 350.82133,29.1894702 C346.449415,29.8695754 342.097372,30.5945228 337.765202,31.3668035 C337.464633,31.4166281 337.164064,31.4664526 336.863495,31.5187684 C323.822271,37.1763474 311.158622,43.2798561 298.884968,49.7994 C298.875032,50.115786 298.865096,50.4321719 298.85516,50.7460667 C311.111426,44.2240316 323.757686,38.1155404 336.781521,32.4529789 C323.757686,38.1155404 311.111426,44.2240316 298.85516,50.7460667 C298.661404,57.412593 298.462681,64.0791193 298.254021,70.7431544 C298.045362,75.4391193 297.836702,80.1350842 297.623074,84.8285579 C297.60817,85.1225228 297.593266,85.4164877 297.578362,85.7104526 C297.70008,91.8139614 297.806894,97.9149789 297.898803,104.011014 C297.898803,104.1854 297.903771,104.354804 297.903771,104.529189 C297.995681,104.648768 298.092559,104.770839 298.189436,104.890418 C298.559559,105.351295 298.932165,105.807189 299.302287,106.265575 C303.984707,103.477891 308.751585,100.7774 313.570628,98.1267333 L313.570628,98.1416807 C309.501766,100.381295 305.465197,102.658277 301.490729,104.995049 C300.765388,105.421049 300.025144,105.834593 299.302287,106.265575 C300.87717,108.124032 306.078755,109.815575 309.474441,110.099575 C309.8545,110.136944 310.222138,110.1494 310.562452,110.134453 C311.677787,110.099575 312.793122,110.067189 313.910941,110.034804 L314.909527,110.034804 C326.301346,103.652277 338.080676,97.6683474 350.230128,92.1154 C350.277324,91.7417158 350.322037,91.3605579 350.369234,90.9868737 C351.531766,82.5316456 352.686846,74.0739263 353.84441,65.616207 C359.756431,63.0950842 365.742973,60.6586632 371.813973,58.3343474 L372.206452,57.1883825 C372.603899,55.9651895 373.00383,54.7395053 373.401277,53.5163123 C374.740176,50.1506632 376.093979,46.7899965 377.457718,43.4368035 C377.586888,43.1104526 377.723511,42.7816105 377.860133,42.4552596 C377.559564,42.2559614 377.261479,42.0591544 376.96091,41.8623474" id="Fill-9" fill="#1F3E63"></path>
                    <path d="M300.887106,104.493814 C301.018761,104.650761 301.232388,104.820165 301.488245,104.994551 C312.077718,98.7689719 322.995085,92.8697439 334.257734,87.3566561 C334.11366,87.1673228 333.969585,86.9779895 333.830479,86.7886561 C322.515665,92.3341298 311.523777,98.2333579 300.887106,104.493814" id="Fill-10" fill="#FFFFFF"></path>
                    <path d="M349.815293,31.9355509 C349.805356,34.1402877 349.790452,36.3425333 349.775548,38.5422877 C349.77058,39.2199018 349.765612,39.8975158 349.763128,40.5726386 C350.359298,40.3110596 350.9505,40.0519719 351.54667,39.790393 C353.799697,38.8213053 356.291191,38.2782175 359.182617,38.1611298 C361.09533,38.1113053 362.804351,38.2134456 364.418979,38.4849895 C367.243335,38.9981825 369.75967,40.0868491 372.588995,41.9353404 C373.311851,42.4111649 374.029739,42.8894807 374.752596,43.3653053 C373.520511,46.4295158 372.30333,49.4987088 371.093601,52.5728842 C370.812904,53.4323579 370.537176,54.2918316 370.256479,55.148814 C368.202176,54.4562526 366.145388,53.7686737 364.088601,53.0910596 C363.070144,52.7223579 362.337351,52.4632702 361.639335,52.3287439 C361.043165,52.2365684 360.459415,52.2290947 359.746495,52.3137965 C356.248963,52.7696912 354.224468,54.2494807 352.552707,57.5229544 C352.522899,57.5852351 352.49309,57.650007 352.463282,57.7147789 C352.45583,57.7895158 352.445894,57.8667439 352.440926,57.9414807 C351.047378,68.4569544 349.656314,78.9724281 348.247862,89.4829193 C347.433096,89.4455509 346.61833,89.4106737 345.803564,89.3782877 C345.478154,89.3757965 345.132872,89.3409193 344.785106,89.2786386 C341.578207,88.8177614 336.91566,86.8995158 335.996564,85.7112 C335.745676,85.3674105 335.487335,85.0236211 335.236447,84.6773404 C335.482367,78.8528491 335.720835,73.0233754 335.944399,67.1914105 C335.974207,66.9422877 336.001532,66.6931649 336.03134,66.4415509 C336.520697,61.8028842 337.012537,57.1642175 337.501894,52.5255509 C338.068255,46.2626035 338.632133,39.9996561 339.196011,33.7367088 C342.718383,33.1064281 346.258144,32.5060421 349.815293,31.9355509" id="Fill-11" fill="#FFFFFF"></path>
                    <path d="M324.599777,58.933986 C326.567138,59.0386175 328.532016,59.1158456 330.496894,59.2379158 C328.529532,59.1158456 326.567138,59.0386175 324.599777,58.933986 M309.948894,88.2059158 C310.29666,88.0938105 310.649394,87.9692491 311.002128,87.8347228 C310.649394,87.9692491 310.29666,88.0938105 309.948894,88.2059158 M308.133059,88.6991789 C308.47834,88.6219509 308.823622,88.5372491 309.173872,88.4400912 C308.823622,88.5372491 308.47834,88.6219509 308.133059,88.6991789 M306.352,89.0205474 C306.694798,88.973214 307.037596,88.9258807 307.37791,88.8611088 C307.037596,88.9233895 306.692314,88.973214 306.352,89.0205474 M304.570941,89.1899509 C304.916223,89.1700211 305.259021,89.1500912 305.601819,89.115214 C305.259021,89.1500912 304.913739,89.1700211 304.570941,89.1899509 M311.816894,87.5108632 C312.167144,87.3638807 312.524846,87.1994596 312.880064,87.0300561 C312.524846,87.1994596 312.167144,87.3638807 311.816894,87.5108632 M277.837676,37.2030035 C278.418941,36.4282316 279.039952,35.6983018 279.698223,35.0107228 C279.039952,35.6983018 278.418941,36.4307228 277.837676,37.2030035 M282.880282,32.2031088 C281.993479,32.8433544 281.166293,33.5608281 280.373883,34.3256351 C281.166293,33.5608281 281.993479,32.8458456 282.880282,32.2031088 M290.851574,31.1518105 C291.03291,31.0945123 291.221697,31.0496702 291.405516,30.9973544 C291.221697,31.0496702 291.03291,31.0945123 290.851574,31.1518105 M287.378883,32.5618456 C287.545314,32.4771439 287.714229,32.3974246 287.885628,32.3177053 C287.714229,32.3974246 287.545314,32.4771439 287.378883,32.5618456 M302.536511,29.7019158 C301.696904,29.6321614 300.911947,29.6197053 300.079793,29.6520912 C300.911947,29.6197053 301.696904,29.6321614 302.536511,29.7019158 M312.487585,31.692407 C309.640872,31.0222667 307.574149,30.5489333 305.899904,30.2200912 C307.574149,30.5464421 309.643356,31.0197754 312.487585,31.692407 M303.776048,89.2298105 L303.820761,89.2298105 C303.805856,89.2298105 303.788468,89.2323018 303.77108,89.2323018 C303.773564,89.2323018 303.773564,89.2298105 303.776048,89.2298105 M277.082527,38.2144421 C277.179404,38.0699509 277.28125,37.9329333 277.380612,37.7934246 C277.29367,37.9130035 277.229085,38.0550035 277.144628,38.1795649 C277.124755,38.1895298 277.104883,38.201986 277.082527,38.2144421 M276.749665,51.7393193 C275.902606,52.2325825 275.070452,52.740793 274.228362,53.2365474 C274.315303,52.6037754 274.422117,51.9685123 274.546319,51.3282667 C274.8295,51.3780912 275.090324,51.4254246 275.390894,51.4802316 C275.842989,51.5649333 276.297569,51.6546175 276.749665,51.7393193 M329.565378,53.6650386 C330.017473,45.5934596 327.073883,38.9294246 321.566761,35.1427579 C327.073883,38.9294246 330.022441,45.5909684 329.565378,53.6650386 M315.70442,29.8688281 C314.787809,29.6421263 313.866229,29.4129333 312.949617,29.1887228 C307.810133,27.9804772 305.045394,27.3551789 302.62842,27.1309684 C300.231319,26.9366526 298.1795,27.125986 294.527957,27.6217404 C294.458404,27.6317053 294.391335,27.6416702 294.324266,27.6516351 C289.989612,28.3217754 286.218835,29.8165123 283.046713,32.0685825 C283.834154,31.5105474 284.656372,30.9923719 285.518335,30.5290035 C273.048441,37.2553193 260.973511,44.4001614 249.308447,51.9261614 C243.060831,55.9644421 239.12114,62.7480561 237.710204,71.8335649 C235.638512,85.2139509 239.960746,96.6835649 249.057559,104.264372 C255.014293,109.052512 259.686777,110.108793 265.626122,110.161109 C265.946564,110.176056 266.279426,110.173565 266.624707,110.161109 C271.257447,110.238337 275.159878,109.637951 279.87459,106.581214 C290.898771,99.4712491 302.317915,92.7424421 314.122085,86.4197053 C314.002851,86.4844772 313.891069,86.5293193 313.776803,86.5916 C314.340681,86.2951439 314.912011,85.991214 315.505697,85.6349684 C318.595846,83.8936 320.347096,81.8582667 322.056117,79.8603018 C324.567484,77.1523368 327.111144,74.4643018 329.687096,71.7986877 C330.176452,71.287986 330.665809,70.7797754 331.162617,70.2715649 L329.182835,69.6363018 C326.892548,68.896407 324.597293,68.1664772 322.297069,67.4490035 C320.747027,67.0180211 319.189532,66.6069684 317.634521,66.1859509 C322.267261,63.8417053 326.929809,61.5373193 331.671846,59.3151439 C331.694202,58.9040912 331.724011,58.4905474 331.748851,58.0794947 C331.830824,56.6868982 331.90783,55.2943018 331.987319,53.899214 C332.727564,41.8167579 326.527394,32.457214 315.70442,29.8688281" id="Fill-12" fill="#1F3E63"></path>
                    <path d="M296.890282,40.7497649 C296.574809,40.8568877 296.264303,40.9640105 295.94883,41.0711333 C296.003479,41.417414 296.050676,41.7612035 296.105324,42.104993 C296.244431,43.0541509 296.381053,44.0033088 296.522644,44.9524667 C296.56984,45.3037298 296.624489,45.654993 296.671686,46.0062561 C297.002064,46.0411333 297.332441,46.0710281 297.662819,46.103414 C298.666372,46.2130281 299.669926,46.3226421 300.673479,46.4347474 C300.752968,46.4596596 300.83991,46.452186 305.986846,46.5867123 L306.977979,46.6315544 C307.045048,46.2977298 307.107149,45.9639053 307.176702,45.6300807 C307.360521,44.7033439 307.549309,43.776607 307.733128,42.8498702 C307.797713,42.5160456 307.864782,42.1822211 307.926883,41.8483965 C307.631282,41.6964316 307.335681,41.5469579 307.04008,41.394993 C305.502457,40.6152386 304.113878,40.1693088 302.658229,39.9874491 C302.52409,39.9799754 302.387468,39.9700105 302.26575,39.9450982 C300.63125,39.8155544 298.85516,40.0746421 296.890282,40.7497649 M314.318324,67.916607 C316.782495,68.5718 319.241697,69.2444316 321.695931,69.9245368 C323.327947,70.4277649 324.952511,70.9359754 326.572106,71.4491684 C324.495447,73.6339754 322.433691,75.8312386 320.396777,78.0409579 C318.717564,80.0015544 317.170005,81.8027123 314.42017,83.3547474 C309.158968,86.518607 305.132335,86.9246772 300.276032,86.5534842 C299.913362,86.5460105 299.56808,86.5260807 299.24267,86.4912035 C293.524404,86.0950982 289.102809,84.8519754 283.722372,80.183414 C275.500191,72.8492386 272.079665,62.2266421 274.767399,50.1965018 C277.328447,38.8763614 284.266378,31.8361509 294.81859,30.2243263 C294.875723,30.2143614 294.940309,30.2019053 294.997441,30.1894491 C298.457713,29.7210982 300.295904,29.5218 302.536511,29.7011684 C304.769665,29.9079404 307.412686,30.5008526 312.487585,31.6916596 C313.404197,31.9183614 314.323293,32.1425719 315.239904,32.3717649 C324.733915,34.6412737 330.166516,42.8996947 329.565378,53.6667825 C329.513213,54.6483263 329.463532,55.6298702 329.411367,56.6089228 C321.03766,56.1056947 312.663952,55.7643965 304.297697,55.5850281 C298.986814,55.1291333 293.663511,54.7405018 288.342691,54.4141509 L287.19258,54.3443965 C287.167739,54.7554491 287.137931,55.1640105 287.11309,55.5725719 C287.085766,56.0608526 287.055957,56.5491333 287.031117,57.0349228 C286.877106,58.4050982 286.755388,59.7528526 286.75042,60.9486421 C286.710676,63.4946772 287.207484,65.4104316 288.419697,67.4930982 C291.403032,72.5901509 294.309362,74.7625018 299.257574,75.5995544 C299.821452,75.7091684 300.377878,75.7789228 300.931819,75.8088175 C305.971941,76.2049228 309.966282,74.1372035 313.230314,69.4661509 C313.595468,68.9504667 313.95317,68.4322912 314.318324,67.916607" id="Fill-13" fill="#FFFFFF"></path>
                    <path d="M283.290149,82.3014561 L252.239617,104.411105" id="Stroke-14" stroke="#FFFFFF" stroke-width="0.25"></path>
                    <path d="M261.211979,87.9552982 L261.214463,87.9552982 C262.044133,87.7161404 262.836543,87.4620351 263.561883,87.2178947 C262.834059,87.4645263 262.044133,87.7186316 261.211979,87.9552982 M269.853963,0.458385965 C265.017532,1.73887719 260.21091,3.07417544 255.43658,4.4642807 C255.155883,4.55147368 254.87767,4.63866667 254.601941,4.72585965 C242.003623,11.9803158 229.806974,19.6458246 218.035096,27.6875088 C218.040064,27.9889474 218.047516,28.2878947 218.052485,28.5868421 C218.288469,35.7765263 218.526937,42.9637193 218.777825,50.1509123 C218.81757,50.9630526 218.85483,51.7776842 218.892091,52.5898246 C214.793421,55.5294737 210.734495,58.5015088 206.745123,61.5358246 C201.439208,65.5865614 200.197187,71.6302807 199.697894,77.6441053 C199.268155,83.5109474 200.122665,96.4030526 205.470809,103.480632 C210.620229,110.356421 216.298751,111.544737 221.726384,112.229825 C222.660384,112.356877 223.542219,112.379298 224.374373,112.322 C227.186309,112.172526 229.384687,111.208421 231.247719,110.426175 C233.314442,109.651404 235.388618,108.891579 237.470245,108.144211 C237.713681,108.054526 237.952149,107.967333 238.193102,107.882632 C248.682468,99.9405965 259.589899,92.3448421 270.889809,85.1277544 C270.912165,84.8312982 270.937005,84.5373333 270.961846,84.2408772 C271.048787,83.0450877 271.140697,81.846807 271.232606,80.6510175 C271.0935,69.1664561 270.932037,57.6744211 270.758154,46.182386 C270.946941,39.366386 271.140697,32.5528772 271.334452,25.7368772 C271.421394,17.7674386 271.510819,9.79301754 271.597761,1.82108772 L271.612665,0 C271.023947,0.151964912 270.437713,0.303929825 269.853963,0.458385965" id="Fill-15" fill="#1F3E63"></path>
                    <path d="M255.568234,75.8897825 C255.898612,75.829993 256.224021,75.7677123 256.551915,75.7079228 C256.529559,75.3317474 256.509686,74.9580632 256.489814,74.5818877 C256.132112,67.0658526 255.761989,59.5498175 255.384415,52.0288 C255.364543,51.6526246 255.339702,51.2789404 255.31983,50.9027649 C254.977032,50.8529404 254.63175,50.8031158 254.286468,50.7508 C253.898957,50.6835368 253.506479,50.6162737 253.118968,50.5515018 C252.289298,50.434414 251.561473,50.3372561 250.80384,50.3223088 C250.028819,50.3248 249.221505,50.4169754 248.247264,50.663607 C248.202551,50.6710807 248.160322,50.6785544 248.11561,50.6860281 C248.070897,50.695993 248.028668,50.7034667 247.988923,50.7109404 C247.951663,50.7333614 247.916886,50.7557825 247.88211,50.7782035 C247.839881,50.8031158 247.795168,50.8255368 247.752939,50.8504491 C244.836673,52.3352211 243.070519,60.4989754 243.351216,65.0554316 C243.706434,71.3532561 245.810418,74.4498526 250.543016,75.8075719 C251.45466,76.0990456 252.249553,76.2335719 253.049415,76.223607 C253.511447,76.2335719 253.970995,76.1937123 254.462835,76.0965544 C254.830473,76.0268 255.200596,75.9595368 255.568234,75.8897825 M257.150569,6.7482386 C261.060452,5.60974737 264.995176,4.50862456 268.949771,3.44237895 C268.905059,10.8089404 268.86283,18.1755018 268.813149,25.5420632 C268.644234,32.3680281 268.477803,39.1964842 268.313856,46.0249404 C268.532452,57.5045193 268.731176,68.9791158 268.914995,80.4512211 C268.852894,81.313186 268.788309,82.1726596 268.726207,83.0346246 C266.766298,83.5802035 264.806388,84.1382386 262.856415,84.7037474 C260.846824,85.4012912 258.832266,86.1038175 256.315931,86.0838877 C255.543394,86.0888702 254.72366,86.0240982 253.851761,85.8596772 C248.761957,84.9478877 243.448094,83.5901684 239.105987,77.3023088 C234.510509,70.7354316 234.50554,58.9045895 235.223429,53.5459579 C236.12762,47.4823088 237.670211,41.2442737 245.48004,38.2199228 C245.902328,38.0555018 246.324615,37.8910807 246.746902,37.7266596 C248.985521,36.9020632 251.576378,36.0450807 254.301372,36.0724842 C254.60691,36.0874316 254.912447,36.1048702 255.22792,36.1223088 C255.655176,36.1621684 256.082431,36.1995368 256.504718,36.2369053 C256.509686,35.8009404 256.519622,35.3649754 256.52459,34.9265193 C256.551915,32.3406246 256.581723,29.7547298 256.6165,27.1663439 C256.785415,20.3603088 256.96675,13.5542737 257.150569,6.7482386" id="Fill-16" fill="#FFFFFF"></path>
                    <path d="M232.490982,82.1811298 C231.611631,74.4633053 230.717376,66.7429895 229.803248,59.0201825 C229.289051,54.3441474 227.674423,45.4828491 221.985966,39.0405333 C215.760955,32.0576211 209.660147,29.2425333 201.23179,29.4393404 C200.782179,29.4592702 200.349955,29.4717263 199.927668,29.4891649 C195.915939,29.7457614 192.480509,30.6799719 189.524498,32.3216912 C189.278578,31.1234105 189.027689,29.9251298 188.776801,28.7268491 C188.672471,28.2012 188.570626,27.6730596 188.466296,27.1449193 C187.994328,27.316814 187.519876,27.4887088 187.047907,27.6606035 C183.316876,29.0083579 179.605716,30.3909895 175.914429,31.806007 L175.047498,32.1298667 C163.814657,40.9861825 153.011556,50.1937614 142.653099,59.7227088 C142.705264,60.0490596 142.762397,60.3779018 142.814562,60.7017614 C143.780854,66.3867439 144.749631,72.0692351 145.715923,77.7517263 C146.764189,83.1178316 147.809971,88.4839368 148.855753,93.8500421 C150.296498,100.735796 151.72979,107.616568 153.158115,114.502323 C153.245056,114.920849 153.331998,115.339375 153.418939,115.757902 C153.774157,115.71306 154.129376,115.670709 154.484594,115.625867 C158.47645,115.169972 162.47079,114.751446 166.460163,114.367796 C166.827801,114.330428 167.195439,114.290568 167.560594,114.2532 C172.71995,109.238358 178.018413,104.323165 183.433626,99.4901825 C184.25336,103.346604 185.097934,107.200533 185.907732,111.056954 C186.007094,111.530288 186.106455,111.998639 186.205817,112.471972 C187.698727,111.10927 189.221445,109.768989 190.734227,108.421235 C191.121737,108.311621 191.509248,108.206989 191.894274,108.097375 C190.376524,109.44513 188.851322,110.782919 187.350961,112.145621 C191.628482,110.902498 195.920907,109.704218 200.235689,108.555761 C210.266253,99.8887789 220.724072,91.5456561 231.596727,83.5612702 C220.724072,91.5456561 210.268737,99.8887789 200.235689,108.555761 C200.561099,108.468568 200.886509,108.381375 201.211918,108.294182 C211.25987,99.6471298 221.735078,91.3239368 232.622636,83.3594807 L232.490982,82.1811298 Z" id="Fill-17" fill="#1F3E63"></path>
                    <path d="M218.07186,86.3753614 C207.410349,94.6312912 197.166158,103.228519 187.351706,112.144625 C186.969163,112.254239 186.586621,112.361361 186.206562,112.470975 C196.001142,103.53494 206.225461,94.9078175 216.872068,86.6344491 C217.271998,86.5472561 217.671929,86.4625544 218.07186,86.3753614" id="Fill-18" fill="#FFFFFF"></path>
                    <path d="M195.747024,67.3553333 C195.761929,67.5895088 195.769381,67.8236842 195.784285,68.0578596 C195.806641,68.2920351 195.833966,68.5262105 195.858806,68.760386 C201.120009,64.5477193 206.483056,60.4197544 211.94795,56.374 C211.875913,55.9355439 211.808844,55.4970877 211.736806,55.0586316 C206.304205,59.0695088 200.975934,63.1750526 195.747024,67.3553333" id="Fill-19" fill="#FFFFFF"></path>
                    <path d="M186.630837,30.6620351 C187.458023,34.7177544 187.460507,34.7277193 187.522608,34.822386 C187.726299,35.358 187.929991,35.893614 188.133682,36.4267368 C188.560938,36.1277895 188.988193,35.8288421 189.415448,35.532386 C192.418656,33.5045263 195.898799,32.4058947 200.25581,32.124386 C200.645805,32.1119298 201.043252,32.0944912 201.455603,32.0720702 C209.056773,31.8702807 214.566379,34.4561754 220.244901,40.7838947 C225.391837,46.6108772 226.912071,54.8394035 227.413847,59.2090175 C228.308103,66.5332281 229.187454,73.8549474 230.049416,81.1766667 C226.258768,81.9240351 222.480539,82.7087719 218.71473,83.5258947 C217.224305,73.9371579 215.696619,64.3409474 214.131672,54.7447368 C213.451044,50.7911579 208.234555,47.2635789 202.993225,47.2735439 C202.81189,47.2835088 202.633039,47.2934737 202.466608,47.2934737 C197.948135,47.5899298 194.932507,51.3566667 193.973666,55.0461754 C192.927885,59.3111579 193.106736,63.6633333 193.412273,68.1151579 C193.591124,69.8042105 193.769975,71.4907719 193.946342,73.1798246 C194.199714,76.1020351 194.450603,79.0217544 194.706459,81.9439649 C194.790916,82.9005965 194.875374,83.8572281 194.962315,84.8138596 C191.554209,84.948386 188.146103,85.1078246 184.737996,85.2946667 C183.764252,78.8498596 182.783055,72.4050526 181.799374,65.9577544 C181.064097,60.6165614 180.326337,55.2753684 179.586092,49.9341754 C178.987438,44.6178947 178.386299,39.2991228 177.787645,33.9828421 C180.723784,32.8543158 183.672342,31.7482105 186.630837,30.6620351" id="Fill-20" fill="#FFFFFF"></path>
                    <path d="M182.781068,86.7644912 L155.359722,114.063368" id="Stroke-21" stroke="#FFFFFF" stroke-width="0.25" stroke-linecap="round"></path>
                    <path d="M163.894644,34.5680316 L163.926936,34.8296105 C165.154053,34.7498912 165.683154,35.5296456 166.115378,37.1489439 C166.463144,38.6013298 170.017809,62.7039614 170.80525,69.2683474 C170.879771,69.9036105 170.93442,70.3595053 170.944356,70.6235754 C172.459622,87.1005579 159.733872,101.871049 132.871436,103.953716 C132.635452,103.968663 132.421824,104.006032 132.183356,104.018488 C105.884798,105.737435 89.2988457,89.8284526 87.2892553,77.031014 C86.8719362,74.2682421 86.4794574,71.1716456 86.0993989,67.9878561 C84.7381436,56.6004526 83.6849096,44.1816807 83.473766,42.0417158 L83.4365053,41.7352947 C83.416633,40.8359614 83.4464415,40.7238561 84.2785957,40.5818561 L84.2487872,40.1683123 L84.2984681,40.5818561 C85.8509947,40.4797158 116.183638,39.4433649 123.168766,38.9874702 C123.407234,38.9725228 123.598505,38.9600667 123.772388,38.9476105 C129.907973,38.4817509 162.352053,34.9342421 163.882223,34.8321018 L163.894644,34.5680316 Z" id="Fill-22" fill="#FFFFFF"></path>
                    <path d="M172.119557,75.7826596 C172.370445,73.9914667 172.477259,72.1678877 172.375413,70.3193965 C172.271084,67.1704842 169.074121,38.3569404 168.726355,36.6454667 C168.378589,34.9290105 167.596115,33.6858877 165.894546,33.8179228 C165.790216,33.8253965 165.549264,33.8478175 165.201498,33.8826947 C164.764307,33.6833965 164.26253,33.5762737 163.673812,33.6161333 C162.12377,33.7406947 129.719435,37.2632912 123.626078,37.7266596 C123.452195,37.7391158 123.260924,37.7490807 123.022456,37.7665193 C116.059685,38.2199228 85.7717537,39.2762035 84.0478282,39.3883088 C83.4665622,39.4281684 82.8852963,39.6598526 82.5524346,40.1456421 C82.6145356,40.0534667 82.6865729,39.9712561 82.7660622,39.8965193 L59.108041,62.0709404 C59.0285516,62.143186 58.9565144,62.2253965 58.8944133,62.3175719 C58.5789399,62.7784491 58.5218069,63.3763439 58.6012963,64.0514667 C58.7329505,65.1625544 59.8060569,78.3062737 61.2343814,90.2367649 C61.6169239,93.4454667 62.031759,96.5395719 62.4515622,99.3247649 C64.6275835,112.96673 81.8544186,129.142274 108.669658,127.39094 C108.908126,127.375993 109.124238,127.363537 109.382578,127.346098 C122.900738,126.332168 133.030663,122.052239 139.608408,115.886449 L163.266429,93.7145193 C162.866498,94.0882035 162.414403,94.431993 161.989631,94.7907298 C168.080504,89.6388702 171.473706,82.9997474 172.119557,75.7826596" id="Fill-23" fill="#1F3E63"></path>
                    <path d="M101.952559,97.2488246 C101.952559,97.2488246 91.3953777,109.393561 83.3222394,121.538298" id="Stroke-24" stroke="#FFFFFF" stroke-width="0.25"></path>
                    <path d="M96.6739681,94.446193 C96.6739681,94.446193 86.1167872,106.59093 78.0436489,118.735667" id="Stroke-25" stroke="#FFFFFF"></path>
                    <path d="M159.320776,70.2613509 C156.657882,71.3400526 153.306909,72.9095263 152.109601,74.1651053 C150.919744,75.4206842 148.584744,76.9154211 147.884244,78.7115965 C147.173808,80.5127544 145.124473,83.4374561 144.627664,85.9436316 C144.140792,88.4572807 143.499909,90.9808947 143.822835,92.8493158 C144.143276,94.7152456 144.468686,96.5811754 144.657473,97.002193 C144.83384,97.4232105 145.154281,97.6872807 145.996372,97.3310351 C146.838462,96.9822632 151.312223,95.0341228 152.705771,94.3440526 C154.096835,93.6589649 158.006718,90.3007895 158.252638,89.8424035 C158.503526,89.3865088 162.028382,85.0393158 162.398505,84.4314561 C162.788499,83.818614 165.585531,79.5287193 165.893553,78.1934211 C166.204058,76.8631053 166.514563,69.2723333 166.514563,69.2723333 C166.514563,69.2723333 161.988638,69.1801579 159.320776,70.2613509 M115.134627,86.7657368 C114.173303,84.364193 111.604803,81.7957368 110.578893,80.1315965 C109.540563,78.4674561 106.962127,77.3588596 105.548707,76.3000877 C104.137771,75.243807 100.543361,74.2149298 97.7115527,73.5572456 C94.8797441,72.9020526 90.4407601,73.6793158 90.4407601,73.6793158 C90.4407601,73.6793158 92.1646856,81.1131404 92.7161431,82.3836667 C93.2725686,83.6517018 96.8371697,87.4483333 97.321558,87.9914211 C97.8133984,88.5345088 102.105824,92.2813158 102.431234,92.6923684 C102.759127,93.1009298 107.245308,95.8138772 108.74567,96.2797368 C110.243547,96.7480877 115.020361,97.9837368 115.914616,98.2029649 C116.811356,98.4271754 117.074664,98.1157719 117.169058,97.6673509 C117.278356,97.2264035 117.246063,95.3330702 117.211287,93.4472105 C117.181478,91.5563684 116.086015,89.1672807 115.134627,86.7657368 M145.149313,71.3325789 C144.37926,70.2987193 140.116643,66.275386 139.376398,65.4632456 C138.626218,64.539 137.682281,64.6112456 137.637569,66.1383684 C137.590372,67.6654912 138.89201,80.4155965 139.33417,83.0986491 C139.679452,85.7941579 140.991026,85.5824035 141.639361,83.3527544 C142.180882,80.049386 145.129441,75.1441579 145.810069,74.3245439 C146.393819,73.5223684 146.011276,72.3514912 145.149313,71.3325789 M137.674829,48.3983333 C136.241537,48.2862281 135.73976,49.9578421 135.806829,50.7151754 C135.86893,51.3703684 136.537138,56.5371754 136.696116,58.1614561 C137.520819,58.8614912 148.592196,68.5598421 149.955936,69.9798421 C153.95276,65.1020175 163.260468,64.1653158 164.649047,64.8205088 C164.524845,63.5250702 163.407026,51.6394211 162.91767,50.5856316 C162.522707,49.3101228 162.671749,48.8666842 161.526606,48.7371404 C160.272164,48.6125789 138.444882,48.5527895 137.674829,48.3983333 M134.520095,77.373807 C134.152457,75.4431053 132.127962,51.9832105 131.996308,50.5781579 C131.867138,49.2827193 131.40759,48.3335614 129.899776,48.4506491 C120.271627,47.9972456 91.7349463,52.152614 89.7700686,52.523807 C87.7182495,52.9049649 87.459909,53.2437719 87.6064676,54.7634211 C87.7654463,56.3777368 89.0198878,67.7103333 89.3154888,69.8602632 C102.016398,68.6644737 104.008601,69.7157719 110.84717,73.7590351 C116.478494,77.2392807 122.820255,91.1179123 122.636436,97.2288947 C122.353255,98.2328596 122.452616,99.1994561 123.326999,99.4585439 C130.572952,101.840158 137.063755,99.274193 137.915781,99.2044386 C138.665962,99.1496316 138.628702,98.7186491 138.208898,97.3310351 C137.766739,95.7341579 134.895186,79.3045088 134.520095,77.373807 M126.273074,46.3156667 C131.362877,45.9245439 160.212547,43.9415263 161.665712,43.2813509 C162.460606,42.6809649 162.251946,39.4299123 161.072026,38.9740175 C159.879686,38.4134912 131.53676,41.7691754 125.885563,42.2101228 C117.596313,42.845386 90.5252176,43.4283333 88.0138505,43.9514912 C85.6043293,44.5742982 87.0550101,48.919 87.8722601,48.5328596 C89.0770207,48.1168246 121.374542,46.6918421 126.273074,46.3156667" id="Fill-26" fill="#FFFFFF"></path>
                    <path d="M81.8765266,64.4189228 C81.1536702,61.4917298 80.4308138,58.5620456 79.7054734,55.6348526 C79.4694894,54.3718 79.2359894,53.1087474 78.9975213,51.8456947 C78.6820479,50.198993 78.3665745,48.5498 78.0511011,46.9030982 C77.9641596,46.4222912 77.8772181,45.9439754 77.7877926,45.4631684 C77.3381809,45.5578351 76.8885691,45.6525018 76.4389574,45.7446772 C72.4620053,46.6340456 68.4999574,47.5956596 64.5379096,48.5547825 C70.5468085,42.5359754 76.6972979,36.6093439 83.0216702,30.8097649 C82.9421809,30.406186 82.8602074,30.0001158 82.778234,29.5915544 C81.5933457,23.2389228 80.4109415,16.8862912 79.2335053,10.5336596 C79.1366277,10.0304316 79.042234,9.52720351 78.9478404,9.02397544 C78.4659362,9.14604561 77.9840319,9.26811579 77.4996436,9.39267719 C71.3094096,10.9571684 65.144016,12.6063614 59.0009787,14.3377649 C55.2525585,15.6705719 51.5165585,17.0357649 47.7954628,18.4308526 C42.1094894,19.9255895 36.4409043,21.4875895 30.7921915,23.1218351 C30.4195851,23.2314491 30.0469787,23.3385719 29.6743723,23.4456947 C19.3183989,34.1405368 9.42694149,45.1418 0,56.414607 C0.111781915,56.8082211 0.221079787,57.2018351 0.33037766,57.5929579 C2.53620745,65.5748526 4.75445745,73.5542561 6.99009574,81.5336596 C8.54510638,86.3840807 10.1075691,91.2320105 11.6700319,96.0799404 C13.1828138,101.214361 14.6980798,106.348782 16.2158298,111.480712 C18.0664415,116.54787 19.9170532,121.617519 21.7626968,126.687168 C23.9685266,131.148958 26.1619362,135.61573 28.3429255,140.082502 C28.5267447,140.456186 28.7155319,140.832361 28.8993511,141.211028 C29.8755798,139.848326 30.8841011,138.503063 31.875234,137.147835 C32.1907074,137.030747 32.5061809,136.921133 32.8191702,136.806537 C31.8305213,138.1518 30.824484,139.492081 29.8482553,140.844818 C34.6300372,139.036186 39.4341755,137.287344 44.2532181,135.600782 C44.5835957,135.483695 44.9164574,135.369098 45.2493191,135.252011 C53.4789521,124.472467 62.1631649,113.937063 71.2994734,103.680677 C71.1926596,103.269625 71.0858457,102.858572 70.981516,102.445028 C69.6376489,97.0166421 68.296266,91.5907474 66.954883,86.1648526 C66.6319574,84.9914842 66.3065479,83.820607 65.9836223,82.6497298 C71.2597287,76.9448175 76.6625213,71.3171333 82.2193245,65.7915895 C82.1050585,65.3356947 81.9907926,64.8773088 81.8765266,64.4189228" id="Fill-27" fill="#1F3E63"></path>
                    <path d="M76.889066,12.3365614 C77.9199436,17.7923509 78.9557894,23.2481404 79.9941191,28.7039298 C74.9068,29.8648421 69.8343851,31.0830526 64.7743904,32.3585614 C61.9326457,32.7596491 59.0909011,33.1756842 56.2516404,33.6116491 C55.0419117,34.1622105 53.8371511,34.7177544 52.6299064,35.2732982 L51.4003053,35.8437895 C51.1096723,35.9832982 50.8215234,36.122807 50.5333745,36.2623158 C50.6054117,36.6085965 50.679933,36.952386 50.7544543,37.2961754 C51.3307521,39.7201404 51.904566,42.141614 52.4808638,44.5630877 L52.7938532,45.9058596 C52.9404117,46.3418246 53.0894543,46.7802807 53.2384968,47.2162456 C53.7949223,48.7782456 54.356316,50.3377544 54.9127415,51.8997544 C55.0419117,52.2734386 55.1710819,52.6471228 55.3002521,53.0183158 C55.6654064,52.9635088 56.0330447,52.9062105 56.400683,52.8489123 C57.9830181,52.6122456 59.5653532,52.3830526 61.1501723,52.1563509 C66.0338,50.9481053 70.9298479,49.7896842 75.8333479,48.6885614 C76.0618798,49.8494737 76.2879277,51.010386 76.5164596,52.1712982 L77.2567043,56.035193 C77.8801989,58.5239298 78.5061777,61.0126667 79.1296723,63.4989123 C74.670816,64.1590877 70.2144436,64.861614 65.7630394,65.6089825 C63.9397521,65.8730526 62.1189489,66.1445965 60.2956617,66.423614 C59.8634383,66.488386 59.4287309,66.5531579 58.9940234,66.6179298 C59.1256777,67.0837895 59.2573319,67.5521404 59.3889862,68.018 C61.1352681,74.2286316 62.8765819,80.4417544 64.6154117,86.6548772 C65.8698532,91.6572632 67.1267787,96.6596491 68.3812202,101.664526 C63.9944011,102.91014 59.615034,104.200596 55.2480872,105.54586 C53.4620606,101.395474 51.6660979,97.2475789 49.8527468,93.0996842 C48.3424489,88.1396491 46.829667,83.179614 45.311917,78.2170877 C44.0947362,73.0876491 42.8850074,67.9557193 41.6752787,62.8212982 C40.3885447,57.9484561 39.1018106,53.0731228 37.8175606,48.1977895 C36.1383479,40.5995439 34.4715553,32.998807 32.819667,25.4005614 C38.0808691,23.8834035 43.3594596,22.4285263 48.6529543,21.0334386 C52.3914383,19.6333684 56.1398585,18.2656842 59.9081511,16.9278947 C65.5494117,15.3285263 71.2080606,13.7964211 76.889066,12.3365614" id="Fill-28" fill="#FFFFFF"></path>
                    <path d="M55.1124585,108.459351 C46.2369745,118.997246 37.8135862,129.804193 29.8472617,140.845316 C29.5317883,140.967386 29.2163149,141.089456 28.8983574,141.209035 C36.8448096,130.152965 45.2508096,119.328579 54.1113894,108.770754 C54.441767,108.668614 54.7771128,108.561491 55.1124585,108.459351" id="Fill-29" fill="#FFFFFF"></path>
                </g>
            </g>
        </g>
    </g>
</svg>