<?xml version="1.0" encoding="UTF-8" standalone="no"?>
<svg width="116px" height="134px" viewBox="0 0 116 134" version="1.1" xmlns="http://www.w3.org/2000/svg" xmlns:xlink="http://www.w3.org/1999/xlink">
    <!-- Generator: Sketch 3.7.2 (28276) - http://www.bohemiancoding.com/sketch -->
    <title>listen</title>
    <desc>Created with Sketch.</desc>
    <defs></defs>
    <g id="Page-1" stroke="none" stroke-width="1" fill="none" fill-rule="evenodd">
        <g id="listen" transform="translate(-14.000000, -5.000000)" fill="#FF4B9C">
            <path d="M104.175705,125.851948 C102.34169,125.851948 100.53985,125.465842 99.252822,124.88668 C94.7160477,122.473502 91.4341258,119.191577 88.248731,109.538865 C84.9346334,99.532221 78.7890737,94.8023924 72.8365683,90.2012666 C67.752807,86.2758306 62.4759914,82.2216917 57.939217,73.9525356 C54.5607679,67.7748002 52.6945771,61.0500779 52.6945771,55.0653968 C52.6945771,37.0148264 66.8197115,22.8896919 84.870282,22.8896919 C102.920852,22.8896919 117.045987,37.0148264 117.045987,55.0653968 L129.916269,55.0653968 C129.916269,29.8074685 110.12821,10.01941 84.870282,10.01941 C59.6123536,10.01941 39.8242951,29.8074685 39.8242951,55.0653968 C39.8242951,63.2058502 42.2696487,72.1185204 46.6777202,80.1624466 C52.5336985,90.812605 59.4514751,96.1215963 65.017872,100.433141 C70.2303362,104.455104 73.9948937,107.350917 76.0541388,113.593004 C79.9152234,125.272785 84.9024577,131.868801 93.589898,136.437745 C96.9361713,137.950006 100.475499,138.722217 104.175705,138.722217 C118.365191,138.722217 129.916269,127.171139 129.916269,112.981666 L117.045987,112.981666 C117.045987,120.09248 111.286536,125.851935 104.175705,125.851935 L104.175705,125.851948 Z M43.9106096,14.1057245 L34.8048851,5 C21.9989546,17.8059305 14.0837312,35.5025682 14.0837312,55.0653968 C14.0837312,74.6282254 21.9989546,92.3248631 34.8048851,105.130794 L43.9106096,96.0250691 C33.4213298,85.5357893 26.9540131,71.0567221 26.9540131,55.0653968 C26.9540131,39.0740715 33.4213298,24.5950043 43.9106096,14.1057245 L43.9106096,14.1057245 Z M68.7824295,55.0653968 C68.7824295,63.9458914 75.9897874,71.1532493 84.870282,71.1532493 C93.7507765,71.1532493 100.958134,63.9458914 100.958134,55.0653968 C100.958134,46.1849023 93.7507765,38.9775444 84.870282,38.9775444 C75.9897874,38.9775444 68.7824295,46.1849023 68.7824295,55.0653968 L68.7824295,55.0653968 Z"></path>
        </g>
    </g>
</svg>