<?xml version="1.0" encoding="UTF-8" standalone="no"?>
<svg width="528px" height="130px" viewBox="0 0 528 130" version="1.1" xmlns="http://www.w3.org/2000/svg" xmlns:xlink="http://www.w3.org/1999/xlink">
    <!-- Generator: Sketch 3.7.2 (28276) - http://www.bohemiancoding.com/sketch -->
    <title>Logo</title>
    <desc>Created with Sketch.</desc>
    <defs></defs>
    <g id="Page-1" stroke="none" stroke-width="1" fill="none" fill-rule="evenodd">
        <g id="Living-Earth" transform="translate(-244.000000, -288.000000)">
            <g id="Logo" transform="translate(244.000000, 288.000000)">
                <path d="M366.297161,43.4115948 L366.337394,43.4328479 C392.034166,7.41124076 441.45395,-3.87650554 480.60733,18.6800954 C519.765444,41.2366964 534.672791,89.5850893 516.260478,129.800637 C516.279411,129.810083 516.298344,129.82189 516.319644,129.833698 C540.239084,88.4988208 526.04409,35.6424138 484.616387,11.7752063 C470.977549,3.91865148 456.084402,0.182832512 441.390051,0.182832512 C411.45466,0.180471059 382.340486,15.6834113 366.297161,43.4115948 L366.297161,43.4115948 Z" id="Shape" fill="#77E4FF"></path>
                <path d="M178.936496,86.3286453 C178.936496,99.566952 187.91309,110.101395 202.434678,110.101395 C210.220862,110.101395 216.688837,106.87565 220.979521,103.054818 L220.979521,84.6827124 L201.904555,84.6827124 L201.904555,89.3583898 L215.962285,89.3583898 L215.962285,100.818522 C212.795745,103.385422 207.911039,105.425717 202.628741,105.425717 C191.410956,105.425717 184.348959,97.2621736 184.348959,86.1940425 C184.348959,75.8579618 191.676018,67.2315733 201.904555,67.2315733 C208.441162,67.2315733 212.40052,69.4041102 215.962285,72.4999754 L219.329986,68.5469027 C214.710342,64.6599507 209.891901,62.4212931 202.103351,62.4212931 C188.242051,62.4212931 178.936496,73.6169427 178.936496,86.3286453 L178.936496,86.3286453 Z M310.073342,62.8841379 L290.401987,109.315031 L303.868061,109.315031 L307.167131,101.080643 L324.990155,101.080643 L328.355491,109.315031 L342.081893,109.315031 L322.415271,62.8841379 L310.073342,62.8841379 L310.073342,62.8841379 Z M316.146092,78.0328602 L321.291126,91.136564 L310.932425,91.136564 L316.146092,78.0328602 L316.146092,78.0328602 Z M466.817029,63.2123799 L466.817029,80.4675185 L450.383211,80.4675185 L450.383211,63.2123799 L437.577424,63.2123799 L437.577424,109.315031 L450.383211,109.315031 L450.383211,91.7954095 L466.817029,91.7954095 L466.817029,109.315031 L479.620449,109.315031 L479.620449,63.2123799 L466.817029,63.2123799 L466.817029,63.2123799 Z M391.444878,63.2123799 L391.444878,74.4080296 L405.306178,74.4080296 L405.306178,109.315031 L418.111965,109.315031 L418.111965,74.4080296 L431.970899,74.4080296 L431.970899,63.2123799 L391.444878,63.2123799 L391.444878,63.2123799 Z M346.569007,63.2123799 L346.569007,109.315031 L359.372428,109.315031 L359.372428,95.3541195 L364.98132,95.3541195 L374.289241,109.315031 L389.073523,109.315031 L378.052168,93.2429803 C383.793591,90.8059606 387.554152,86.1326447 387.554152,79.0860683 L387.554152,78.9514655 C387.554152,74.4080296 386.167312,70.851681 383.462264,68.2162993 C380.359624,65.0566749 375.477285,63.2123799 368.415287,63.2123799 L346.569007,63.2123799 L346.569007,63.2123799 Z M359.372428,74.2781496 L367.755,74.2781496 C372.043317,74.2781496 374.684467,76.1200831 374.684467,79.7425523 L374.684467,79.8747937 C374.684467,83.2327802 372.175848,85.3415579 367.821265,85.3415579 L359.372428,85.3415579 L359.372428,74.2781496 L359.372428,74.2781496 Z M250.079495,63.2123799 L250.079495,109.315031 L287.569141,109.315031 L287.569141,98.4476232 L262.752752,98.4476232 L262.752752,91.136564 L284.930359,91.136564 L284.930359,81.0602432 L262.752752,81.0602432 L262.752752,74.0797876 L287.240181,74.0797876 L287.240181,63.2123799 L250.079495,63.2123799 L250.079495,63.2123799 Z M162.838739,63.2123799 L162.838739,100.157315 L133.729299,63.2123799 L128.844593,63.2123799 L128.844593,109.315031 L133.928095,109.315031 L133.928095,71.508165 L163.759355,109.315031 L167.919875,109.315031 L167.919875,63.2123799 L162.838739,63.2123799 L162.838739,63.2123799 Z M110.10332,109.315031 L115.316986,109.315031 L115.316986,63.2123799 L110.10332,63.2123799 L110.10332,109.315031 L110.10332,109.315031 Z M94.9285446,63.2123799 L78.4284618,102.922577 L61.9922778,63.2123799 L56.1822228,63.2123799 L76.0500075,109.640911 L80.669652,109.640911 L100.537437,63.2123799 L94.9285446,63.2123799 L94.9285446,63.2123799 Z M41.4003069,109.315031 L46.61634,109.315031 L46.61634,63.2123799 L41.4003069,63.2123799 L41.4003069,109.315031 L41.4003069,109.315031 Z M0.0885677889,63.2123799 L0.0885677889,109.315031 L31.3066677,109.315031 L31.3066677,104.507112 L5.30223423,104.507112 L5.30223423,63.2123799 L0.0885677889,63.2123799 L0.0885677889,63.2123799 Z" id="Shape" fill="#FFFFFF"></path>
            </g>
        </g>
    </g>
</svg>