<?xml version="1.0" encoding="UTF-8" standalone="no"?>
<svg width="127px" height="125px" viewBox="0 0 127 125" version="1.1" xmlns="http://www.w3.org/2000/svg" xmlns:xlink="http://www.w3.org/1999/xlink">
    <!-- Generator: Sketch 3.7.2 (28276) - http://www.bohemiancoding.com/sketch -->
    <title>talk</title>
    <desc>Created with Sketch.</desc>
    <defs></defs>
    <g id="Page-1" stroke="none" stroke-width="1" fill="none" fill-rule="evenodd">
        <g id="briefcase-copy-2" transform="translate(-9.000000, -9.000000)" fill="#FF4B9C">
            <g id="talk" transform="translate(9.000000, 9.000000)">
                <path d="M44.1906937,60.5661336 C34.3063843,60.5661336 25.9881609,67.3168608 23.5224748,76.4507268 C22.7875849,76.239954 22.0172104,76.097763 21.1784194,76.097763 C13.2960575,76.097763 2.53621766,86.094981 0.588752384,90.9996444 C-0.533859463,93.8271474 0.757270948,95.4700866 1.36799245,96.0464988 C2.31828441,96.9479532 3.70064294,97.3821744 5.58982452,97.3821744 C10.1968413,97.3821744 19.1904042,94.705758 24.5221785,90.553995 C26.8092222,95.834466 31.153955,100.007813 36.5351462,102.078623 L36.5351462,106.589687 L36.5351462,118.85706 L36.5351462,124.993273 L42.6588222,124.993273 L45.7212951,124.993273 L51.8424562,124.993273 L51.8424562,118.85706 L51.8424562,106.589687 L51.8424562,102.078623 C59.8869883,98.983206 65.6216922,91.1786778 65.6216922,82.0435392 C65.6229496,70.2015048 56.0021966,60.5661336 44.1906937,60.5661336 L44.1906937,60.5661336 Z M22.6114572,83.8007352 C21.0479112,86.8224924 12.9121403,90.1756422 7.77042584,91.033929 C10.7175992,87.5792106 17.1745118,82.231443 21.1796768,82.231443 C22.050155,82.231443 22.3289011,82.522188 22.5430407,82.8243738 C22.814192,83.2128822 22.8268543,83.3842926 22.6114572,83.8007352 L22.6114572,83.8007352 Z M28.9011259,81.8657784 C28.9986896,73.4810076 35.7977163,66.7023462 44.1906937,66.7023462 C45.2322194,66.7023462 46.2483954,66.8128104 47.2303569,67.0095972 C47.0187699,74.5779888 39.1237332,80.8068996 28.9011259,81.8657784 L28.9011259,81.8657784 Z M45.7225651,118.855775 L42.6600922,118.855775 L42.6600922,106.588415 L45.7225651,106.588415 L45.7225651,118.855775 L45.7225651,118.855775 Z M58.6946847,86.7107682 C57.8140843,85.7331468 56.5546341,85.1110092 55.1367985,85.1110092 C52.470905,85.1110092 50.3105848,87.2719596 50.3105848,89.940753 C50.3105848,91.9252278 51.5130233,93.6278154 53.2210098,94.3743654 C50.6830971,96.2420256 47.5800722,97.3796292 44.1894362,97.3796292 C37.8085413,97.3796292 32.3475287,93.4602228 30.0490928,87.8966046 C42.0215085,86.4492048 51.4534716,78.9900174 53.0905016,69.6047562 C56.960091,72.3878316 59.4992737,76.9077918 59.4992737,82.0409814 C59.4992737,83.6813754 59.1710981,85.232889 58.6946847,86.7107682 L58.6946847,86.7107682 Z" id="Fill-1"></path>
                <path d="M13.6723799,55.6627428 C15.2257911,53.9982324 16.8932382,52.8492006 18.0462599,52.1585064 C18.5023911,52.2296082 18.9610749,52.2981648 19.4387457,52.2981648 L53.6328042,52.2981648 C58.486895,52.2981648 62.426171,48.3457464 62.426171,43.4867958 L62.426171,21.491316 C62.426171,16.632378 58.486895,12.68001 53.6328042,12.68001 L19.4387457,12.68001 C14.5897223,12.68001 10.6453764,16.632378 10.6453764,21.491316 L10.6453764,43.4880558 C10.6453764,44.8313544 10.9710107,46.0946556 11.5095095,47.2360644 C9.08816527,53.7493824 11.6716923,57.813525 13.6723799,55.6627428 L13.6723799,55.6627428 Z" id="Fill-3"></path>
                <path d="M103.88932,51.364971 C91.2314308,51.364971 80.9251922,61.683426 80.9251922,74.3748516 C80.9251922,84.3670044 87.3339643,92.8723824 96.238827,96.0414336 L96.238827,100.45093 L96.238827,118.855787 L96.238827,124.992 L102.357448,124.992 L107.71964,124.992 L113.838248,124.992 L113.838248,118.855787 L113.838248,100.450917 L113.838248,95.0777604 C121.521685,91.3538808 126.852127,83.4871212 126.852127,74.374839 C126.85351,61.683426 116.548478,51.364971 103.88932,51.364971 L103.88932,51.364971 Z M107.720897,118.855775 L102.358718,118.855775 L102.358718,100.450917 L107.720897,100.450917 L107.720897,118.855775 L107.720897,118.855775 Z M103.88932,91.6268598 C99.7194444,91.6268598 95.8891244,90.1324746 92.9052153,87.6503124 C94.8640835,86.7488706 96.238827,84.7770966 96.238827,82.4739426 C96.238827,79.3264878 93.6819147,76.7706786 90.5472151,76.7706786 C89.2218758,76.7706786 88.0245173,77.2366392 87.0602855,77.9933574 C86.809404,76.8252744 86.6713009,75.616569 86.6713009,74.373579 C86.6713009,64.8562824 94.3940074,57.1152204 103.88932,57.1152204 C113.384632,57.1152204 121.112418,64.8575424 121.112418,74.3748516 C121.112418,83.889603 113.385914,91.6268598 103.88932,91.6268598 L103.88932,91.6268598 Z" id="Fill-6"></path>
                <path d="M114.271582,39.6207126 C114.747996,39.6207126 115.207937,39.553416 115.662811,39.4797816 C116.817102,40.1704632 118.482009,41.3207676 120.040488,42.9865506 C122.038638,45.1335276 124.6209,41.0719176 122.202091,34.556067 C122.739326,33.4146582 123.067489,32.1538896 123.067489,30.8080584 L123.067489,8.811432 C123.067489,3.952368 119.121876,0 114.272852,0 L80.0724689,0 C75.2297829,0 71.2828995,3.952368 71.2828995,8.811432 L71.2828995,30.808071 C71.2828995,35.6682942 75.2285129,39.6207126 80.0724689,39.6207126 L114.271582,39.6207126 L114.271582,39.6207126 Z" id="Fill-7"></path>
            </g>
        </g>
    </g>
</svg>