<?xml version="1.0" encoding="UTF-8" standalone="no"?>
<svg width="128px" height="128px" viewBox="0 0 128 128" version="1.1" xmlns="http://www.w3.org/2000/svg" xmlns:xlink="http://www.w3.org/1999/xlink">
    <!-- Generator: Sketch 3.7.2 (28276) - http://www.bohemiancoding.com/sketch -->
    <title>wizard</title>
    <desc>Created with Sketch.</desc>
    <defs></defs>
    <g id="Page-1" stroke="none" stroke-width="1" fill="none" fill-rule="evenodd">
        <g id="wizard" transform="translate(-7.000000, -9.000000)" fill="#FF4B9C">
            <g transform="translate(7.000000, 9.000000)">
                <path d="M64,127.074025 C94.5569721,127.074025 127.032947,118.483335 127.032947,102.561213 C127.032947,93.3766119 115.960159,85.7062025 96.5628205,81.3835431 C86.869754,55.6618985 67.4331945,8.8984553 67.2328898,8.41800416 L64,0.643940678 L60.7671102,8.41800416 C60.5668055,8.8984553 41.130246,55.6618985 31.4385802,81.3835431 C12.0398405,85.7062025 0.967052808,93.3766119 0.967052808,102.561213 C0.967052808,118.483335 33.4430279,127.074025 64,127.074025 L64,127.074025 Z M32.6137945,88.3115644 C30.5799314,93.9257129 29.3038644,97.8841679 29.2730483,99.0593822 C29.2730483,104.85281 44.8519914,109.564873 64,109.564873 C83.1480086,109.564873 98.7269517,104.854211 98.725551,99.0173603 C98.6947349,97.8533518 97.4228701,93.9103048 95.3932092,88.3129651 C112.281837,92.1523719 120.029286,98.3043876 120.029286,102.561213 C120.029286,109.873035 98.7143451,120.070365 64,120.070365 C29.2856549,120.070365 7.97071361,109.873035 7.97071361,102.561213 C7.97071361,98.3029869 15.7195639,92.1509712 32.6137945,88.3115644 L32.6137945,88.3115644 Z M95.2251213,99.0495771 C94.9645851,100.740261 85.0754161,106.063043 64,106.063043 C42.9119773,106.063043 33.0312127,100.737459 32.7748787,99.1112093 C32.9807863,95.561754 48.7222143,55.8832141 64,18.9080873 C79.2777857,55.8846149 95.0206144,95.5631548 95.2251213,99.0495771 L95.2251213,99.0495771 Z" id="Fill-1"></path>
                <path d="M84.0360728,79.741885 C83.6228568,79.2180112 82.9491047,78.9742838 82.2963635,79.114357 L74.9971482,80.6719712 L69.5763147,75.5410893 C69.0916614,75.0816491 68.3884939,74.9387744 67.765168,75.1698952 C67.1404415,75.401016 66.7006256,75.9669118 66.6319897,76.6294582 L65.8573708,84.0533386 L59.3033451,87.6238189 C58.7192398,87.9431718 58.3648685,88.5664976 58.3914684,89.2318594 C58.4180823,89.8986079 58.8214932,90.4911176 59.429411,90.7614589 L66.2509766,93.7926433 L67.6222934,101.129678 C67.7441571,101.785221 68.2288104,102.313297 68.8703457,102.493991 C69.025827,102.537414 69.1855105,102.558425 69.3437932,102.558425 C69.8326487,102.558425 70.3088976,102.353918 70.6464741,101.978522 L75.6372828,96.4274205 L83.0387515,97.3911242 C83.119994,97.4009434 83.1928321,97.4065323 83.2810782,97.4051456 C84.2770128,97.3687125 85.0431992,96.6263385 85.0431992,95.6542304 C85.0431992,95.2297945 84.8919202,94.840391 84.6411891,94.5378468 L81.0427082,88.3157946 L84.2461826,81.5754714 C84.5291305,80.9773308 84.4492888,80.2657588 84.0360728,79.741885 L84.0360728,79.741885 Z M75.1722397,92.8387307 C74.6035424,92.7686941 74.030643,92.9774032 73.6440409,93.4046265 L70.4097504,97.0017067 L69.5217002,92.246221 C69.4166313,91.6803252 69.0384336,91.2012748 68.5117583,90.9673525 L64.0910616,89.0035261 L68.3394822,86.6895165 C68.8451465,86.4135723 69.1841237,85.9065072 69.2429545,85.3336078 L69.7444166,80.5234936 L73.2574529,83.847431 C73.6762718,84.2438382 74.2631785,84.4091246 74.8262729,84.2886616 L79.5565454,83.2801344 L77.4806603,87.6476173 C77.2327307,88.1686897 77.2579439,88.7766074 77.5464947,89.2766688 L79.9683606,93.4634572 L75.1722397,92.8387307 L75.1722397,92.8387307 Z" id="Fill-3"></path>
                <path d="M68.2960455,62.4708575 C70.8117605,56.7222527 68.1797848,49.9987383 62.4297792,47.4816226 C60.7769153,46.7588448 58.9797759,46.4408786 57.1868388,46.5557387 C56.5298954,46.5949592 55.9527937,46.9997708 55.6894561,47.6020856 C55.4261184,48.2044004 55.5213682,48.9033658 55.9373857,49.4118316 C57.8241719,51.7174367 58.2569981,54.8396687 57.0663758,57.5584898 C55.8771542,60.2773109 53.2914026,62.0800532 50.3176483,62.2593469 C49.6621056,62.2985674 49.0836032,62.7019783 48.8202656,63.3056938 C48.5569279,63.9080087 48.6521777,64.606974 49.0681952,65.1154398 C50.2223985,66.5273778 51.6497305,67.6115445 53.3082114,68.335723 C54.7593699,68.9702547 56.2917709,69.2924231 57.8647931,69.2924231 L57.8647931,69.2924231 C62.389158,69.2938238 66.4834981,66.6156239 68.2960455,62.4708575 L68.2960455,62.4708575 Z M57.8647931,65.7919934 C56.777825,65.7919934 55.7174707,65.569277 54.711745,65.1280464 C54.5506608,65.0580098 54.3923781,64.9823702 54.2382976,64.9025285 C56.9010894,63.7959501 59.0792279,61.7018555 60.2768539,58.9620234 C61.4744799,56.223592 61.5347114,53.2022128 60.5401916,50.4959982 C60.705478,50.554829 60.8679629,50.6192627 61.0290471,50.6907 C65.0099279,52.4332108 66.8308797,57.0878438 65.0897696,61.0673239 C63.8319121,63.9374241 60.9968302,65.7919934 57.8647931,65.7919934 L57.8647931,65.7919934 Z" id="Fill-4"></path>
            </g>
        </g>
    </g>
</svg>