<?xml version="1.0" standalone="no"?><!DOCTYPE svg PUBLIC "-//W3C//DTD SVG 1.1//EN" "http://www.w3.org/Graphics/SVG/1.1/DTD/svg11.dtd"><svg width="100%" height="100%" viewBox="0 0 144 144" version="1.1" xmlns="http://www.w3.org/2000/svg" xmlns:xlink="http://www.w3.org/1999/xlink" xml:space="preserve" style="fill-rule:evenodd;clip-rule:evenodd;stroke-linejoin:round;stroke-miterlimit:1.41421;"><g id="Layer 1"><path d="M85.601,3.77l-55.011,0c-7.599,0 -13.685,6.155 -13.685,13.753l-0.068,110.023c0,7.599 6.085,13.753 13.684,13.753l82.586,0c7.598,0 13.753,-6.154 13.753,-13.753l0,-82.517l-41.259,-41.259ZM99.354,113.793l-55.011,0l0,-13.753l55.011,0l0,13.753ZM99.354,86.287l-55.011,0l0,-13.752l55.011,0l0,13.752ZM78.725,51.905l0,-37.82l37.82,37.82l-37.82,0Z" style="fill:#000;fill-rule:nonzero;"/></g></svg>